<svg width="32" height="32" viewBox="0 0 32 32" fill="none" xmlns="http://www.w3.org/2000/svg">
<mask id="mask0" mask-type="alpha" maskUnits="userSpaceOnUse" x="8" y="6" width="16" height="20">
<path fill-rule="evenodd" clip-rule="evenodd" d="M20.4938 11.0934H22.0721H22.0745C23.138 11.0958 23.9994 11.959 24 13.0231V23.2735C23.9994 24.3382 23.1362 25.202 22.0715 25.2032H9.92795C8.86319 25.202 8.00061 24.3388 8 23.2735V13.0231C8.00061 11.9584 8.8638 11.0946 9.92853 11.0934H11.5068V10.0844C11.5068 8.17809 12.0172 6 16.0003 6C18.9822 6 20.4938 7.36948 20.4938 10.0844V11.0934ZM14.5852 18.1483C14.5852 17.3661 15.2187 16.7321 16.0003 16.7309H16.0027C16.7855 16.7309 17.4202 17.3655 17.4202 18.1483C17.4202 18.9311 16.7855 19.5658 16.0027 19.5658C15.2199 19.5658 14.5852 18.9311 14.5852 18.1483ZM13.1246 10.0844C13.1246 8.59499 13.3249 7.61002 16.0003 7.61002C18.3949 7.61002 18.876 8.55479 18.876 10.0844V11.0934H13.1246V10.0844ZM22.0727 23.586C22.2418 23.5806 22.3786 23.4438 22.3828 23.2735H22.3852V13.0225C22.381 12.8528 22.2442 12.716 22.0745 12.7106H9.93036C9.7612 12.7166 9.62503 12.8534 9.62082 13.0231V23.2741C9.62503 23.4438 9.7612 23.5806 9.93094 23.586H22.0727Z" fill="white"/>
</mask>
<g mask="url(#mask0)">
<path fill-rule="evenodd" clip-rule="evenodd" d="M0 0H32V32H0V0Z" fill="#1F2229"/>
</g>
</svg>
