<svg width="24" height="24" viewBox="0 0 24 24" fill="none" xmlns="http://www.w3.org/2000/svg">
<path fill-rule="evenodd" clip-rule="evenodd" d="M8 6V3.5C8 2.67157 8.67157 2 9.5 2H21.5C22.3284 2 23 2.67157 23 3.5V19.5C23 20.3284 22.3284 21 21.5 21H9.5C8.67157 21 8 20.3284 8 19.5V17H2.91644C2.67338 17 2.44028 16.9034 2.26842 16.7316C2.09655 16.5597 2 16.3266 2 16.0836V6.91644C2 6.67338 2.09655 6.44028 2.26842 6.26842C2.44028 6.09655 2.67338 6 2.91644 6H8ZM21.5 3H16V6.5L22 6.5V3.5C22 3.22386 21.7761 3 21.5 3ZM9.5 3H15V6.5L12.8999 6.5C12.8567 6.41524 12.8001 6.33696 12.7316 6.26842C12.5597 6.09655 12.3266 6 12.0836 6H9V3.5C9 3.22386 9.22386 3 9.5 3ZM9 17V19.5C9 19.7761 9.22386 20 9.5 20H15V16.5H12.8999C12.8567 16.5848 12.8001 16.663 12.7316 16.7316C12.5597 16.9034 12.3266 17 12.0836 17H9ZM13 15.5H15V12H13V15.5ZM13 11H15V7.5L13 7.5V11ZM16 11V7.5L22 7.5V11L16 11ZM16 15.5V12L22 12V15.5L16 15.5ZM16 20V16.5L22 16.5V19.5C22 19.7761 21.7761 20 21.5 20H16ZM4.37305 15L6.63825 11.4902L4.56345 8H6.23295L7.36555 10.2309C7.46961 10.4423 7.54125 10.6 7.58045 10.7041H7.59515C7.66981 10.5352 7.74798 10.3709 7.82965 10.2113L9.03995 8H10.5722L8.44425 11.4706L10.6261 15H8.99515L7.68685 12.55C7.62521 12.4456 7.57297 12.336 7.53075 12.2224H7.51115C7.47297 12.3335 7.42224 12.4399 7.35995 12.5395L6.01385 15H4.37305Z" fill="#366EA5"/>
</svg>
