<svg width="33" height="33" viewBox="0 0 33 33" fill="none" xmlns="http://www.w3.org/2000/svg">
<path d="M16.586 2.83934C16.1878 2.66473 15.7955 2.78688 15.5432 3.04385C15.2981 3.29347 15.1755 3.67444 15.2614 4.05856C15.3971 4.66485 15.4688 5.29564 15.4688 5.94356C15.4688 7.42284 15.0959 8.45892 14.4544 9.3178C13.8023 10.1909 12.8583 10.9017 11.6664 11.7037C11.6477 11.7163 11.6302 11.7308 11.6143 11.7468L11.47 11.8923C8.91269 13.5444 7.21875 16.4211 7.21875 19.6936C7.21875 24.8195 11.3741 28.9748 16.5 28.9748C21.6259 28.9748 25.7812 24.8195 25.7812 19.6936C25.7812 18.1885 25.4228 16.7663 24.7862 15.5084C24.7345 15.4061 24.635 15.3363 24.5212 15.3224C24.4074 15.3085 24.2941 15.3523 24.2192 15.4391C24.1223 15.5515 24.0273 15.6625 23.9338 15.7718C22.7261 17.1828 21.7515 18.3215 19.7535 18.8301C19.6685 18.8517 19.6157 18.8356 19.5783 18.8122C19.5342 18.7847 19.486 18.7297 19.4529 18.6419C19.384 18.4588 19.4136 18.2254 19.5547 18.0724C20.6233 16.9138 21.3825 15.3411 21.6538 13.1038C22.1619 8.91297 20.2572 4.4489 16.586 2.83934Z" fill="url(#paint0_linear)"/>
<defs>
<linearGradient id="paint0_linear" x1="25.7813" y1="15.7282" x2="7.21875" y2="15.7286" gradientUnits="userSpaceOnUse">
<stop stop-color="#7C4394"/>
<stop offset="1" stop-color="#DB2431"/>
</linearGradient>
</defs>
</svg>
