<svg width="62" height="21" viewBox="0 0 62 21" fill="none" xmlns="http://www.w3.org/2000/svg">
<path d="M13.9121 14.7862C14.291 13.7953 14.4804 12.681 14.4804 11.4399C14.4804 9.94504 14.1877 8.60447 13.5987 7.41475C13.0097 6.22504 12.1554 5.29932 11.0326 4.63761C9.91311 3.97589 8.65244 3.64675 7.254 3.64675C5.86933 3.64675 4.619 3.96561 3.49956 4.60332C2.38011 5.24104 1.519 6.17018 0.912778 7.38732C0.303111 8.60789 0 9.96218 0 11.4502C0 12.945 0.299667 14.289 0.902444 15.4788C1.50522 16.6685 2.36289 17.5976 3.47889 18.2559C4.59489 18.9142 5.83833 19.2433 7.20922 19.2433C7.96356 19.2433 8.68 19.137 9.362 18.945C8.26322 18.249 7.037 17.7279 6.231 17.4468C5.17356 17.2582 4.26767 16.7679 3.52367 15.9656C2.55233 14.9165 2.06667 13.4113 2.06667 11.4502C2.06667 9.42732 2.55922 7.90847 3.54433 6.89018C4.52944 5.87189 5.76944 5.36447 7.26433 5.36447C8.26322 5.36447 9.16222 5.61475 9.96478 6.11875C10.7673 6.62275 11.377 7.33247 11.7938 8.24104C12.2106 9.15304 12.4172 10.2193 12.4172 11.4399C12.4172 13.5862 11.8282 15.1908 10.6502 16.2605C9.89933 15.6228 8.94522 15.1428 7.78789 14.8205L7.316 16.2228C7.46411 16.281 7.61222 16.3393 7.76378 16.4045C8.29422 16.5759 9.00378 16.881 9.83045 17.4468C9.97167 17.5359 10.0922 17.625 10.1887 17.7073L11.7387 18.8182C12.431 19.2913 13.082 19.6719 13.6917 19.9565C13.8536 20.025 14.0154 20.1005 14.1808 20.1588L14.7698 18.7702C13.9844 18.4753 13.1268 18.009 12.1968 17.3713C12.9614 16.641 13.5332 15.777 13.9121 14.7862Z" fill="black"/>
<path d="M27.9895 4.58621C26.8666 3.92106 25.606 3.58849 24.2075 3.58849C22.8091 3.58849 21.5071 3.92106 20.3842 4.58621C19.2613 5.25135 18.4071 6.17706 17.8181 7.36678C17.2291 8.55649 16.9363 9.90392 16.9363 11.4125C16.9363 12.9416 17.2463 14.3062 17.8663 15.5165C17.9145 15.6091 17.9731 15.6845 18.0213 15.7736H20.3739C19.468 14.7245 19.003 13.2742 19.003 11.4056C19.003 10.1782 19.2096 9.10849 19.6264 8.19306C20.0432 7.27764 20.6529 6.56792 21.4554 6.06392C22.258 5.55992 23.219 5.30963 24.2179 5.30963C25.2168 5.30963 26.1158 5.55992 26.9183 6.06392C27.7209 6.56792 28.3305 7.27764 28.7473 8.19306C29.1641 9.10849 29.3708 10.1782 29.3708 11.4056C29.3708 13.3462 28.8816 14.8411 27.9103 15.8971C26.9355 16.9531 25.6955 17.4811 24.1869 17.4811H19.4094C19.7435 17.7725 20.1018 18.0399 20.5013 18.2559C21.638 18.8765 22.8849 19.1851 24.1972 19.1851C25.513 19.1851 26.7392 18.8731 27.8759 18.2559C29.0125 17.6354 29.8909 16.7234 30.5109 15.5165C31.1309 14.3096 31.4409 12.9416 31.4409 11.4125C31.4409 9.90392 31.1481 8.55649 30.5591 7.36678C29.9666 6.17706 29.1124 5.25135 27.9895 4.58621Z" fill="black"/>
<path d="M43.0659 10.9841C42.6216 10.7818 41.8982 10.5555 40.9062 10.3087C40.8442 10.295 40.7822 10.2778 40.7168 10.2607C40.4033 10.1852 40.0761 10.1064 39.7145 10.0241C39.0772 9.8801 38.5399 9.73952 38.0921 9.59895C37.448 9.41038 36.9313 9.22524 36.5869 9.04695C35.8119 8.6561 35.2332 8.17267 34.8509 7.59667C34.627 7.25724 34.4789 6.89381 34.3893 6.50981C34.2516 6.90752 34.1758 7.31895 34.1758 7.74752C34.1758 8.4401 34.3515 9.0641 34.7062 9.62295C35.061 10.1818 35.5983 10.6481 36.3217 11.0252C36.8797 11.3201 37.8545 11.6355 39.246 11.9647C40.6376 12.2972 41.5366 12.5441 41.943 12.6984C42.5768 12.9384 43.0315 13.2332 43.307 13.5864C43.5826 13.9395 43.7203 14.351 43.7203 14.8241C43.7203 15.2904 43.5757 15.719 43.2898 16.1132C43.0039 16.5075 42.5699 16.8161 41.9843 17.0424C41.3988 17.2687 40.7237 17.3818 39.959 17.3818C39.0979 17.3818 38.3229 17.231 37.634 16.9327C36.9451 16.6344 36.4388 16.2435 36.1116 15.7601C35.8085 15.3144 35.6121 14.7452 35.5157 14.0698H33.5971C33.6247 15.0778 33.9002 15.9795 34.4272 16.7784C34.9542 17.5772 35.681 18.1738 36.6076 18.5715C37.5341 18.9692 38.6811 19.1681 40.052 19.1681C41.1336 19.1681 42.1049 18.9727 42.9695 18.5784C43.834 18.1841 44.4954 17.6321 44.9569 16.9224C45.4185 16.2127 45.6492 15.4584 45.6492 14.6561C45.6492 13.847 45.4391 13.1338 45.0224 12.5132C44.5987 11.903 43.9477 11.3887 43.0659 10.9841Z" fill="black"/>
<path d="M36.9346 6.01609C37.4892 5.57381 38.371 5.35095 39.5834 5.35095C40.7476 5.35095 41.626 5.59438 42.2219 6.08124C42.7592 6.5201 43.0864 7.16124 43.2242 7.9841H45.1806C45.129 7.14752 44.8913 6.38981 44.447 5.72124C43.9854 5.02181 43.3275 4.49381 42.4699 4.13381C41.6122 3.77381 40.6236 3.59552 39.5007 3.59552C38.8291 3.59552 38.1987 3.67438 37.6097 3.82524C37.2619 3.91438 36.9484 4.12352 36.7349 4.40809C36.4869 4.74067 36.3594 5.11438 36.3594 5.52581C36.3594 5.84124 36.4317 6.11895 36.5661 6.37267C36.6694 6.24581 36.7934 6.12581 36.9346 6.01609Z" fill="black"/>
<path d="M50.2407 4.10981H47.8055L52.4865 11.0767L53.6507 9.32124L50.2407 4.10981Z" fill="black"/>
<path d="M59.4444 4.10981L59.2791 4.35324L59.1585 4.52809L54.7668 11.0287L53.6405 12.7978V19.1818H55.6452V12.7978L61.6867 4.10981H59.4444Z" fill="black"/>
<path d="M55.0766 2.94742L56.6266 2.37142C57.4671 2.13827 58.2386 1.68913 58.9413 1.02741L57.8563 0.0571289C57.7495 0.132557 57.6427 0.211415 57.5325 0.286843C57.1881 0.578272 56.6576 0.934843 55.8585 1.25713C55.7276 1.31199 55.6036 1.35999 55.4968 1.38742L53.9468 1.96684C53.2752 2.23427 52.6999 2.51542 52.2246 2.8137C52.1041 2.89599 51.9801 2.97484 51.8698 3.06399L52.8997 4.1097C53.4474 3.69484 54.1707 3.30742 55.0766 2.94742Z" fill="black"/>
<path d="M59.1997 4.4698L59.1585 4.52809L59.2791 4.35324L59.1997 4.4698Z" fill="black"/>
</svg>
