<svg width="93" height="15" viewBox="0 0 93 15" fill="none" xmlns="http://www.w3.org/2000/svg">
<path fill-rule="evenodd" clip-rule="evenodd" d="M0 10.8872C1.92865 10.6253 2.60965 7.3891 2.60965 2.69329V1.358H1.53981V0.00963341H8.2655C8.99513 0.00963341 9.30299 0.27313 9.30299 1.00957V10.5271C9.30299 10.7563 9.43279 10.8872 9.65946 10.8872H10.3565V12.2453H8.71944C7.9902 12.2453 7.68235 11.9342 7.68235 11.198V1.7179C7.68235 1.47242 7.55273 1.358 7.32567 1.358H4.14891V2.70953C4.14891 8.24019 3.16045 12.2601 0 12.4403V10.8872Z" fill="black"/>
<path fill-rule="evenodd" clip-rule="evenodd" d="M20.3873 7.39601C20.3873 4.69595 20.9709 3.04333 23.1751 2.06182L24.9741 1.26005C25.7359 0.932618 25.914 0.768899 25.914 0.392764V0H27.4375V0.720002C27.4375 1.79991 26.8538 2.07805 25.752 2.51991L23.8233 3.35453C22.4296 3.95971 21.9272 5.02339 21.8946 6.28304H21.9107C22.689 5.07228 23.71 4.74504 24.7631 4.74504C26.8216 4.74504 28.2805 6.21791 28.2805 8.55771C28.2805 10.9465 26.6108 12.4685 24.3259 12.4685C21.3925 12.4685 20.3873 10.145 20.3873 7.39601ZM24.3582 11.1101C25.6222 11.1101 26.6597 10.1774 26.6597 8.59034C26.6597 6.97018 25.6222 6.07043 24.3906 6.07043C23.0129 6.07043 22.0405 7.11747 22.0405 8.55771C22.0405 10.1774 23.078 11.1101 24.3582 11.1101Z" fill="black"/>
<path fill-rule="evenodd" clip-rule="evenodd" d="M29.1358 10.8871H29.5572C29.7519 10.8871 29.8492 10.7889 29.865 10.5759L30.4323 3.96563H32.1502L34.2897 8.7107C34.5003 9.20165 34.7111 9.74166 34.7111 9.74166H34.7273C34.7273 9.74166 34.954 9.20165 35.1648 8.7107L37.288 3.96563H39.0059L39.5731 10.5759C39.5892 10.7889 39.6865 10.8871 39.881 10.8871H40.3024V12.2452H39.1031C38.4223 12.2452 38.2604 11.9341 38.2117 11.3452L37.9037 7.43439C37.8713 6.927 37.8713 5.96152 37.8713 5.96152H37.839C37.839 5.96152 37.6447 6.5671 37.3527 7.20534L35.4401 11.2471H33.9495L32.0694 7.20534C31.81 6.59996 31.5992 5.94529 31.5992 5.94529H31.5667C31.5667 5.94529 31.5667 6.927 31.5345 7.43439L31.2266 11.3452C31.1776 11.9341 31.0157 12.2452 30.335 12.2452H29.1358V10.8871Z" fill="black"/>
<path fill-rule="evenodd" clip-rule="evenodd" d="M50.2924 10.887H50.422C51.735 9.34887 51.7834 6.91074 51.7834 5.69998V5.32365H50.7787V3.9656H56.2078C56.9371 3.9656 57.2451 4.2766 57.2451 5.01284V10.887H57.5046C58.2175 10.887 58.493 11.247 58.493 11.9503V14.2085H57.0506V12.605C57.0506 12.3758 56.9212 12.2451 56.7106 12.2451H51.0865C50.8759 12.2451 50.7461 12.3758 50.7461 12.605V14.2085H49.3037V11.9503C49.3037 11.247 49.5794 10.887 50.2924 10.887ZM55.6733 10.887V5.68355C55.6733 5.43807 55.5435 5.32365 55.3166 5.32365H53.2744V5.68355C53.2744 6.82878 53.2419 9.31622 52.0103 10.887H55.6733Z" fill="black"/>
<path fill-rule="evenodd" clip-rule="evenodd" d="M60.0648 5.68358C60.0648 5.4381 59.935 5.32368 59.7246 5.32368H59.0759V3.96563H60.5185C61.248 3.96563 61.5558 4.26001 61.5558 4.99644V8.93974C61.5558 9.3816 61.5074 10.0034 61.4911 10.0853H61.5235C61.5884 9.95432 62.0096 9.31604 62.2852 8.93974L65.8183 3.96563H67.3742V10.527C67.3742 10.7723 67.504 10.8871 67.7146 10.8871H68.3629V12.2452H66.9201C66.1912 12.2452 65.8828 11.9341 65.8828 11.1979V7.27087C65.8828 6.86167 65.9318 6.24006 65.9479 6.10921H65.9155C65.8508 6.25629 65.4295 6.89454 65.154 7.27087L61.6207 12.2452H60.0648V5.68358Z" fill="black"/>
<path fill-rule="evenodd" clip-rule="evenodd" d="M74.6014 7.09092H74.9577V6.9761C74.9577 5.55253 74.4069 5.02911 73.1428 5.02911C72.7535 5.02911 71.7974 5.1273 71.7974 5.66715V6.14148H70.3064V5.30705C70.3064 3.98167 72.3647 3.76906 73.1104 3.76906C75.8168 3.76906 76.5299 5.16016 76.5299 7.00896V10.5268C76.5299 10.7721 76.6595 10.8869 76.8866 10.8869H77.5511V12.245H76.0599C75.3307 12.245 75.0552 11.8848 75.0552 11.2959C75.0552 11.0016 75.0714 10.805 75.0714 10.805H75.0389C75.0552 10.805 74.342 12.4412 72.3973 12.4412C70.9709 12.4412 69.6421 11.574 69.6421 9.98699C69.6421 7.20515 73.2237 7.09092 74.6014 7.09092ZM72.7535 11.1813C74.1152 11.1813 74.9577 9.77417 74.9577 8.54694V8.23616H74.5363C73.3534 8.23616 71.2141 8.3506 71.2141 9.83952C71.2141 10.5104 71.7327 11.1813 72.7535 11.1813Z" fill="black"/>
<path fill-rule="evenodd" clip-rule="evenodd" d="M16.7266 7.09092H17.0827V6.9761C17.0827 5.55253 16.5321 5.02911 15.2677 5.02911C14.8789 5.02911 13.9228 5.1273 13.9228 5.66715V6.14148H12.4316V5.30705C12.4316 3.98167 14.4899 3.76906 15.2356 3.76906C17.9421 3.76906 18.6551 5.16016 18.6551 7.00896V10.5268C18.6551 10.7721 18.7847 10.8869 19.0117 10.8869H19.6763V12.245H18.1849C17.4556 12.245 17.1799 11.8848 17.1799 11.2959C17.1799 11.0016 17.1964 10.805 17.1964 10.805H17.1639C17.1799 10.805 16.4672 12.4412 14.5222 12.4412C13.0959 12.4412 11.7672 11.574 11.7672 9.98699C11.7672 7.20515 15.3491 7.09092 16.7266 7.09092ZM14.8789 11.1813C16.2401 11.1813 17.0827 9.77417 17.0827 8.54694V8.23616H16.6617C15.4785 8.23616 13.3392 8.3506 13.3392 9.83952C13.3392 10.5104 13.8577 11.1813 14.8789 11.1813Z" fill="black"/>
<path fill-rule="evenodd" clip-rule="evenodd" d="M48.5587 7.64681C48.5587 5.50343 47.343 3.76906 45.0257 3.76906C42.6917 3.76906 40.9091 5.47077 40.9091 8.10546C40.9091 10.5595 42.6917 12.4412 45.2684 12.4412C46.403 12.4412 47.6511 11.9995 48.4452 11.2633L47.7809 10.1014C47.1324 10.6739 46.2408 11.0668 45.3657 11.0668C43.8911 11.0668 42.6268 10.0685 42.5297 8.26862C42.5297 8.26862 42.5093 8.07483 42.5303 7.74201C42.5517 7.40925 42.5946 7.22158 42.5946 7.22158C42.8213 5.83087 43.7776 5.01268 44.9931 5.01268C46.063 5.01268 46.9381 5.76534 46.9865 7.22158H43.5249C43.4672 7.47122 43.4111 7.84539 43.4478 8.26862H48.5101C48.5424 8.05597 48.5587 7.84339 48.5587 7.64681Z" fill="black"/>
<path fill-rule="evenodd" clip-rule="evenodd" d="M86.6401 14.1934C90.1531 14.1934 93.0008 11.3185 93.0008 7.772C93.0008 4.2254 90.1531 1.35054 86.6401 1.35054C83.1274 1.35054 80.2793 4.2254 80.2793 7.772C80.2793 11.3185 83.1274 14.1934 86.6401 14.1934ZM85.3563 4.98911L89.6653 7.5011C89.8723 7.62126 89.8723 7.92278 89.6653 8.04335L85.3563 10.5554C85.1491 10.6757 84.8906 10.525 84.8906 10.2837V5.26052C84.8906 5.0194 85.1491 4.86855 85.3563 4.98911Z" fill="black"/>
</svg>
