<svg width="36" height="48" viewBox="0 0 36 48" fill="none" xmlns="http://www.w3.org/2000/svg">
<path d="M13.9999 17.9999C13.9999 15.7908 15.7907 13.9999 17.9999 13.9999C20.209 13.9999 21.9999 15.7908 21.9999 17.9999C21.9999 20.2091 20.209 21.9999 17.9999 21.9999C15.7907 21.9999 13.9999 20.2091 13.9999 17.9999Z" fill="#366EA5"/>
<path d="M15.9999 24.9999C12.6862 24.9999 9.99988 27.6862 9.99988 30.9999C9.99988 32.1045 10.8953 32.9999 11.9999 32.9999H23.9999C25.1044 32.9999 25.9999 32.1045 25.9999 30.9999C25.9999 27.6862 23.3136 24.9999 19.9999 24.9999H15.9999Z" fill="#366EA5"/>
<path fill-rule="evenodd" clip-rule="evenodd" d="M9.08694 5.76529C14.9985 4.9158 21.0012 4.9158 26.9129 5.76529C29.8438 6.18646 32.102 8.56524 32.3703 11.5142L32.6242 14.3056C33.2109 20.7552 33.2109 27.2447 32.6242 33.6942L32.3703 36.4857C32.102 39.4346 29.8438 41.8134 26.9129 42.2346C21.0012 43.084 14.9985 43.084 9.08693 42.2346C6.15595 41.8134 3.89777 39.4346 3.62951 36.4857L3.37558 33.6942C2.78887 27.2447 2.78887 20.7552 3.37557 14.3056L3.62951 11.5142C3.89777 8.56525 6.15595 6.18646 9.08694 5.76529ZM26.4861 8.73479C20.8576 7.92597 15.1422 7.92597 9.51364 8.73479C7.95806 8.95832 6.75955 10.2208 6.61717 11.7859L6.36324 14.5774C5.79298 20.8461 5.79298 27.1537 6.36324 33.4225L6.61717 36.2139C6.75955 37.779 7.95806 39.0415 9.51364 39.2651C15.1422 40.0739 20.8576 40.0739 26.4861 39.2651C28.0417 39.0415 29.2402 37.779 29.3826 36.2139L29.6366 33.4224C30.2068 27.1537 30.2068 20.8461 29.6366 14.5774L29.3826 11.7859C29.2402 10.2208 28.0417 8.95832 26.4861 8.73479Z" fill="#366EA5"/>
</svg>
