<svg width="165" height="64" viewBox="0 0 165 64" fill="none" xmlns="http://www.w3.org/2000/svg">
<path d="M37.0242 40.1918C38.0325 37.5495 38.5367 34.5781 38.5367 31.2683C38.5367 27.2821 37.7575 23.7072 36.19 20.5346C34.6225 17.3621 32.3492 14.8935 29.3608 13.1289C26.3817 11.3643 23.0267 10.4866 19.305 10.4866C15.62 10.4866 12.2925 11.3369 9.31333 13.0375C6.33417 14.7381 4.0425 17.2158 2.42917 20.4615C0.806667 23.7163 0 27.3278 0 31.2958C0 35.2821 0.7975 38.8661 2.40167 42.0386C4.00583 45.2112 6.28833 47.6889 9.25833 49.4443C12.2283 51.1998 15.5375 52.0775 19.1858 52.0775C21.1933 52.0775 23.1 51.7941 24.915 51.2821C21.9908 49.4261 18.7275 48.0363 16.5825 47.2866C13.7683 46.7838 11.3575 45.4763 9.3775 43.3369C6.7925 40.5392 5.5 36.5255 5.5 31.2958C5.5 25.9015 6.81083 21.8512 9.4325 19.1358C12.0542 16.4203 15.3542 15.0672 19.3325 15.0672C21.9908 15.0672 24.3833 15.7346 26.5192 17.0786C28.655 18.4226 30.2775 20.3152 31.3867 22.7381C32.4958 25.1701 33.0458 28.0135 33.0458 31.2683C33.0458 36.9918 31.4783 41.2706 28.3433 44.1232C26.345 42.4226 23.8058 41.1426 20.7258 40.2832L19.47 44.0226C19.8642 44.1781 20.2583 44.3335 20.6617 44.5072C22.0733 44.9643 23.9617 45.7781 26.1617 47.2866C26.5375 47.5243 26.8583 47.7621 27.115 47.9815L31.24 50.9438C33.0825 52.2055 34.815 53.2203 36.4375 53.9792C36.8683 54.1621 37.2992 54.3632 37.7392 54.5186L39.3067 50.8158C37.2167 50.0295 34.9342 48.7861 32.4592 47.0855C34.4942 45.1381 36.0158 42.8341 37.0242 40.1918Z" fill="white"/>
<path d="M74.4883 12.9918C71.4999 11.2181 68.1449 10.3313 64.4233 10.3313C60.7016 10.3313 57.2366 11.2181 54.2483 12.9918C51.2599 14.7656 48.9866 17.2341 47.4191 20.4067C45.8516 23.5793 45.0724 27.1724 45.0724 31.1953C45.0724 35.273 45.8974 38.9118 47.5474 42.1393C47.6758 42.3861 47.8316 42.5873 47.9599 42.825H54.2208C51.8099 40.0273 50.5724 36.1598 50.5724 31.177C50.5724 27.9038 51.1224 25.0513 52.2316 22.6101C53.3408 20.169 54.9633 18.2764 57.0991 16.9324C59.2349 15.5884 61.7924 14.921 64.4508 14.921C67.1091 14.921 69.5016 15.5884 71.6374 16.9324C73.7733 18.2764 75.3958 20.169 76.5049 22.6101C77.6141 25.0513 78.1641 27.9038 78.1641 31.177C78.1641 36.3518 76.8624 40.3381 74.2774 43.1541C71.6833 45.9701 68.3833 47.3781 64.3683 47.3781H51.6541C52.5433 48.1553 53.4966 48.8684 54.5599 49.4444C57.5849 51.0993 60.9033 51.9221 64.3958 51.9221C67.8974 51.9221 71.1608 51.0901 74.1858 49.4444C77.2108 47.7896 79.5483 45.3576 81.1983 42.1393C82.8483 38.921 83.6733 35.273 83.6733 31.1953C83.6733 27.1724 82.8941 23.5793 81.3266 20.4067C79.7499 17.2341 77.4766 14.7656 74.4883 12.9918Z" fill="white"/>
<path d="M114.611 30.0529C113.428 29.5135 111.503 28.91 108.863 28.2517C108.698 28.2152 108.533 28.1695 108.359 28.1237C107.525 27.9226 106.654 27.7123 105.692 27.4929C103.996 27.1089 102.566 26.734 101.374 26.3592C99.66 25.8563 98.285 25.3626 97.3684 24.8872C95.3059 23.8449 93.7659 22.5557 92.7484 21.0197C92.1525 20.1146 91.7584 19.1454 91.52 18.1214C91.1534 19.182 90.9517 20.2792 90.9517 21.422C90.9517 23.2689 91.4192 24.9329 92.3634 26.4232C93.3075 27.9134 94.7375 29.1569 96.6625 30.1626C98.1475 30.9489 100.742 31.79 104.445 32.6677C108.148 33.5546 110.541 34.2129 111.623 34.6243C113.309 35.2643 114.519 36.0506 115.253 36.9923C115.986 37.934 116.353 39.0312 116.353 40.2929C116.353 41.5363 115.968 42.6792 115.207 43.7306C114.446 44.782 113.291 45.6049 111.733 46.2083C110.174 46.8117 108.378 47.1134 106.343 47.1134C104.051 47.1134 101.988 46.7112 100.155 45.9157C98.3217 45.1203 96.9742 44.078 96.1034 42.7889C95.2967 41.6003 94.7742 40.0826 94.5175 38.2814H89.4117C89.485 40.9694 90.2184 43.374 91.6209 45.5043C93.0234 47.6346 94.9575 49.2255 97.4234 50.286C99.8892 51.3466 102.942 51.8769 106.59 51.8769C109.468 51.8769 112.053 51.3557 114.354 50.3043C116.655 49.2529 118.415 47.7809 119.643 45.8883C120.872 43.9957 121.486 41.9843 121.486 39.8449C121.486 37.6872 120.927 35.7855 119.818 34.1306C118.69 32.5032 116.958 31.1317 114.611 30.0529Z" fill="white"/>
<path d="M98.2938 16.8049C99.7696 15.6254 102.116 15.0312 105.343 15.0312C108.441 15.0312 110.779 15.6803 112.365 16.9786C113.795 18.1489 114.665 19.8586 115.032 22.0529H120.239C120.101 19.822 119.469 17.8015 118.286 16.0186C117.058 14.1535 115.307 12.7455 113.025 11.7855C110.742 10.8255 108.111 10.35 105.123 10.35C103.335 10.35 101.658 10.5603 100.09 10.9626C99.1646 11.2003 98.3305 11.758 97.7621 12.5169C97.1021 13.4037 96.7629 14.4003 96.7629 15.4974C96.7629 16.3386 96.9555 17.0792 97.313 17.7557C97.588 17.4174 97.918 17.0974 98.2938 16.8049Z" fill="white"/>
<path d="M133.705 11.7214H127.224L139.682 30.2997L142.78 25.6186L133.705 11.7214Z" fill="white"/>
<path d="M158.199 11.7214L157.759 12.3706L157.438 12.8369L145.75 30.1717L142.753 34.8894V51.9134H148.088V34.8894L164.166 11.7214H158.199Z" fill="white"/>
<path d="M146.575 8.62174L150.7 7.08574C152.937 6.46402 154.99 5.26631 156.86 3.50174L153.972 0.914307C153.688 1.11545 153.404 1.32574 153.111 1.52688C152.194 2.30402 150.782 3.25488 148.656 4.11431C148.307 4.26059 147.977 4.38859 147.693 4.46174L143.568 6.00688C141.781 6.72002 140.25 7.46974 138.985 8.26516C138.664 8.48459 138.334 8.69488 138.041 8.93259L140.782 11.7212C142.239 10.6149 144.164 9.58174 146.575 8.62174Z" fill="white"/>
<path d="M157.548 12.6814L157.438 12.8369L157.759 12.3706L157.548 12.6814Z" fill="white"/>
<path d="M7.93858 59.1536C8.13108 59.1536 8.31442 59.1719 8.49775 59.2084C8.67192 59.245 8.83692 59.309 8.96525 59.3913C9.10275 59.4827 9.21275 59.5924 9.29525 59.7387C9.37775 59.885 9.41442 60.0587 9.41442 60.2782C9.41442 60.397 9.39609 60.5159 9.35942 60.6256C9.32275 60.7353 9.26775 60.845 9.19442 60.9364C9.12108 61.0279 9.03858 61.1102 8.94692 61.1742C8.84608 61.2382 8.74525 61.2839 8.61692 61.3113V61.3204C8.91025 61.357 9.14858 61.4759 9.32275 61.6862C9.49692 61.8873 9.58859 62.1433 9.58859 62.445C9.58859 62.5182 9.57942 62.6004 9.57025 62.6919C9.56108 62.7833 9.53358 62.8747 9.49692 62.9753C9.46025 63.0759 9.40525 63.1673 9.33192 63.2587C9.25858 63.3502 9.15775 63.4324 9.03858 63.5056C8.91942 63.5787 8.76358 63.6336 8.58942 63.6793C8.41525 63.725 8.19525 63.7433 7.94775 63.7433H5.98608V59.1536H7.93858ZM7.93858 61.165C8.11275 61.165 8.26858 61.1467 8.39692 61.101C8.52525 61.0645 8.63525 61.0004 8.71775 60.9364C8.80025 60.8633 8.86442 60.781 8.91025 60.6896C8.95609 60.5982 8.97442 60.4976 8.97442 60.3879C8.97442 59.8119 8.62608 59.5285 7.93858 59.5285H6.42608V61.1742H7.93858V61.165ZM7.93858 63.3776C8.10358 63.3776 8.25942 63.3593 8.40608 63.3319C8.55275 63.3044 8.68108 63.2496 8.79108 63.1764C8.90108 63.1033 8.99275 63.0027 9.05692 62.8839C9.12109 62.765 9.15775 62.6096 9.15775 62.4267C9.15775 62.1342 9.05692 61.9056 8.84608 61.7593C8.63525 61.613 8.33275 61.5399 7.94775 61.5399H6.42608V63.3776H7.93858Z" fill="white"/>
<path d="M17.3983 59.1536V61.997C17.3983 62.2622 17.4258 62.4907 17.49 62.6736C17.5542 62.8565 17.6367 63.0119 17.7558 63.1307C17.875 63.2496 18.0125 63.3319 18.1775 63.3867C18.3425 63.4416 18.535 63.469 18.7458 63.469C18.9567 63.469 19.1492 63.4416 19.3233 63.3867C19.4883 63.3319 19.635 63.2496 19.745 63.1307C19.8642 63.0119 19.9467 62.8565 20.0108 62.6736C20.075 62.4907 20.1025 62.2622 20.1025 61.997V59.1536H20.5425V62.0976C20.5425 62.3353 20.5058 62.5547 20.4417 62.7742C20.3775 62.9845 20.2675 63.1764 20.13 63.3319C19.9833 63.4873 19.8 63.6153 19.5708 63.7067C19.3417 63.7982 19.0667 63.8439 18.7458 63.8439C18.425 63.8439 18.1592 63.7982 17.93 63.7067C17.7008 63.6153 17.5175 63.4873 17.3708 63.3319C17.2242 63.1764 17.1233 62.9845 17.0592 62.7742C16.995 62.5639 16.9583 62.3353 16.9583 62.0976V59.1536H17.3983Z" fill="white"/>
<path d="M28.4538 62.8294C28.5272 62.9848 28.6372 63.1128 28.7747 63.2134C28.9122 63.3048 29.068 63.378 29.2513 63.4145C29.4347 63.4511 29.6363 63.4785 29.8472 63.4785C29.9663 63.4785 30.0947 63.4602 30.2413 63.4237C30.3788 63.3871 30.5163 63.3322 30.6355 63.2591C30.7547 63.186 30.8647 63.0854 30.938 62.9665C31.0205 62.8477 31.0572 62.7014 31.0572 62.5368C31.0572 62.4088 31.0297 62.2991 30.9655 62.1985C30.9105 62.1071 30.828 62.0248 30.7363 61.9608C30.6447 61.8968 30.5438 61.8419 30.4338 61.8054C30.3238 61.7688 30.2138 61.7322 30.1038 61.7048L29.0772 61.458C28.9397 61.4214 28.8113 61.3848 28.683 61.33C28.5547 61.2751 28.4447 61.2111 28.353 61.1197C28.2613 61.0374 28.1788 60.9277 28.1238 60.8088C28.0688 60.6808 28.0322 60.5345 28.0322 60.3517C28.0322 60.242 28.0505 60.1048 28.0963 59.9585C28.1422 59.8122 28.2155 59.666 28.3347 59.538C28.4538 59.4008 28.6188 59.2911 28.8205 59.1997C29.0313 59.1082 29.288 59.0625 29.618 59.0625C29.8472 59.0625 30.0672 59.09 30.2688 59.154C30.4797 59.218 30.6538 59.3002 30.8097 59.4282C30.9655 59.5471 31.0847 59.6934 31.1763 59.8762C31.268 60.0499 31.3138 60.2602 31.3138 60.4979H30.8738C30.8647 60.3242 30.828 60.1688 30.7547 60.0408C30.6813 59.9128 30.5897 59.8031 30.4797 59.7117C30.3697 59.6202 30.2322 59.5562 30.0855 59.5105C29.9663 59.4557 29.8105 59.4282 29.6455 59.4282C29.4988 59.4282 29.3522 59.4465 29.2055 59.474C29.068 59.5105 28.9397 59.5562 28.8388 59.6294C28.7288 59.7025 28.6463 59.794 28.5822 59.9128C28.518 60.0317 28.4813 60.1688 28.4813 60.3425C28.4813 60.4522 28.4997 60.5437 28.5363 60.6259C28.573 60.7082 28.628 60.7722 28.6922 60.8271C28.7563 60.882 28.8297 60.9277 28.9122 60.9642C28.9947 61.0008 29.0863 61.0282 29.178 61.0465L30.3055 61.3208C30.4705 61.3665 30.6263 61.4122 30.7638 61.4762C30.9105 61.5402 31.0388 61.6134 31.1488 61.7048C31.2588 61.7962 31.3413 61.906 31.4055 62.0431C31.4697 62.1802 31.4972 62.3357 31.4972 62.5277C31.4972 62.5825 31.488 62.6465 31.4788 62.738C31.4697 62.8202 31.4422 62.9117 31.4055 63.0122C31.3688 63.1128 31.3047 63.2042 31.2313 63.3048C31.158 63.4054 31.0572 63.4968 30.9197 63.57C30.7913 63.6522 30.6263 63.7162 30.4338 63.7619C30.2413 63.8077 30.0122 63.8351 29.7372 63.8351C29.4622 63.8351 29.2147 63.8077 28.9855 63.7437C28.7563 63.6797 28.5547 63.5882 28.3897 63.4602C28.2247 63.3322 28.0963 63.1677 28.0138 62.9665C27.9222 62.7654 27.8855 62.5185 27.9038 62.2351H28.3438C28.3347 62.4728 28.3713 62.674 28.4538 62.8294Z" fill="white"/>
<path d="M39.3804 59.1536V63.7524H38.9404V59.1536H39.3804Z" fill="white"/>
<path d="M47.5295 59.1536L50.2153 63.0393H50.2245V59.1536H50.6645V63.7524H50.1695L47.4836 59.8667V63.7524H47.0436V59.1536H47.5295Z" fill="white"/>
<path d="M61.4814 59.1536V59.5285H58.7405V61.1924H61.3072V61.5673H58.7405V63.3867H61.518V63.7616H58.3005V59.1536H61.4814Z" fill="white"/>
<path d="M69.1533 62.8294C69.2266 62.9848 69.3366 63.1128 69.4741 63.2134C69.6116 63.3048 69.7675 63.378 69.9508 63.4145C70.1341 63.4511 70.3358 63.4785 70.5466 63.4785C70.6658 63.4785 70.7941 63.4602 70.9408 63.4237C71.0783 63.3871 71.2158 63.3322 71.335 63.2591C71.4541 63.186 71.5641 63.0854 71.6375 62.9665C71.72 62.8477 71.7566 62.7014 71.7566 62.5368C71.7566 62.4088 71.7291 62.2991 71.665 62.1985C71.61 62.1071 71.5275 62.0248 71.4358 61.9608C71.3441 61.8968 71.2433 61.8419 71.1333 61.8054C71.0233 61.7688 70.9133 61.7322 70.8033 61.7048L69.7766 61.458C69.6391 61.4214 69.5108 61.3848 69.3825 61.33C69.2541 61.2751 69.1441 61.2111 69.0525 61.1197C68.9608 61.0374 68.8783 60.9277 68.8233 60.8088C68.7683 60.6808 68.7316 60.5345 68.7316 60.3517C68.7316 60.242 68.75 60.1048 68.7958 59.9585C68.8416 59.8122 68.915 59.666 69.0341 59.538C69.1533 59.4008 69.3183 59.2911 69.52 59.1997C69.7308 59.1082 69.9875 59.0625 70.3175 59.0625C70.5466 59.0625 70.7666 59.09 70.9683 59.154C71.1791 59.218 71.3533 59.3002 71.5091 59.4282C71.665 59.5471 71.7841 59.6934 71.8758 59.8762C71.9675 60.0499 72.0133 60.2602 72.0133 60.4979H71.5733C71.5641 60.3242 71.5275 60.1688 71.4541 60.0408C71.3808 59.9128 71.2891 59.8031 71.1791 59.7117C71.0691 59.6202 70.9316 59.5562 70.785 59.5105C70.6658 59.4557 70.51 59.4282 70.345 59.4282C70.1983 59.4282 70.0516 59.4465 69.905 59.474C69.7675 59.5105 69.6391 59.5562 69.5383 59.6294C69.4283 59.7025 69.3458 59.794 69.2816 59.9128C69.2175 60.0317 69.1808 60.1688 69.1808 60.3425C69.1808 60.4522 69.1991 60.5437 69.2358 60.6259C69.2725 60.7082 69.3275 60.7722 69.3916 60.8271C69.4558 60.882 69.5291 60.9277 69.6116 60.9642C69.6941 61.0008 69.7858 61.0282 69.8775 61.0465L71.005 61.3208C71.17 61.3665 71.3258 61.4122 71.4633 61.4762C71.61 61.5402 71.7383 61.6134 71.8483 61.7048C71.9583 61.7962 72.0408 61.906 72.105 62.0431C72.1691 62.1802 72.1966 62.3357 72.1966 62.5277C72.1966 62.5825 72.1875 62.6465 72.1783 62.738C72.1691 62.8202 72.1416 62.9117 72.105 63.0122C72.0683 63.1128 72.0041 63.2042 71.9308 63.3048C71.8575 63.4054 71.7566 63.4968 71.6191 63.57C71.4908 63.6522 71.3258 63.7162 71.1333 63.7619C70.9408 63.8077 70.7116 63.8351 70.4366 63.8351C70.1616 63.8351 69.9141 63.8077 69.685 63.7437C69.4558 63.6797 69.2541 63.5882 69.0891 63.4602C68.9241 63.3322 68.7958 63.1677 68.7133 62.9665C68.6216 62.7654 68.585 62.5185 68.6033 62.2351H69.0433C69.0433 62.4728 69.08 62.674 69.1533 62.8294Z" fill="white"/>
<path d="M79.934 62.8294C80.0073 62.9848 80.1173 63.1128 80.2548 63.2134C80.3923 63.3048 80.5482 63.378 80.7315 63.4145C80.9148 63.4511 81.1165 63.4785 81.3273 63.4785C81.4465 63.4785 81.5748 63.4602 81.7215 63.4237C81.859 63.3871 81.9965 63.3322 82.1157 63.2591C82.2348 63.186 82.3448 63.0854 82.4182 62.9665C82.5007 62.8477 82.5373 62.7014 82.5373 62.5368C82.5373 62.4088 82.5098 62.2991 82.4457 62.1985C82.3907 62.1071 82.3082 62.0248 82.2165 61.9608C82.1248 61.8968 82.024 61.8419 81.914 61.8054C81.804 61.7688 81.694 61.7322 81.584 61.7048L80.5573 61.458C80.4198 61.4214 80.2915 61.3848 80.1631 61.33C80.0348 61.2751 79.9248 61.2111 79.8331 61.1197C79.7415 61.0374 79.659 60.9277 79.604 60.8088C79.549 60.6808 79.5123 60.5345 79.5123 60.3517C79.5123 60.242 79.5306 60.1048 79.5765 59.9585C79.6223 59.8122 79.6957 59.666 79.8148 59.538C79.934 59.4008 80.099 59.2911 80.3006 59.1997C80.5115 59.1082 80.7682 59.0625 81.0982 59.0625C81.3273 59.0625 81.5473 59.09 81.749 59.154C81.9598 59.218 82.134 59.3002 82.2898 59.4282C82.4456 59.5471 82.5648 59.6934 82.6565 59.8762C82.7481 60.0499 82.794 60.2602 82.794 60.4979H82.354C82.3448 60.3242 82.3081 60.1688 82.2348 60.0408C82.1615 59.9128 82.0698 59.8031 81.9598 59.7117C81.8498 59.6202 81.7123 59.5562 81.5657 59.5105C81.4465 59.4557 81.2907 59.4282 81.1257 59.4282C80.979 59.4282 80.8323 59.4465 80.6856 59.474C80.5481 59.5105 80.4198 59.5562 80.319 59.6294C80.209 59.7025 80.1265 59.794 80.0623 59.9128C79.9981 60.0317 79.9615 60.1688 79.9615 60.3425C79.9615 60.4522 79.9798 60.5437 80.0165 60.6259C80.0532 60.7082 80.1081 60.7722 80.1723 60.8271C80.2365 60.882 80.3098 60.9277 80.3923 60.9642C80.4748 61.0008 80.5665 61.0282 80.6581 61.0465L81.7857 61.3208C81.9507 61.3665 82.1065 61.4122 82.244 61.4762C82.3907 61.5402 82.519 61.6134 82.629 61.7048C82.739 61.7962 82.8215 61.906 82.8856 62.0431C82.9498 62.1802 82.9773 62.3357 82.9773 62.5277C82.9773 62.5825 82.9682 62.6465 82.959 62.738C82.9498 62.8202 82.9223 62.9117 82.8856 63.0122C82.849 63.1128 82.7848 63.2042 82.7115 63.3048C82.6382 63.4054 82.5373 63.4968 82.3998 63.57C82.2715 63.6522 82.1065 63.7162 81.914 63.7619C81.7215 63.8077 81.4923 63.8351 81.2173 63.8351C80.9423 63.8351 80.6948 63.8077 80.4656 63.7437C80.2365 63.6797 80.0348 63.5882 79.8698 63.4602C79.7048 63.3322 79.5765 63.1677 79.494 62.9665C79.4023 62.7654 79.3656 62.5185 79.384 62.2351H79.824C79.8148 62.4728 79.8515 62.674 79.934 62.8294Z" fill="white"/>
<path d="M99.2115 62.8294C99.2848 62.9848 99.3948 63.1128 99.5323 63.2134C99.6698 63.3048 99.8257 63.378 100.009 63.4145C100.192 63.4511 100.394 63.4785 100.605 63.4785C100.724 63.4785 100.852 63.4602 100.999 63.4237C101.136 63.3871 101.274 63.3322 101.393 63.2591C101.512 63.186 101.622 63.0854 101.696 62.9665C101.778 62.8477 101.815 62.7014 101.815 62.5368C101.815 62.4088 101.787 62.2991 101.723 62.1985C101.668 62.1071 101.586 62.0248 101.494 61.9608C101.402 61.8968 101.301 61.8419 101.191 61.8054C101.081 61.7688 100.971 61.7322 100.861 61.7048L99.8348 61.458C99.6973 61.4214 99.569 61.3848 99.4407 61.33C99.3123 61.2751 99.2023 61.2111 99.1107 61.1197C99.019 61.0374 98.9365 60.9277 98.8815 60.8088C98.8265 60.6808 98.7898 60.5345 98.7898 60.3517C98.7898 60.242 98.8081 60.1048 98.854 59.9585C98.8998 59.8122 98.9732 59.666 99.0923 59.538C99.2115 59.4008 99.3765 59.2911 99.5781 59.1997C99.789 59.1082 100.046 59.0625 100.376 59.0625C100.605 59.0625 100.825 59.09 101.026 59.154C101.237 59.218 101.411 59.3002 101.567 59.4282C101.723 59.5471 101.842 59.6934 101.934 59.8762C102.026 60.0499 102.071 60.2602 102.071 60.4979H101.631C101.622 60.3242 101.586 60.1688 101.512 60.0408C101.439 59.9128 101.347 59.8031 101.237 59.7117C101.127 59.6202 100.99 59.5562 100.843 59.5105C100.696 59.4648 100.541 59.4465 100.376 59.4465C100.229 59.4465 100.082 59.4648 99.9356 59.4922C99.7981 59.5288 99.6698 59.5745 99.569 59.6477C99.459 59.7208 99.3765 59.8122 99.3123 59.9311C99.2481 60.05 99.2115 60.1871 99.2115 60.3608C99.2115 60.4705 99.2298 60.562 99.2665 60.6442C99.3032 60.7265 99.3582 60.7905 99.4223 60.8454C99.4865 60.9002 99.5598 60.9459 99.6423 60.9825C99.7248 61.0191 99.8165 61.0465 99.9082 61.0648L101.036 61.3391C101.201 61.3848 101.356 61.4305 101.494 61.4945C101.641 61.5585 101.769 61.6317 101.879 61.7231C101.989 61.8145 102.071 61.9242 102.136 62.0614C102.2 62.1985 102.227 62.354 102.227 62.546C102.227 62.6008 102.218 62.6648 102.209 62.7562C102.2 62.8385 102.172 62.93 102.136 63.0305C102.099 63.1311 102.035 63.2225 101.961 63.3231C101.888 63.4237 101.787 63.5151 101.65 63.5882C101.521 63.6705 101.356 63.7345 101.164 63.7802C100.971 63.826 100.742 63.8534 100.467 63.8534C100.192 63.8534 99.9448 63.8259 99.7157 63.7619C99.4865 63.6979 99.2848 63.6065 99.1198 63.4785C98.9548 63.3505 98.8265 63.186 98.744 62.9848C98.6523 62.7837 98.6157 62.5368 98.634 62.2534H99.074C99.0923 62.4728 99.129 62.674 99.2115 62.8294Z" fill="white"/>
<path d="M112.842 60.0682C112.751 59.9311 112.65 59.8122 112.521 59.7208C112.393 59.6294 112.256 59.5562 112.1 59.5014C111.944 59.4557 111.788 59.4282 111.623 59.4282C111.321 59.4282 111.055 59.4831 110.835 59.602C110.615 59.7208 110.431 59.8671 110.294 60.0591C110.156 60.2511 110.046 60.4614 109.982 60.7082C109.918 60.946 109.881 61.1928 109.881 61.4488C109.881 61.6957 109.918 61.9425 109.982 62.1894C110.046 62.4362 110.156 62.6465 110.294 62.8385C110.431 63.0305 110.615 63.186 110.835 63.2957C111.055 63.4145 111.321 63.4694 111.623 63.4694C111.834 63.4694 112.036 63.4328 112.201 63.3505C112.375 63.2774 112.521 63.1677 112.65 63.0305C112.778 62.8934 112.879 62.738 112.952 62.5642C113.026 62.3905 113.081 62.1985 113.099 61.9882H113.539C113.511 62.2717 113.438 62.5277 113.337 62.7562C113.236 62.9848 113.099 63.1768 112.934 63.3322C112.769 63.4877 112.576 63.6157 112.356 63.6979C112.136 63.7802 111.889 63.8259 111.614 63.8259C111.256 63.8259 110.936 63.7619 110.661 63.6339C110.386 63.5059 110.156 63.3322 109.982 63.1128C109.799 62.8934 109.671 62.6374 109.579 62.3539C109.487 62.0705 109.441 61.7597 109.441 61.4488C109.441 61.1288 109.487 60.8271 109.579 60.5437C109.671 60.2602 109.808 60.0042 109.982 59.7848C110.166 59.5654 110.386 59.3917 110.661 59.2545C110.936 59.1265 111.247 59.0625 111.614 59.0625C111.834 59.0625 112.045 59.0991 112.256 59.1631C112.466 59.2271 112.65 59.3185 112.824 59.4465C112.998 59.5745 113.136 59.73 113.246 59.9128C113.356 60.0957 113.429 60.306 113.466 60.5528H113.026C112.998 60.37 112.934 60.2145 112.842 60.0682Z" fill="white"/>
<path d="M121.358 59.1536V61.1467H124.098V59.1536H124.538V63.7524H124.098V61.5216H121.358V63.7524H120.918V59.1536H121.358Z" fill="white"/>
<path d="M132.064 60.5437C132.156 60.2602 132.293 60.0042 132.467 59.7848C132.651 59.5654 132.871 59.3917 133.146 59.2545C133.421 59.1265 133.732 59.0625 134.099 59.0625C134.457 59.0625 134.777 59.1265 135.052 59.2545C135.327 59.3825 135.547 59.5654 135.731 59.7848C135.914 60.0042 136.042 60.2602 136.134 60.5437C136.226 60.8271 136.272 61.138 136.272 61.4488C136.272 61.7688 136.226 62.0705 136.134 62.3539C136.042 62.6374 135.905 62.8934 135.731 63.1128C135.547 63.3322 135.327 63.5059 135.052 63.6339C134.777 63.7619 134.466 63.8259 134.099 63.8259C133.742 63.8259 133.421 63.7619 133.146 63.6339C132.871 63.5059 132.642 63.3322 132.467 63.1128C132.284 62.8934 132.147 62.6374 132.064 62.3539C131.972 62.0705 131.927 61.7597 131.927 61.4488C131.927 61.138 131.972 60.8362 132.064 60.5437ZM132.467 62.1894C132.532 62.4362 132.642 62.6465 132.779 62.8385C132.917 63.0305 133.1 63.186 133.32 63.2957C133.54 63.4054 133.806 63.4694 134.108 63.4694C134.411 63.4694 134.677 63.4145 134.897 63.2957C135.117 63.1768 135.291 63.0305 135.428 62.8385C135.566 62.6465 135.676 62.4271 135.74 62.1894C135.804 61.9425 135.841 61.7048 135.841 61.4488C135.841 61.1928 135.804 60.946 135.74 60.7082C135.676 60.4705 135.566 60.2511 135.428 60.0591C135.291 59.8671 135.107 59.7117 134.897 59.602C134.677 59.4831 134.42 59.4282 134.108 59.4282C133.806 59.4282 133.54 59.4831 133.32 59.602C133.1 59.7208 132.917 59.8671 132.779 60.0591C132.642 60.2511 132.532 60.4614 132.467 60.7082C132.403 60.946 132.367 61.1928 132.367 61.4488C132.367 61.7048 132.394 61.9425 132.467 62.1894Z" fill="white"/>
<path d="M143.55 60.5437C143.642 60.2602 143.779 60.0042 143.954 59.7848C144.137 59.5654 144.357 59.3917 144.632 59.2545C144.907 59.1265 145.219 59.0625 145.585 59.0625C145.943 59.0625 146.264 59.1265 146.539 59.2545C146.814 59.3825 147.034 59.5654 147.217 59.7848C147.4 60.0042 147.529 60.2602 147.62 60.5437C147.712 60.8271 147.758 61.138 147.758 61.4488C147.758 61.7688 147.712 62.0705 147.62 62.3539C147.529 62.6374 147.391 62.8934 147.217 63.1128C147.034 63.3322 146.814 63.5059 146.539 63.6339C146.264 63.7619 145.952 63.8259 145.585 63.8259C145.228 63.8259 144.907 63.7619 144.632 63.6339C144.357 63.5059 144.128 63.3322 143.954 63.1128C143.77 62.8934 143.633 62.6374 143.55 62.3539C143.459 62.0705 143.413 61.7597 143.413 61.4488C143.422 61.138 143.459 60.8362 143.55 60.5437ZM143.954 62.1894C144.018 62.4362 144.128 62.6465 144.265 62.8385C144.403 63.0305 144.586 63.186 144.806 63.2957C145.026 63.4054 145.292 63.4694 145.594 63.4694C145.897 63.4694 146.163 63.4145 146.383 63.2957C146.603 63.1768 146.777 63.0305 146.914 62.8385C147.052 62.6465 147.162 62.4271 147.226 62.1894C147.29 61.9425 147.327 61.7048 147.327 61.4488C147.327 61.1928 147.29 60.946 147.226 60.7082C147.162 60.4705 147.052 60.2511 146.914 60.0591C146.777 59.8671 146.594 59.7117 146.383 59.602C146.163 59.4831 145.906 59.4282 145.594 59.4282C145.292 59.4282 145.026 59.4831 144.806 59.602C144.586 59.7208 144.403 59.8671 144.265 60.0591C144.128 60.2511 144.018 60.4614 143.954 60.7082C143.889 60.946 143.853 61.1928 143.853 61.4488C143.853 61.7048 143.889 61.9425 143.954 62.1894Z" fill="white"/>
<path d="M155.596 59.1536V63.3776H158.181V63.7524H155.156V59.1536H155.596Z" fill="white"/>
</svg>
