<svg width="24" height="24" viewBox="0 0 24 24" fill="none" xmlns="http://www.w3.org/2000/svg">
<path fill-rule="evenodd" clip-rule="evenodd" d="M7 21L12 21L12 19.5L7 19.5C6.17157 19.5 5.5 18.8284 5.5 18L5.5 6C5.5 5.17157 6.17157 4.5 7 4.5L12 4.5L12 3L7 3C5.34315 3 4 4.34315 4 6L4 18C4 19.6569 5.34315 21 7 21ZM18.5303 12.5303L14.5303 16.5303L13.4697 15.4697L16.1893 12.75L8 12.75L8 11.25L16.1893 11.25L13.4697 8.53033L14.5303 7.46967L18.5303 11.4697L19.0607 12L18.5303 12.5303Z" fill="#366EA5"/>
</svg>
