<svg width="110" height="130" viewBox="0 0 110 130" fill="none" xmlns="http://www.w3.org/2000/svg">
<path d="M152.429 -56.7457C139.84 -64.2116 125.531 -68 109.885 -68C93.9482 -68 79.4757 -64.2116 66.8958 -56.7457C54.2645 -49.2627 44.502 -38.6825 37.8824 -25.2951C31.3227 -12.0186 28 3.19476 28 19.9354C28 36.9065 31.5025 52.3417 38.4133 65.8144C38.7816 66.5226 39.1669 67.137 39.5437 67.7257C39.7578 68.0585 39.9805 68.3998 40.1689 68.7325L41.1023 70.3622H75.5022L70.8864 65.0209C61.5693 54.2444 56.8507 39.0396 56.8507 19.8331C56.8507 7.0685 59.0259 -4.18578 63.3248 -13.6141C67.5381 -22.8804 73.7724 -30.1586 81.865 -35.2524C89.8548 -40.2781 99.5916 -42.9317 110.013 -42.9317C120.144 -42.9317 129.393 -40.3463 137.494 -35.2524C145.587 -30.1586 151.829 -22.8804 156.034 -13.6141C160.325 -4.16872 162.508 7.08558 162.508 19.8416C162.508 39.9014 157.481 55.5243 147.556 66.2923C137.708 76.9749 124.957 82.393 109.68 82.393H49.3062L55.8659 88.0671C60.2076 91.8213 64.1383 94.62 68.2317 96.864C80.9572 103.809 94.933 107.333 109.782 107.333C124.477 107.333 138.385 103.809 151.11 96.864C163.921 89.8589 173.949 79.4237 180.92 65.8315C187.831 52.3588 191.333 36.9236 191.333 19.9525C191.342 3.19479 188.019 -12.0186 181.459 -25.278C174.823 -38.6825 165.06 -49.2627 152.429 -56.7457ZM179.944 65.3195C173.076 78.707 163.193 88.9971 150.579 95.8998C138.016 102.76 124.28 106.233 109.774 106.233C95.1128 106.233 81.3083 102.751 68.7455 95.8998C64.7207 93.6985 60.8499 90.9425 56.5681 87.2309L52.1921 83.4425H109.671C125.274 83.4425 138.282 77.9049 148.353 66.9919C158.466 56.0277 163.587 40.1488 163.587 19.816C163.587 6.91493 161.378 -4.49297 157.019 -14.0834C152.72 -23.5459 146.349 -30.9862 138.068 -36.191C129.787 -41.3958 120.35 -44.0409 110.013 -44.0409C99.3861 -44.0409 89.4523 -41.3276 81.2826 -36.191C73.0102 -30.9862 66.6303 -23.5459 62.3314 -14.0834C57.9726 -4.51003 55.7631 6.88934 55.7631 19.816C55.7631 39.287 60.5759 54.7223 70.0643 65.7035L73.1387 69.2701H41.7274L41.1023 68.1865C40.8968 67.8281 40.6741 67.4783 40.4515 67.1284C40.0832 66.5567 39.715 65.9766 39.3724 65.311C32.5387 51.9919 29.079 36.7188 29.079 19.9184C29.079 3.34836 32.3674 -11.7114 38.8501 -24.8343C45.3841 -38.034 55.001 -48.4607 67.4525 -55.8327C79.8697 -63.1962 94.1452 -66.9334 109.894 -66.9334C125.342 -66.9334 139.472 -63.1962 151.889 -55.8327C164.332 -48.4607 173.958 -38.034 180.483 -24.8343C186.974 -11.72 190.263 3.3313 190.246 19.9184C190.237 36.7358 186.777 52.0004 179.944 65.3195Z" fill="white"/>
<path d="M173.426 -34.544C167.569 -42.8205 160.179 -49.6465 151.324 -54.8939C139.078 -62.155 125.136 -65.8411 109.885 -65.8411C94.3417 -65.8411 80.246 -62.155 68.0001 -54.8939C55.7371 -47.6328 46.2572 -37.3512 39.8174 -24.3477C33.4032 -11.3784 30.1576 3.51926 30.1576 19.9272C30.1576 36.5569 33.5831 51.6593 40.3312 64.8249C40.6223 65.3966 40.9477 65.9085 41.2646 66.4119C41.2903 66.4546 41.3245 66.5058 41.3502 66.5484C41.59 66.9239 41.8212 67.2737 42.0353 67.6491L42.3436 68.1952H70.7662L69.2247 66.4119C67.8631 64.842 66.6043 63.1696 65.431 61.4205C64.0523 59.3556 62.802 57.1713 61.6888 54.8675C61.4661 54.4068 61.252 53.946 61.0379 53.4853C61.0122 53.4255 60.978 53.3658 60.9523 53.2976C60.9009 53.1866 60.8581 53.0757 60.8067 52.9563C60.0702 51.2839 59.3937 49.5518 58.7857 47.76C58.7686 47.7003 58.7429 47.6406 58.7258 47.5808C57.2614 43.2037 56.1909 38.4852 55.523 33.417C55.4117 32.5722 55.3089 31.719 55.2147 30.8487C54.9663 28.4596 54.7951 25.9937 54.718 23.4596C54.6837 22.2565 54.658 21.0364 54.658 19.8077C54.658 6.72744 56.9017 -4.8255 61.3205 -14.5354C64.0609 -20.5679 67.6319 -25.7982 71.9908 -30.1754C74.6026 -32.8034 77.5057 -35.1157 80.6742 -37.1123C89.0152 -42.3597 99.1459 -45.1243 109.979 -45.1243C120.521 -45.1243 130.155 -42.428 138.615 -37.1123C147.076 -31.788 153.593 -24.1941 157.978 -14.5439C162.397 -4.81695 164.64 6.73599 164.64 19.7992C164.64 40.4136 159.416 56.5314 149.114 67.7089C147.025 69.97 144.815 72.0092 142.478 73.8181C133.332 80.9171 122.319 84.5093 109.636 84.5093H55.052L57.2357 86.4035C60.7382 89.4325 63.9581 91.813 67.2123 93.7755C67.8802 94.1765 68.5482 94.569 69.2247 94.9359C81.6248 101.702 95.258 105.141 109.73 105.141C122.268 105.141 134.214 102.513 145.312 97.3165C146.896 96.5741 148.464 95.7806 150.014 94.9359C157.781 90.6868 164.495 85.1407 170.087 78.3488C173.444 74.2789 176.398 69.7567 178.941 64.8078C185.698 51.6423 189.124 36.5398 189.124 19.9101C189.132 3.49364 185.886 -11.404 179.472 -24.3648C177.717 -27.957 175.679 -31.3529 173.426 -34.544ZM178.059 64.2618C178.042 64.2874 178.034 64.313 178.017 64.3385C177.999 64.3727 177.982 64.3983 177.965 64.4324C171.268 77.4529 161.789 87.3079 149.534 94.0059C137.554 100.542 124.648 103.895 110.827 104.057C110.476 104.066 110.116 104.074 109.765 104.074C95.4721 104.074 82.0187 100.687 69.7728 94.0059C69.7642 93.9973 69.7557 93.9973 69.7385 93.9888C69.3874 93.7926 69.0363 93.5963 68.6852 93.3916C68.6338 93.3574 68.5739 93.3318 68.5225 93.2977C68.4112 93.2294 68.2998 93.1697 68.1799 93.1014C68.1714 93.0929 68.1628 93.0929 68.1457 93.0844C67.8974 92.9393 67.6576 92.7943 67.4092 92.6407C67.4007 92.6322 67.3921 92.6322 67.3835 92.6236C65.8164 91.6595 64.2578 90.5929 62.6564 89.4069C62.6564 89.4069 62.6479 89.4069 62.6479 89.3984C62.4852 89.2789 62.3225 89.1509 62.1598 89.0315C62.1512 89.0229 62.1341 89.0144 62.1255 89.0059C61.9285 88.8523 61.7316 88.6987 61.526 88.5451C61.4661 88.4939 61.3976 88.4513 61.3377 88.4001C61.1493 88.255 60.9608 88.1014 60.7724 87.9479C60.7296 87.9137 60.6954 87.8796 60.6526 87.854C60.5155 87.7431 60.3871 87.6407 60.2501 87.5297C60.2415 87.5297 60.2415 87.5212 60.233 87.5212L57.878 85.6099H109.636C109.962 85.6099 110.287 85.6014 110.613 85.6014C124.52 85.3967 136.423 80.9086 146.091 72.2311C147.402 71.0536 148.678 69.7993 149.911 68.4683C159.416 58.1525 164.674 43.7497 165.574 25.5927C165.608 24.9698 165.634 24.3384 165.651 23.6985C165.694 22.4271 165.711 21.1473 165.711 19.8418V19.8333C165.711 16.8128 165.582 13.8776 165.351 11.0193C165.282 10.1916 165.205 9.36398 165.111 8.54487C164.931 6.91517 164.717 5.31106 164.46 3.73255C164.443 3.6131 164.426 3.49366 164.409 3.37421C164.221 2.27352 164.015 1.1899 163.792 0.114807C162.671 -5.29477 161.052 -10.3289 158.954 -14.962C154.475 -24.817 147.83 -32.5645 139.189 -37.9997C131.79 -42.6499 123.509 -45.3376 114.526 -46.0031C113.935 -46.0458 113.344 -46.0799 112.753 -46.1055C111.837 -46.1482 110.912 -46.1737 109.979 -46.1737C109.979 -46.1737 109.979 -46.1737 109.97 -46.1737C109.294 -46.1737 108.617 -46.1652 107.941 -46.1396C107.538 -46.1226 107.136 -46.1055 106.742 -46.0799C106.476 -46.0628 106.202 -46.0543 105.937 -46.0372C105.406 -46.0031 104.875 -45.9604 104.353 -45.9092C104.216 -45.9007 104.079 -45.8922 103.941 -45.8751C103.342 -45.8154 102.743 -45.7471 102.143 -45.6703C102.083 -45.6618 102.023 -45.6618 101.963 -45.6533C101.33 -45.568 100.696 -45.4741 100.071 -45.3717C100.054 -45.3717 100.028 -45.3632 100.011 -45.3632C99.36 -45.2608 98.7177 -45.1413 98.0754 -45.0133C97.4332 -44.8854 96.7995 -44.7488 96.1572 -44.6038H96.1486C95.5235 -44.4587 94.9069 -44.3051 94.2903 -44.1345C94.2732 -44.1345 94.2561 -44.126 94.2475 -44.126C93.6566 -43.9638 93.0658 -43.7932 92.4749 -43.614C92.4406 -43.6055 92.3978 -43.597 92.3635 -43.5799C91.8069 -43.4092 91.2503 -43.2215 90.7022 -43.0338C90.6337 -43.0082 90.5737 -42.9912 90.5052 -42.9656C89.9914 -42.7864 89.4776 -42.5901 88.9723 -42.4024C88.8781 -42.3683 88.7754 -42.3342 88.6812 -42.2915C88.2102 -42.1038 87.7392 -41.9075 87.2768 -41.7113C87.1483 -41.6601 87.0198 -41.6089 86.8914 -41.5492C86.4632 -41.3615 86.0436 -41.1652 85.624 -40.9689C85.4613 -40.8921 85.2986 -40.8239 85.1359 -40.7471C84.7505 -40.5594 84.3651 -40.3632 83.9798 -40.1669C83.7914 -40.0731 83.603 -39.9792 83.4146 -39.8853C83.0549 -39.6976 82.6952 -39.4928 82.3356 -39.288C82.1386 -39.1771 81.9331 -39.0748 81.7361 -38.9553C81.3336 -38.7249 80.9311 -38.4775 80.5372 -38.23C80.3916 -38.1447 80.2461 -38.0594 80.109 -37.9741C77.4115 -36.2761 74.9024 -34.3478 72.5988 -32.2061C72.4446 -32.0611 72.2905 -31.9075 72.1363 -31.7624C71.8366 -31.4723 71.5283 -31.1908 71.2372 -30.8921C66.7841 -26.4296 63.136 -21.0883 60.3443 -14.9365C56.5078 -6.50639 54.2898 3.28034 53.7332 14.2189C53.6561 15.7974 53.6047 17.4101 53.5962 19.0398C53.5962 19.3128 53.5876 19.5858 53.5876 19.8589C53.5876 20.4732 53.5962 21.079 53.6047 21.6763C53.6047 21.8896 53.6133 22.0944 53.6219 22.3077C53.6304 22.6917 53.639 23.0756 53.6476 23.4596C53.6561 23.7241 53.6647 23.9801 53.6732 24.236C53.6818 24.5688 53.6989 24.893 53.7161 25.2173C53.7332 25.4988 53.7503 25.7804 53.7589 26.062C53.776 26.3606 53.7931 26.6592 53.8103 26.9579C53.8274 27.2565 53.8531 27.5466 53.8702 27.8453C53.8873 28.1183 53.913 28.3999 53.9302 28.6729C53.9558 28.9801 53.9815 29.2872 54.0072 29.5859C54.0329 29.8418 54.05 30.0978 54.0757 30.3538C54.11 30.6695 54.1442 30.9852 54.1699 31.2924C54.1956 31.5313 54.2213 31.7702 54.247 32.0091C54.2813 32.3333 54.3241 32.649 54.3669 32.9733C54.3926 33.1951 54.4268 33.4255 54.4525 33.6473C54.4953 33.9716 54.5382 34.3043 54.5896 34.6285C54.6238 34.8419 54.6495 35.0552 54.6838 35.26C54.7351 35.5927 54.7865 35.9255 54.8379 36.2583C54.8721 36.4545 54.9064 36.6507 54.9406 36.847C55.0006 37.1883 55.0605 37.521 55.1205 37.8538C55.1547 38.0415 55.189 38.2207 55.2232 38.3999C55.2918 38.7412 55.3517 39.0825 55.4288 39.4238C55.463 39.5945 55.4973 39.7651 55.5401 39.9357C55.6172 40.2856 55.6857 40.6269 55.7628 40.9767C55.797 41.1303 55.8313 41.2839 55.8741 41.446C55.9597 41.7958 56.0368 42.1542 56.1224 42.504C56.1567 42.6405 56.1909 42.7856 56.2252 42.9221C56.3194 43.2805 56.4136 43.6474 56.5078 44.0057C56.542 44.1252 56.5763 44.2446 56.602 44.3556C56.7047 44.731 56.8075 45.1064 56.9188 45.4733C56.9445 45.5586 56.9702 45.6525 56.9959 45.7378C57.1158 46.1303 57.2357 46.5313 57.3556 46.9238C57.3727 46.9665 57.3813 47.0091 57.3984 47.0518C58.1263 49.33 58.9484 51.5143 59.8818 53.6047C59.8904 53.6303 59.9075 53.6559 59.9161 53.6815C60.0617 54.0143 60.2158 54.3471 60.37 54.6713C60.4214 54.7822 60.4727 54.8846 60.5241 54.9955C60.6611 55.2856 60.8067 55.5672 60.9437 55.8573C61.0122 56.0023 61.0807 56.1474 61.1578 56.2925C61.2863 56.557 61.4233 56.8129 61.5603 57.0689C61.6459 57.231 61.7316 57.4017 61.8172 57.5638C61.9457 57.8027 62.0827 58.0416 62.2111 58.2805C62.3053 58.4597 62.4081 58.6303 62.5109 58.8095C62.6393 59.0314 62.7678 59.2532 62.9048 59.4836C63.0161 59.6713 63.1189 59.8505 63.2302 60.0297C63.3587 60.243 63.4871 60.4478 63.6156 60.6611C63.7355 60.8488 63.8553 61.0365 63.9752 61.2242C64.1037 61.4205 64.2321 61.6252 64.3606 61.8215C64.489 62.0177 64.6175 62.2054 64.746 62.3932C64.8744 62.5809 65.0029 62.7771 65.1399 62.9648C65.2769 63.1611 65.4139 63.3488 65.5509 63.5365C65.6794 63.7157 65.8164 63.9034 65.9449 64.0826C66.0904 64.2703 66.2275 64.4665 66.373 64.6543C66.5101 64.8334 66.6385 65.0041 66.7755 65.1833C67.2808 65.8317 67.8032 66.4717 68.3427 67.0945C68.3598 67.1116 68.3769 67.1372 68.394 67.1543H42.9602C42.8317 66.9324 42.7033 66.7191 42.5748 66.5143C42.4892 66.3778 42.4036 66.2498 42.3265 66.1218C42.3179 66.1133 42.3094 66.0963 42.3008 66.0877C42.2323 65.9768 42.1638 65.8659 42.0953 65.7549C41.9668 65.5502 41.8384 65.3454 41.7099 65.1406C41.6928 65.1065 41.6757 65.0809 41.6585 65.0468C41.5301 64.8249 41.4016 64.6116 41.2817 64.3727C41.2047 64.2191 41.1276 64.057 41.0505 63.9034C34.5079 50.9511 31.2195 36.3265 31.2195 19.9698C31.2195 3.64723 34.4137 -10.9603 40.7679 -23.8273C47.1392 -36.6942 56.3879 -46.7284 68.5225 -53.9212C68.5225 -53.9212 68.5311 -53.9212 68.5311 -53.9297C80.6057 -61.097 94.513 -64.7233 109.859 -64.7233C124.974 -64.7233 138.607 -61.1311 150.742 -53.9297C162.885 -46.7369 172.133 -36.7027 178.505 -23.8358C184.876 -10.9603 188.053 3.63869 188.044 19.9613C188.079 36.4545 184.73 51.2156 178.059 64.2618Z" fill="white"/>
<path d="M150.219 -53.042C138.307 -60.1068 124.743 -63.6904 109.885 -63.6904C94.7359 -63.6904 81.017 -60.1068 69.105 -53.042C57.2102 -45.9942 48.0044 -36.0197 41.7615 -23.3917C35.5015 -10.721 32.3244 3.86097 32.3244 19.9276C32.3244 36.2075 35.6728 50.9857 42.2668 63.8441C42.5408 64.3731 42.8576 64.868 43.1916 65.3885C43.3286 65.6018 43.4657 65.8151 43.6027 66.0369H66.1335C57.0989 54.5949 52.5174 39.0659 52.5174 19.8166C52.5174 6.42923 54.821 -5.42235 59.3768 -15.4138C63.9412 -25.4565 70.7321 -33.3661 79.5526 -38.9207C88.2361 -44.3815 98.7693 -47.2655 110.013 -47.2655C120.975 -47.2655 130.994 -44.4583 139.806 -38.9207C148.627 -33.3746 155.417 -25.4651 159.982 -15.4138C164.529 -5.40528 166.841 6.4463 166.841 19.8166C166.841 40.9857 161.429 57.5983 150.75 69.1854C140.046 80.7981 126.224 86.6769 109.679 86.6769H60.9611C64.1895 89.2964 67.2125 91.3527 70.3211 93.0592C82.3957 99.6548 95.6779 102.991 109.791 102.991C123.749 102.991 136.954 99.6462 149.038 93.0507C161.078 86.4721 170.506 76.6428 177.075 63.8356C183.669 50.9771 187.017 36.1989 187.017 19.919C187.026 3.83536 183.857 -10.7466 177.589 -23.4002C171.311 -36.0112 162.114 -45.9856 150.219 -53.042ZM176.09 63.3577C169.624 75.9687 160.342 85.6445 148.498 92.1121C136.578 98.6138 123.552 101.916 109.774 101.916C95.8491 101.916 82.7469 98.6138 70.8263 92.1121C68.5827 90.8834 66.3647 89.45 64.0868 87.752H109.662C126.524 87.752 140.611 81.7452 151.53 69.9107C162.397 58.1188 167.903 41.2672 167.903 19.8166C167.903 6.29271 165.565 -5.71244 160.95 -15.8575C156.299 -26.0965 149.372 -34.1682 140.363 -39.8337C131.379 -45.4822 121.163 -48.3491 109.996 -48.3491C98.5467 -48.3491 87.8165 -45.4054 78.9618 -39.8337C69.9614 -34.1682 63.0335 -26.105 58.3834 -15.8661C53.7677 -5.72952 51.4298 6.26711 51.4298 19.8081C51.4298 38.3321 55.6431 53.5028 63.9583 64.9533H44.1936C44.1593 64.9021 44.1251 64.8509 44.0908 64.7997C43.774 64.3048 43.4742 63.8356 43.2259 63.3492C36.709 50.6444 33.4035 36.0283 33.4035 19.919C33.4035 4.01454 36.5463 -10.4053 42.7292 -22.9309C48.8864 -35.3627 57.9467 -45.1836 69.6617 -52.129C81.4024 -59.0915 94.9328 -62.6239 109.885 -62.6239C124.546 -62.6239 137.922 -59.0915 149.663 -52.129C161.378 -45.1921 170.438 -35.3627 176.595 -22.9309C182.787 -10.4224 185.921 3.99747 185.912 19.919C185.912 36.0454 182.607 50.6529 176.09 63.3577Z" fill="white"/>
</svg>
