<svg width="165" height="255" viewBox="0 0 165 255" fill="none" xmlns="http://www.w3.org/2000/svg">
<path d="M228.643 -25.1185C209.761 -36.3174 188.296 -42 164.828 -42C140.922 -42 119.214 -36.3174 100.344 -25.1185C81.3968 -13.8941 66.753 1.97628 56.8236 22.0574C46.984 41.9721 42 64.7922 42 89.9032C42 115.36 47.2538 138.513 57.62 158.722C58.1723 159.784 58.7504 160.705 59.3156 161.589C59.6367 162.088 59.9707 162.6 60.2533 163.099L61.6534 165.543H113.253L106.33 157.531C92.3539 141.367 85.2761 118.559 85.2761 89.7496C85.2761 70.6028 88.5388 53.7213 94.9872 39.5788C101.307 25.6794 110.659 14.7621 122.797 7.12133C134.782 -0.417095 149.387 -4.39748 165.02 -4.39748C180.216 -4.39748 194.089 -0.519482 206.241 7.12133C218.38 14.7621 227.744 25.6794 234.051 39.5788C240.487 53.7469 243.762 70.6284 243.762 89.7624C243.762 119.852 236.222 143.286 221.334 159.438C206.562 175.462 187.435 183.589 164.519 183.589H73.9593L83.7989 192.101C90.3115 197.732 96.2075 201.93 102.348 205.296C121.436 215.714 142.399 221 164.673 221C186.716 221 207.577 215.714 226.665 205.296C245.882 194.788 260.924 179.136 271.38 158.747C281.746 138.538 287 115.385 287 89.9288C287.013 64.7922 282.029 41.9721 272.189 22.083C262.234 1.97626 247.59 -13.8941 228.643 -25.1185ZM269.916 157.979C259.614 178.06 244.79 193.496 225.869 203.85C207.025 214.14 186.421 219.349 164.661 219.349C142.669 219.349 121.962 214.127 103.118 203.85C97.081 200.548 91.2749 196.414 84.8522 190.846L78.2882 185.164H164.506C187.911 185.164 207.423 176.857 222.529 160.488C237.699 144.042 245.381 120.223 245.381 89.724C245.381 70.3724 242.067 53.2606 235.529 38.8748C229.08 24.6811 219.523 13.5207 207.102 5.71346C194.68 -2.09373 180.525 -6.06129 165.02 -6.06129C149.079 -6.06129 134.178 -1.99134 121.924 5.71346C109.515 13.5207 99.9455 24.6811 93.4971 38.8748C86.9588 53.235 83.6447 70.334 83.6447 89.724C83.6447 118.931 90.8638 142.083 105.097 158.555L109.708 163.905H62.5911L61.6534 162.28C61.3451 161.742 61.0112 161.217 60.6772 160.693C60.1248 159.835 59.5725 158.965 59.0587 157.967C48.8081 137.988 43.6185 115.078 43.6185 89.8776C43.6185 65.0225 48.5511 42.4329 58.2751 22.7485C68.0761 2.94895 82.5015 -12.691 101.179 -23.7491C119.804 -34.7943 141.218 -40.4002 164.84 -40.4002C188.013 -40.4002 209.208 -34.7943 227.834 -23.7491C246.498 -12.691 260.937 2.94895 270.725 22.7485C280.462 42.4201 285.394 64.9969 285.369 89.8776C285.356 115.104 280.166 138.001 269.916 157.979Z" fill="white"/>
<path d="M260.14 8.18399C251.353 -4.23072 240.268 -14.4697 226.986 -22.3409C208.617 -33.2325 187.705 -38.7616 164.827 -38.7616C141.513 -38.7616 120.369 -33.2325 102 -22.3409C83.6056 -11.4492 69.3858 3.9732 59.726 23.4784C50.1049 42.9324 45.2364 65.2789 45.2364 89.8907C45.2364 114.835 50.3746 137.489 60.4968 157.237C60.9335 158.095 61.4216 158.863 61.8969 159.618C61.9354 159.682 61.9868 159.759 62.0254 159.823C62.385 160.386 62.7319 160.911 63.053 161.474L63.5154 162.293H106.149L103.837 159.618C101.795 157.263 99.9064 154.754 98.1466 152.131C96.0785 149.033 94.203 145.757 92.5331 142.301C92.1992 141.61 91.878 140.919 91.5569 140.228C91.5184 140.138 91.467 140.049 91.4284 139.946C91.3514 139.78 91.2871 139.614 91.2101 139.434C90.1054 136.926 89.0906 134.328 88.1786 131.64C88.1529 131.55 88.1143 131.461 88.0886 131.371C85.8921 124.806 84.2864 117.728 83.2845 110.125C83.1175 108.858 82.9633 107.578 82.822 106.273C82.4495 102.689 82.1926 98.9906 82.077 95.1894C82.0256 93.3848 81.9871 91.5546 81.9871 89.7115C81.9871 70.0912 85.3526 52.7618 91.9808 38.1969C96.0913 29.1482 101.448 21.3026 107.986 14.7369C111.904 10.7949 116.259 7.32647 121.011 4.33158C133.523 -3.53961 148.719 -7.6864 164.968 -7.6864C180.781 -7.6864 195.232 -3.642 207.923 4.33158C220.614 12.318 230.39 23.7088 236.967 38.1841C243.595 52.7746 246.96 70.104 246.96 89.6988C246.96 120.62 239.125 144.797 223.672 161.563C220.537 164.955 217.223 168.014 213.716 170.727C199.998 181.376 183.478 186.764 164.454 186.764H82.578L85.8535 189.605C91.1073 194.149 95.9372 197.72 100.818 200.663C101.82 201.265 102.822 201.854 103.837 202.404C122.437 212.553 142.887 217.711 164.596 217.711C183.401 217.711 201.321 213.769 217.968 205.975C220.345 204.861 222.695 203.671 225.02 202.404C236.671 196.03 246.742 187.711 255.13 177.523C260.165 171.418 264.597 164.635 268.412 157.212C278.547 137.463 283.685 114.81 283.685 89.8651C283.698 65.2405 278.83 42.894 269.209 23.4528C266.575 18.0646 263.518 12.9707 260.14 8.18399ZM267.089 156.393C267.063 156.431 267.05 156.469 267.025 156.508C266.999 156.559 266.973 156.597 266.948 156.649C256.903 176.179 242.683 190.962 224.301 201.009C206.33 210.813 186.972 215.843 166.24 216.086C165.713 216.098 165.174 216.111 164.647 216.111C143.208 216.111 123.028 211.03 104.659 201.009C104.646 200.996 104.633 200.996 104.608 200.983C104.081 200.689 103.554 200.395 103.028 200.087C102.951 200.036 102.861 199.998 102.784 199.947C102.617 199.844 102.45 199.755 102.27 199.652C102.257 199.639 102.244 199.639 102.219 199.627C101.846 199.409 101.486 199.191 101.114 198.961C101.101 198.948 101.088 198.948 101.075 198.935C98.7246 197.489 96.3868 195.889 93.9847 194.11C93.9847 194.11 93.9718 194.11 93.9718 194.098C93.7278 193.918 93.4837 193.726 93.2396 193.547C93.2268 193.534 93.2011 193.522 93.1882 193.509C92.8928 193.278 92.5974 193.048 92.2891 192.818C92.1992 192.741 92.0964 192.677 92.0065 192.6C91.7239 192.383 91.4413 192.152 91.1587 191.922C91.0944 191.871 91.0431 191.819 90.9788 191.781C90.7733 191.615 90.5807 191.461 90.3751 191.295C90.3623 191.295 90.3623 191.282 90.3494 191.282L86.8169 188.415H164.454C164.943 188.415 165.431 188.402 165.919 188.402C186.78 188.095 204.635 181.363 219.137 168.347C221.103 166.58 223.017 164.699 224.866 162.702C239.125 147.229 247.012 125.625 248.36 98.389C248.412 97.4547 248.45 96.5076 248.476 95.5477C248.54 93.6407 248.566 91.7209 248.566 89.7627V89.7499C248.566 85.2192 248.373 80.8165 248.026 76.5289C247.924 75.2874 247.808 74.046 247.667 72.8173C247.397 70.3728 247.076 67.9666 246.691 65.5988C246.665 65.4197 246.639 65.2405 246.614 65.0613C246.331 63.4103 246.023 61.7848 245.689 60.1722C244.006 52.0578 241.578 44.5066 238.431 37.5569C231.713 22.7745 221.745 11.1533 208.784 3.0005C197.685 -3.97478 185.264 -8.00637 171.789 -9.00466C170.903 -9.06866 170.016 -9.11984 169.13 -9.15824C167.756 -9.22223 166.368 -9.26061 164.968 -9.26061C164.968 -9.26061 164.968 -9.26061 164.955 -9.26061C163.941 -9.26061 162.926 -9.24784 161.911 -9.20945C161.307 -9.18385 160.704 -9.15824 160.113 -9.11985C159.714 -9.09425 159.303 -9.08142 158.905 -9.05583C158.109 -9.00463 157.312 -8.94065 156.529 -8.86386C156.323 -8.85106 156.118 -8.83825 155.912 -8.81265C155.013 -8.72306 154.114 -8.62068 153.215 -8.50549C153.125 -8.49269 153.035 -8.49271 152.945 -8.47991C151.994 -8.35192 151.044 -8.21112 150.106 -8.05753C150.08 -8.05753 150.042 -8.04476 150.016 -8.04476C149.04 -7.89118 148.077 -7.71199 147.113 -7.52001C146.15 -7.32803 145.199 -7.12324 144.236 -6.90566H144.223C143.285 -6.68808 142.36 -6.45772 141.436 -6.20175C141.41 -6.20175 141.384 -6.18894 141.371 -6.18894C140.485 -5.94576 139.599 -5.68978 138.712 -5.42101C138.661 -5.40821 138.597 -5.39544 138.545 -5.36984C137.71 -5.11387 136.875 -4.83228 136.053 -4.55071C135.951 -4.51231 135.861 -4.48673 135.758 -4.44834C134.987 -4.17957 134.216 -3.88519 133.459 -3.60362C133.317 -3.55243 133.163 -3.50122 133.022 -3.43723C132.315 -3.15566 131.609 -2.8613 130.915 -2.56693C130.722 -2.49014 130.53 -2.41334 130.337 -2.32375C129.695 -2.04218 129.065 -1.74778 128.436 -1.45341C128.192 -1.33822 127.948 -1.23586 127.704 -1.12067C127.126 -0.8391 126.548 -0.544743 125.97 -0.250374C125.687 -0.109585 125.404 0.0312195 125.122 0.172005C124.582 0.453579 124.043 0.760761 123.503 1.06793C123.208 1.23431 122.9 1.38787 122.604 1.56706C122 1.91262 121.397 2.28379 120.806 2.65495C120.587 2.78294 120.369 2.91091 120.164 3.0389C116.117 5.58583 112.354 8.47835 108.898 11.6908C108.667 11.9084 108.436 12.1388 108.205 12.3563C107.755 12.7915 107.292 13.2139 106.856 13.6618C100.176 20.3555 94.704 28.3675 90.5164 37.5953C84.7617 50.2404 81.4347 64.9205 80.5998 81.3284C80.4842 83.6962 80.4071 86.1151 80.3943 88.5597C80.3943 88.9692 80.3814 89.3788 80.3814 89.7883C80.3814 90.7098 80.3942 91.6185 80.4071 92.5145C80.4071 92.8344 80.4199 93.1416 80.4328 93.4615C80.4456 94.0375 80.4585 94.6134 80.4713 95.1894C80.4842 95.5861 80.497 95.9701 80.5099 96.354C80.5227 96.8532 80.5484 97.3395 80.5741 97.8259C80.5998 98.2482 80.6255 98.6706 80.6383 99.093C80.664 99.5409 80.6897 99.9889 80.7154 100.437C80.7411 100.885 80.7796 101.32 80.8053 101.768C80.831 102.177 80.8695 102.6 80.8952 103.009C80.9338 103.47 80.9723 103.931 81.0108 104.379C81.0494 104.763 81.0751 105.147 81.1136 105.531C81.165 106.004 81.2164 106.478 81.2549 106.939C81.2934 107.297 81.332 107.655 81.3705 108.014C81.4219 108.5 81.4861 108.974 81.5503 109.46C81.5889 109.793 81.6403 110.138 81.6788 110.471C81.743 110.957 81.8073 111.456 81.8843 111.943C81.9357 112.263 81.9742 112.583 82.0256 112.89C82.1027 113.389 82.1798 113.888 82.2568 114.387C82.3082 114.682 82.3596 114.976 82.411 115.27C82.5009 115.782 82.5908 116.282 82.6807 116.781C82.7321 117.062 82.7835 117.331 82.8349 117.6C82.9376 118.112 83.0276 118.624 83.1432 119.136C83.1945 119.392 83.2459 119.648 83.3102 119.904C83.4258 120.428 83.5285 120.94 83.6441 121.465C83.6955 121.695 83.7469 121.926 83.8111 122.169C83.9396 122.694 84.0552 123.231 84.1836 123.756C84.235 123.961 84.2864 124.178 84.3378 124.383C84.4791 124.921 84.6204 125.471 84.7617 126.009C84.8131 126.188 84.8644 126.367 84.903 126.533C85.0571 127.096 85.2113 127.66 85.3783 128.21C85.4168 128.338 85.4553 128.479 85.4939 128.607C85.6737 129.195 85.8535 129.797 86.0334 130.386C86.0591 130.45 86.0719 130.514 86.0976 130.578C87.1895 133.995 88.4226 137.271 89.8228 140.407C89.8356 140.446 89.8613 140.484 89.8741 140.522C90.0925 141.021 90.3237 141.521 90.555 142.007C90.632 142.173 90.7091 142.327 90.7862 142.493C90.9917 142.928 91.2101 143.351 91.4156 143.786C91.5184 144.004 91.6211 144.221 91.7367 144.439C91.9294 144.835 92.1349 145.219 92.3405 145.603C92.4689 145.847 92.5974 146.103 92.7258 146.346C92.9185 146.704 93.124 147.062 93.3167 147.421C93.458 147.69 93.6122 147.945 93.7663 148.214C93.959 148.547 94.1517 148.88 94.3572 149.225C94.5242 149.507 94.6783 149.776 94.8453 150.045C95.038 150.364 95.2307 150.672 95.4233 150.992C95.6032 151.273 95.783 151.555 95.9629 151.836C96.1555 152.131 96.3482 152.438 96.5409 152.732C96.7336 153.027 96.9263 153.308 97.1189 153.59C97.3116 153.871 97.5043 154.166 97.7098 154.447C97.9154 154.742 98.1209 155.023 98.3264 155.305C98.5191 155.574 98.7246 155.855 98.9173 156.124C99.1357 156.405 99.3412 156.7 99.5596 156.981C99.7651 157.25 99.9578 157.506 100.163 157.775C100.921 158.748 101.705 159.708 102.514 160.642C102.54 160.667 102.565 160.706 102.591 160.731H64.4403C64.2476 160.399 64.0549 160.079 63.8622 159.772C63.7338 159.567 63.6053 159.375 63.4897 159.183C63.4769 159.17 63.464 159.144 63.4512 159.132C63.3484 158.965 63.2457 158.799 63.1429 158.632C62.9502 158.325 62.7575 158.018 62.5649 157.711C62.5392 157.66 62.5135 157.621 62.4878 157.57C62.2951 157.237 62.1024 156.917 61.9226 156.559C61.807 156.329 61.6914 156.085 61.5758 155.855C51.7619 136.427 46.8293 114.49 46.8293 89.9547C46.8293 65.4708 51.6206 43.5595 61.1519 24.2591C70.7088 4.95872 84.5819 -10.0925 102.784 -20.8818C102.784 -20.8818 102.797 -20.8818 102.797 -20.8946C120.909 -31.6455 141.769 -37.085 164.788 -37.085C187.461 -37.085 207.91 -31.6967 226.112 -20.8946C244.327 -10.1053 258.2 4.94591 267.757 24.2463C277.314 43.5595 282.08 65.458 282.067 89.9419C282.118 114.682 277.096 136.823 267.089 156.393Z" fill="white"/>
<path d="M225.329 -19.5629C207.461 -30.1602 187.114 -35.5357 164.827 -35.5357C142.104 -35.5357 121.526 -30.1602 103.658 -19.5629C85.8153 -8.99124 72.0065 5.97041 62.6423 24.9125C53.2523 43.9185 48.4867 65.7915 48.4867 89.8914C48.4867 114.311 53.5092 136.479 63.4002 155.766C63.8112 156.56 64.2865 157.302 64.7874 158.083C64.993 158.403 65.1985 158.723 65.404 159.055H99.2002C85.6483 141.892 78.7761 118.599 78.7761 89.725C78.7761 69.6439 82.2315 51.8665 89.0652 36.8792C95.9118 21.8152 106.098 9.95082 119.329 1.61889C132.354 -6.57227 148.154 -10.8982 165.02 -10.8982C181.462 -10.8982 196.491 -6.68745 209.709 1.61889C222.94 9.93803 233.126 21.8024 239.973 36.8792C246.794 51.8921 250.262 69.6694 250.262 89.725C250.262 121.478 242.144 146.397 226.125 163.778C210.069 181.197 189.336 190.015 164.519 190.015H91.4416C96.2843 193.945 100.819 197.029 105.482 199.589C123.594 209.482 143.517 214.486 164.686 214.486C185.624 214.486 205.432 209.469 223.556 199.576C241.617 189.708 255.76 174.964 265.612 155.753C275.503 136.466 280.526 114.298 280.526 89.8786C280.538 65.753 275.786 43.8801 266.383 24.8997C256.967 5.98324 243.171 -8.97844 225.329 -19.5629ZM264.135 155.037C254.437 173.953 240.512 188.467 222.747 198.168C204.866 207.921 185.329 212.874 164.66 212.874C143.774 212.874 124.12 207.921 106.24 198.168C102.874 196.325 99.547 194.175 96.1302 191.628H164.493C189.786 191.628 210.917 182.618 227.294 164.866C243.595 147.178 251.855 121.901 251.855 89.725C251.855 69.4391 248.348 51.4313 241.424 36.2137C234.449 20.8553 224.057 8.74774 210.544 0.24942C197.069 -8.2233 181.745 -12.5237 164.994 -12.5237C147.82 -12.5237 131.725 -8.10812 118.443 0.24942C104.942 8.74774 94.5502 20.8425 87.5752 36.2009C80.6515 51.4057 77.1447 69.4007 77.1447 89.7122C77.1447 117.498 83.4646 140.254 95.9375 157.43H66.2904C66.239 157.353 66.1876 157.276 66.1362 157.2C65.6609 156.457 65.2113 155.753 64.8388 155.024C55.0635 135.967 50.1052 114.042 50.1052 89.8786C50.1052 66.0218 54.8194 44.3921 64.0938 25.6036C73.3296 6.95592 86.92 -7.77535 104.493 -18.1935C122.104 -28.6372 142.399 -33.9358 164.827 -33.9358C186.819 -33.9358 206.883 -28.6372 224.494 -18.1935C242.067 -7.78815 255.657 6.95592 264.893 25.6036C274.18 44.3665 278.881 65.9962 278.869 89.8786C278.869 114.068 273.91 135.979 264.135 155.037Z" fill="white"/>
</svg>
