<svg width="232" height="488" viewBox="0 0 232 488" fill="none" xmlns="http://www.w3.org/2000/svg">
<g opacity="0.6" filter="url(#filter0_f)">
<path d="M321.384 83.5317C294.83 67.8439 265.018 60 231.948 60C198.878 60 168.089 67.8439 141.535 83.5317C114.981 99.2195 94.7806 121.053 80.8521 149.113C66.9235 177.173 60 208.953 60 244.534C60 280.6 67.3308 312.784 81.9924 341.329C83.1328 343.513 84.5175 345.292 85.6578 347.394H141.29C119.868 322.65 108.872 288.444 108.872 244.372C108.872 215.423 113.759 190.193 123.615 168.602C133.471 147.011 147.888 130.272 166.867 118.385C185.845 106.497 208.571 100.594 232.192 100.594C255.814 100.594 277.073 106.497 296.052 118.385C315.03 130.272 329.448 147.011 339.303 168.602C349.159 190.193 354.047 215.423 354.047 244.372C354.047 290.142 342.48 325.399 319.51 350.306C296.459 375.212 267.136 387.665 231.459 387.665H118.483C126.384 394.539 134.856 400.846 144.304 405.941C171.184 420.577 200.67 427.855 231.704 427.855C262.819 427.855 291.816 420.496 318.696 405.941C345.575 391.304 366.346 369.794 381.008 341.329C395.669 312.865 403 280.6 403 244.534C403 208.953 396.076 177.173 382.148 149.113C368.138 121.053 347.938 99.2195 321.384 83.5317Z" fill="url(#paint0_linear)"/>
</g>
<defs>
<filter id="filter0_f" x="0" y="0" width="463" height="487.855" filterUnits="userSpaceOnUse" color-interpolation-filters="sRGB">
<feFlood flood-opacity="0" result="BackgroundImageFix"/>
<feBlend mode="normal" in="SourceGraphic" in2="BackgroundImageFix" result="shape"/>
<feGaussianBlur stdDeviation="30" result="effect1_foregroundBlur"/>
</filter>
<linearGradient id="paint0_linear" x1="403" y1="241.992" x2="60" y2="242.002" gradientUnits="userSpaceOnUse">
<stop stop-color="#165B9C"/>
<stop offset="1" stop-color="#55BB9A"/>
</linearGradient>
</defs>
</svg>
