<svg width="24" height="24" viewBox="0 0 24 24" fill="none" xmlns="http://www.w3.org/2000/svg">
<path d="M13.9998 8.99988C13.9998 8.17145 14.6714 7.49988 15.4998 7.49988C16.3282 7.49988 16.9998 8.17145 16.9998 8.99988C16.9998 9.82831 16.3282 10.4999 15.4998 10.4999C14.6714 10.4999 13.9998 9.82831 13.9998 8.99988Z" fill="#366EA5"/>
<path fill-rule="evenodd" clip-rule="evenodd" d="M7.26735 4.65843C10.4164 4.38469 13.5833 4.38469 16.7323 4.65843L18.2425 4.78971C19.6876 4.91533 20.8583 6.01497 21.074 7.44937C21.5276 10.4661 21.5276 13.5337 21.074 16.5504C20.8583 17.9848 19.6876 19.0844 18.2425 19.21L16.7323 19.3413C13.5833 19.6151 10.4164 19.6151 7.26735 19.3413L5.75712 19.21C4.31205 19.0844 3.14138 17.9848 2.92568 16.5504C2.47204 13.5337 2.47204 10.4661 2.92568 7.44936C3.14138 6.01497 4.31205 4.91533 5.75712 4.78971L7.26735 4.65843ZM16.6024 6.15279C13.5398 5.88657 10.4599 5.88657 7.39725 6.1528L5.88702 6.28408C5.13269 6.34965 4.5216 6.92367 4.409 7.67242C4.15147 9.38504 4.04767 11.1149 4.09762 12.8414L7.96948 8.96955C8.11554 8.82349 8.31537 8.74413 8.52184 8.7502C8.72831 8.75627 8.92314 8.84722 9.06037 9.00161L12.7318 13.132L15.2626 12.2884C15.5457 12.194 15.8577 12.2764 16.0573 12.4982L19.5764 16.4083C19.5818 16.3815 19.5866 16.3546 19.5906 16.3273C20.0221 13.4585 20.0221 10.5413 19.5907 7.67242C19.4781 6.92367 18.867 6.34965 18.1126 6.28408L16.6024 6.15279ZM18.62 17.5879L15.271 13.8667L12.737 14.7114C12.4524 14.8063 12.1386 14.7224 11.9393 14.4982L8.4677 10.5927L4.22401 14.8363C4.2728 15.3344 4.33446 15.8316 4.409 16.3273C4.5216 17.0761 5.13269 17.6501 5.88702 17.7157L7.39725 17.847C10.4599 18.1132 13.5398 18.1132 16.6024 17.847L18.1126 17.7157C18.2914 17.7001 18.4621 17.6561 18.62 17.5879Z" fill="#366EA5"/>
</svg>
