<svg width="165" height="255" viewBox="0 0 165 255" fill="none" xmlns="http://www.w3.org/2000/svg">
<path d="M85.2254 178.353C96.0608 166.804 104.42 153.394 110.095 138.431C116.442 121.71 119.666 102.648 119.666 81.7751C119.666 56.609 114.662 33.6672 104.781 13.5706C94.8096 -6.73301 80.1044 -22.7431 61.0651 -34.0329C42.1419 -45.284 20.5872 -51 -3.00553 -51C-26.3274 -51 -47.7273 -45.5038 -66.5989 -34.6666C-85.6124 -23.7518 -100.447 -7.67707 -110.689 13.1179C-120.853 33.719 -126 56.8676 -126 81.9303C-126 107.122 -120.879 130.103 -110.766 150.251C-100.563 170.581 -85.8059 186.591 -66.9085 197.816C-48.0498 209.015 -26.7789 214.705 -3.6634 214.705C8.6167 214.705 20.8581 212.985 32.7383 209.597L43.1996 206.61L34.0283 200.752C12.7832 187.186 -9.40356 178.676 -17.9558 175.663L-18.3298 175.534L-18.7168 175.456C-34.8925 172.533 -48.8108 164.865 -60.0719 152.67C-75.0092 136.478 -82.5811 112.683 -82.5811 81.9432C-82.5811 50.2334 -74.9447 26.2053 -59.8913 10.5315C-44.8894 -5.09063 -25.6953 -13.0181 -2.83784 -13.0181C12.422 -13.0181 26.3403 -9.09961 38.5559 -1.37907C50.7328 6.32853 60.1364 17.3339 66.5086 31.3265C72.9711 45.5908 76.2605 62.5578 76.2605 81.7622C76.2605 113.407 68.1339 137.81 52.1001 154.338C39.9361 144.846 24.8053 137.526 7.0817 132.56L2.60565 131.306L-7.99754 163.145L-3.71498 164.865C-1.28992 165.835 1.09644 166.792 3.5215 167.826L3.70209 167.904L3.89557 167.968C14.6278 171.499 25.5534 177.06 36.3888 184.496C38.5688 185.918 40.3747 187.237 41.7162 188.375L41.871 188.505L67.3599 206.894C78.7758 214.783 89.7402 221.21 99.9822 226.008L100.085 226.047C100.821 226.357 101.543 226.668 102.317 227.004C104.239 227.832 106.225 228.698 108.264 229.435L112.623 231L126 199.264L121.24 197.467C110.25 193.328 98.1376 186.901 85.2254 178.353ZM111.708 228.944L108.805 227.896C106.819 227.185 104.845 226.331 102.949 225.504C102.201 225.18 101.453 224.857 100.705 224.534L100.627 224.495C90.4883 219.749 79.6272 213.373 68.2758 205.536L42.8643 187.212L42.7611 187.121C41.355 185.918 39.5104 184.573 37.266 183.112C26.3274 175.585 15.2727 169.973 4.38576 166.391L4.25676 166.352L4.14066 166.3C1.7285 165.266 -0.670769 164.309 -3.10873 163.326L-5.97235 162.188L3.6505 133.297L6.64313 134.138C24.715 139.194 40.0393 146.721 52.2291 156.523C69.2561 139.673 77.8987 114.532 77.8987 81.7622C77.8987 62.338 74.5706 45.1381 68.0049 30.654C61.5037 16.351 51.8937 5.1129 39.4459 -2.76283C26.9724 -10.6515 12.7445 -14.6605 -2.81204 -14.6605C-26.121 -14.6605 -45.715 -6.56488 -61.0393 9.38055C-76.4023 25.3777 -84.1806 49.7808 -84.1806 81.9303C-84.1806 113.097 -76.4668 137.254 -61.2328 153.769C-49.7267 166.235 -35.5117 174.072 -18.9748 177.047L-18.7168 177.098L-18.4717 177.189C-9.97113 180.189 12.0737 188.647 33.1769 202.122L39.2912 206.028L32.3127 208.019C20.5743 211.369 8.47481 213.063 -3.65049 213.063C-26.4693 213.063 -47.4564 207.463 -66.0571 196.406C-84.6837 185.336 -99.234 169.559 -109.283 149.514C-119.279 129.598 -124.336 106.851 -124.336 81.9303C-124.336 57.1133 -119.241 34.2104 -109.192 13.8421C-99.0921 -6.65543 -84.4773 -22.4974 -65.7475 -33.2441C-47.1726 -43.939 -26.0436 -49.3576 -3.00553 -49.3576C20.2776 -49.3576 41.5614 -43.7321 60.2267 -32.6233C78.9822 -21.5016 93.481 -5.71137 103.31 14.2948C113.075 34.1587 118.028 56.8547 118.028 81.7751C118.028 102.454 114.842 121.322 108.573 137.849C102.743 153.213 94.0356 166.934 82.6972 178.625C96.3317 187.781 109.102 194.635 120.647 198.993L123.82 200.195L111.708 228.944Z" fill="white"/>
<path d="M80.1561 178.883C92.0105 167.037 101.053 153.045 107.051 137.267C113.256 120.921 116.403 102.247 116.403 81.7752C116.403 57.1134 111.501 34.6631 101.853 15.0191C92.1653 -4.70258 77.8858 -20.26 59.4012 -31.2136C40.981 -42.1672 19.9939 -47.7152 -3.00548 -47.7152C-25.7598 -47.7152 -46.605 -42.3612 -64.9735 -31.8085C-83.4066 -21.2299 -97.8022 -5.62075 -107.76 14.5923C-117.693 34.7278 -122.724 57.385 -122.724 81.9563C-122.724 106.631 -117.719 129.12 -107.838 148.816C-97.9183 168.576 -83.5872 184.134 -65.2315 195.049C-46.8888 205.95 -26.1726 211.485 -3.65044 211.485C8.32007 211.485 20.2648 209.804 31.8612 206.506L35.344 205.511L32.2869 203.558C11.3385 190.173 -10.5773 181.78 -19.0264 178.793L-19.1554 178.754L-19.2843 178.728C-36.1824 175.676 -50.707 167.684 -62.4582 154.946C-77.976 138.134 -85.8316 113.588 -85.8316 81.995C-85.8316 49.4058 -77.8857 24.6148 -62.226 8.30723C-46.5792 -7.98737 -26.5982 -16.2381 -2.82489 -16.2381C13.0541 -16.2381 27.5658 -12.1515 40.3102 -4.09476C41.11 -3.59041 41.884 -3.0731 42.6579 -2.54288C52.3582 4.11721 60.2525 12.8852 66.212 23.5802C67.3729 25.6623 68.4693 27.7961 69.4755 30.0204C72.0166 35.633 74.0805 41.6336 75.6542 48.0092C78.2212 58.342 79.5111 69.6448 79.5111 81.8011C79.5111 112.515 71.9909 136.647 57.1567 153.678C55.6217 155.437 54.0093 157.131 52.3195 158.735C40.1297 148.622 24.6247 140.888 6.20459 135.741L4.70828 135.328L-3.93423 161.282L-2.50241 161.852C-0.812607 162.524 0.864304 163.209 2.5412 163.908C3.28937 164.218 4.02461 164.516 4.77277 164.839L4.90178 164.891C10.9902 166.895 17.1174 169.52 23.2445 172.74C23.3606 172.805 23.4896 172.87 23.6057 172.934C23.6315 172.947 23.6573 172.96 23.6831 172.973C28.5203 175.547 33.3447 178.482 38.1561 181.78C40.4521 183.28 42.3612 184.677 43.8188 185.918L43.8705 185.957L69.2046 204.23C79.0338 211.02 88.5019 216.697 97.4024 221.159C97.4282 221.172 97.454 221.185 97.4798 221.198C98.7568 221.831 100.021 222.452 101.272 223.034L101.337 223.06C102.098 223.383 102.846 223.706 103.607 224.03C105.477 224.844 107.425 225.685 109.36 226.383L110.818 226.901L121.679 201.14L120.092 200.545C107.941 195.941 94.513 188.673 80.1561 178.883ZM119.499 202.071L110.134 224.301L109.915 224.831L109.902 224.857L108.522 224.314C108.496 224.301 108.457 224.288 108.431 224.275H108.418C108.418 224.275 108.405 224.275 108.405 224.262C108.302 224.224 108.212 224.185 108.109 224.146C107.928 224.068 107.748 224.004 107.567 223.926C107.206 223.771 106.832 223.629 106.471 223.474C106.342 223.422 106.213 223.37 106.084 223.305C105.993 223.267 105.89 223.228 105.8 223.189C105.271 222.969 104.755 222.736 104.239 222.517C103.478 222.193 102.717 221.857 101.982 221.547L101.956 221.534C101.337 221.236 100.705 220.939 100.085 220.641C91.9073 216.684 83.3035 211.692 74.2611 205.666C72.8938 204.761 71.5265 203.83 70.1462 202.873L70.1204 202.847L44.8766 184.625C44.7476 184.522 44.6186 184.405 44.4896 184.302C44.4638 184.276 44.438 184.25 44.3993 184.237C44.3606 184.198 44.3219 184.173 44.2703 184.134C44.1413 184.017 43.9994 183.914 43.8575 183.798C43.793 183.746 43.7415 183.707 43.677 183.655C43.6641 183.642 43.6512 183.642 43.6512 183.629C43.5093 183.526 43.3674 183.41 43.2255 183.306C43.1352 183.241 43.0578 183.177 42.9675 183.112C42.8385 183.009 42.6966 182.918 42.5676 182.815C42.4644 182.737 42.3612 182.659 42.2451 182.582C42.129 182.491 42 182.401 41.8839 182.323C41.7549 182.233 41.626 182.142 41.497 182.039C41.3938 181.961 41.2777 181.884 41.1745 181.806C41.0197 181.702 40.8778 181.599 40.723 181.483C40.5811 181.379 40.4263 181.289 40.2844 181.185C40.1684 181.108 40.0394 181.017 39.9233 180.939C39.6524 180.758 39.3686 180.577 39.0848 180.383C39.0719 180.37 39.059 180.37 39.059 180.358C38.298 179.827 37.5369 179.323 36.7758 178.819C36.4663 178.612 36.1438 178.405 35.8342 178.198C35.3956 177.913 34.9699 177.629 34.5314 177.357C34.1573 177.112 33.7703 176.879 33.3962 176.633C33.0351 176.413 32.6868 176.18 32.3256 175.973C31.9128 175.715 31.5 175.469 31.0873 175.223C30.7777 175.042 30.4681 174.848 30.1585 174.667C29.72 174.409 29.2814 174.15 28.8299 173.891C28.559 173.736 28.301 173.581 28.0302 173.439C27.5658 173.167 27.0885 172.909 26.6241 172.65C26.4048 172.534 26.1855 172.417 25.9663 172.288C25.4632 172.016 24.9472 171.732 24.4442 171.46C24.2765 171.37 24.1217 171.292 23.954 171.201C23.3993 170.917 22.8447 170.62 22.29 170.335C22.1739 170.283 22.0578 170.219 21.9546 170.167C21.3612 169.869 20.7679 169.572 20.1745 169.288C20.0713 169.236 19.9681 169.184 19.8649 169.132C19.2715 168.848 18.6782 168.563 18.0977 168.292C17.9558 168.227 17.8139 168.162 17.672 168.098C17.1303 167.852 16.5756 167.593 16.0338 167.361C15.8532 167.283 15.6855 167.205 15.505 167.128C15.3631 167.063 15.2341 167.011 15.0922 166.947C14.731 166.792 14.3569 166.624 13.9957 166.468C13.7894 166.378 13.583 166.3 13.3895 166.21C13.1186 166.093 12.8477 165.99 12.5768 165.873C12.3833 165.796 12.177 165.705 11.9835 165.628C11.7642 165.537 11.5449 165.46 11.3256 165.369C10.9386 165.214 10.5516 165.072 10.1647 164.916C10.1131 164.891 10.0486 164.878 9.99698 164.852C9.77769 164.761 9.5455 164.684 9.32622 164.606C8.87474 164.438 8.41037 164.27 7.95889 164.115C7.7654 164.05 7.55902 163.972 7.36552 163.908C6.82376 163.714 6.28198 163.533 5.74022 163.352C5.66283 163.326 5.58542 163.3 5.50803 163.274C5.46933 163.261 5.44354 163.248 5.40485 163.235C4.20522 162.731 3.01848 162.227 1.81884 161.748C1.75434 161.722 1.68986 161.696 1.62536 161.67C0.554718 161.231 -0.528824 160.804 -1.62526 160.364C-1.71555 160.326 -1.81875 160.287 -1.90904 160.248L5.75311 137.229L7.26233 137.668C7.57191 137.759 7.86861 137.849 8.16528 137.94C8.48776 138.03 8.82314 138.134 9.14563 138.224C9.42941 138.315 9.7132 138.405 10.0099 138.496C10.4872 138.651 10.9644 138.793 11.4417 138.949C11.7255 139.039 12.0093 139.13 12.2801 139.22C12.3317 139.233 12.3833 139.246 12.4349 139.272C12.7832 139.388 13.1186 139.505 13.4669 139.621C13.8281 139.737 14.1892 139.867 14.5375 139.983C15.3244 140.255 16.0983 140.526 16.8723 140.811C17.0916 140.888 17.298 140.966 17.5173 141.044C18.4202 141.38 19.3102 141.716 20.1874 142.052C20.2519 142.078 20.3164 142.104 20.3938 142.13C28.0946 145.156 35.1248 148.699 41.4712 152.786C41.5615 152.838 41.6518 152.902 41.7292 152.954C42.4257 153.407 43.1223 153.859 43.7931 154.325C43.9866 154.454 44.18 154.597 44.3864 154.726C44.9669 155.127 45.5345 155.528 46.0891 155.941C46.3858 156.148 46.6696 156.368 46.9663 156.575C47.2243 156.769 47.4823 156.95 47.7402 157.144C47.8305 157.209 47.9079 157.273 47.9982 157.338C48.1272 157.429 48.2433 157.532 48.3594 157.623C48.7206 157.907 49.0947 158.192 49.4558 158.476C49.6622 158.631 49.8686 158.787 50.0621 158.955C50.2685 159.11 50.4491 159.278 50.6555 159.446C50.849 159.601 51.0553 159.756 51.2488 159.925L52.3453 160.843C52.8225 160.416 53.274 159.976 53.7384 159.524C54.0351 159.239 54.3189 158.955 54.6155 158.67C54.8993 158.399 55.1702 158.114 55.4411 157.843C55.7249 157.545 56.0087 157.248 56.2924 156.95C56.5633 156.666 56.8213 156.381 57.0922 156.097C57.376 155.799 57.6469 155.489 57.9178 155.178C58.1757 154.894 58.4337 154.597 58.6788 154.299C58.9497 153.989 59.2206 153.665 59.4915 153.342C59.7366 153.045 59.9816 152.747 60.2138 152.45C60.4847 152.126 60.7427 151.79 61.0007 151.454C61.2329 151.157 61.465 150.859 61.6972 150.562C61.9552 150.225 62.2132 149.876 62.4712 149.527C62.6905 149.23 62.9098 148.919 63.129 148.622C63.387 148.273 63.6321 147.911 63.8772 147.548C64.0836 147.238 64.29 146.941 64.4964 146.63C64.7415 146.255 64.9865 145.893 65.2316 145.518C65.4251 145.208 65.6186 144.897 65.825 144.587C66.0701 144.199 66.3023 143.824 66.5345 143.423C66.715 143.113 66.9085 142.802 67.0891 142.492C67.3213 142.091 67.5535 141.69 67.7728 141.289C67.9534 140.979 68.1211 140.656 68.2888 140.345C68.508 139.931 68.7402 139.518 68.9466 139.104C69.1143 138.78 69.282 138.47 69.4368 138.147C69.6561 137.72 69.8625 137.293 70.0688 136.866C70.2236 136.543 70.3784 136.22 70.5332 135.897C70.7396 135.457 70.946 135.03 71.1395 134.577C71.2814 134.254 71.4362 133.918 71.5781 133.595C71.7716 133.142 71.965 132.702 72.1585 132.25C72.3004 131.913 72.4294 131.577 72.5713 131.241C72.7519 130.788 72.9454 130.323 73.126 129.857C73.255 129.521 73.384 129.172 73.513 128.836C73.6935 128.37 73.8613 127.892 74.0289 127.426C74.1579 127.077 74.274 126.728 74.3901 126.378C74.5578 125.9 74.7255 125.421 74.8803 124.943C74.9964 124.594 75.1125 124.232 75.2157 123.87C75.3705 123.378 75.5253 122.9 75.68 122.408C75.7832 122.046 75.8993 121.671 76.0025 121.309C76.1444 120.818 76.2863 120.326 76.4282 119.822C76.5314 119.447 76.6346 119.059 76.7249 118.684C76.8539 118.192 76.9829 117.688 77.1119 117.184C77.2151 116.796 77.3053 116.395 77.3956 116.007C77.5117 115.502 77.6407 115.011 77.7439 114.507C77.8342 114.106 77.9245 113.692 78.0019 113.278C78.1051 112.774 78.2212 112.282 78.3115 111.778C78.4018 111.351 78.4792 110.924 78.5566 110.498C78.6469 110.006 78.7501 109.502 78.8404 108.998C78.9178 108.545 78.9951 108.092 79.0725 107.64C79.1499 107.148 79.2402 106.657 79.3176 106.165C79.395 105.687 79.4595 105.208 79.524 104.73C79.5885 104.251 79.6659 103.773 79.7304 103.281C79.7949 102.777 79.8594 102.26 79.9239 101.755C79.9755 101.29 80.04 100.824 80.0916 100.359C80.1561 99.8156 80.2077 99.2595 80.2593 98.7034C80.298 98.2638 80.3496 97.8241 80.3883 97.3844C80.4399 96.7766 80.4915 96.1687 80.543 95.5609C80.5817 95.16 80.6075 94.7591 80.6462 94.3582C80.6978 93.6728 80.7366 92.9745 80.7753 92.2891C80.801 91.9529 80.8139 91.6166 80.8398 91.2804C80.8784 90.4786 80.9171 89.6638 80.9429 88.8362C80.9558 88.6034 80.9687 88.3835 80.9687 88.1508C81.0461 86.0428 81.0848 83.8961 81.0848 81.7105C81.0848 66.7868 79.1628 53.1303 75.3447 40.9352C74.0676 36.8745 72.5971 32.969 70.9073 29.2445C69.9528 27.1366 68.9208 25.1062 67.8373 23.1405C61.2974 11.2558 52.4485 1.68592 41.4583 -5.36214C41.3422 -5.43973 41.239 -5.50437 41.1229 -5.58196C41.0455 -5.63369 40.9681 -5.67251 40.8907 -5.72424C28.0301 -13.8069 13.4153 -17.9193 -2.55401 -17.984C-2.6572 -17.984 -2.77329 -17.984 -2.87649 -17.984C-3.04418 -17.984 -3.21186 -17.984 -3.39246 -17.984C-27.2045 -17.8676 -47.2887 -9.56511 -63.0773 6.67776C-63.2063 6.80708 -63.3224 6.92348 -63.4514 7.0528C-63.5546 7.16919 -63.6578 7.27266 -63.761 7.38905C-79.511 24.007 -87.5085 49.0696 -87.5085 81.8657C-87.5085 113.873 -79.4981 138.793 -63.6965 155.916C-62.9484 156.73 -62.1873 157.519 -61.4133 158.295C-61.0006 158.709 -60.5749 159.11 -60.1492 159.524C-59.788 159.873 -59.4398 160.222 -59.0657 160.558C-58.5884 160.998 -58.1111 161.412 -57.6339 161.839C-57.3114 162.123 -56.9889 162.421 -56.6535 162.705C-56.1246 163.158 -55.5829 163.584 -55.054 164.024C-54.7573 164.257 -54.4735 164.503 -54.1769 164.735C-53.6222 165.175 -53.0675 165.589 -52.5 166.003C-52.2162 166.223 -51.9324 166.442 -51.6357 166.649C-51.0681 167.063 -50.4877 167.451 -49.9201 167.839C-49.6234 168.046 -49.3396 168.253 -49.0301 168.46C-48.4496 168.848 -47.8562 169.21 -47.2628 169.585C-46.9662 169.779 -46.6695 169.973 -46.3599 170.154C-45.7665 170.516 -45.1603 170.852 -44.5669 171.189C-44.2573 171.37 -43.9477 171.551 -43.6382 171.732C-43.0448 172.068 -42.4256 172.365 -41.8194 172.689C-41.4969 172.857 -41.1744 173.038 -40.8519 173.193C-40.2457 173.49 -39.6265 173.775 -39.0202 174.06C-38.6848 174.215 -38.3495 174.383 -38.0012 174.538C-37.4078 174.81 -36.8015 175.055 -36.1953 175.301C-35.8341 175.456 -35.46 175.611 -35.0988 175.767C-34.5055 175.999 -33.9121 176.219 -33.3058 176.439C-32.906 176.581 -32.519 176.736 -32.1191 176.879C-31.5387 177.086 -30.9453 177.267 -30.3648 177.461C-29.9391 177.603 -29.5264 177.745 -29.1007 177.875C-28.5331 178.043 -27.9656 178.198 -27.398 178.366C-26.9336 178.495 -26.4692 178.638 -26.0049 178.767C-25.4631 178.909 -24.9213 179.025 -24.3796 179.168C-23.8765 179.284 -23.3734 179.426 -22.8574 179.53C-22.3415 179.646 -21.8255 179.737 -21.2966 179.84C-20.7291 179.957 -20.1615 180.073 -19.5939 180.176C-19.581 180.176 -19.5681 180.189 -19.5552 180.189L-19.4649 180.228C-19.2457 180.306 -19.0135 180.383 -18.7813 180.474C-18.7684 180.474 -18.7684 180.474 -18.7555 180.487C-18.6523 180.526 -18.5491 180.564 -18.4459 180.603C-18.3556 180.642 -18.2524 180.668 -18.1621 180.707C-18.0847 180.733 -18.0202 180.758 -17.9557 180.784C-17.7751 180.849 -17.5945 180.914 -17.4011 180.991C-17.2334 181.056 -17.0657 181.108 -16.9109 181.172C-16.769 181.224 -16.6271 181.276 -16.4852 181.327C-15.995 181.508 -15.492 181.702 -14.976 181.896C-14.8728 181.935 -14.7696 181.974 -14.6664 182.013C-14.3826 182.116 -14.0988 182.233 -13.8022 182.349C-13.6603 182.401 -13.5184 182.453 -13.3765 182.517C-13.1056 182.621 -12.8476 182.724 -12.5767 182.828C-12.3703 182.905 -12.1639 182.983 -11.9576 183.073C-11.7383 183.151 -11.5319 183.241 -11.3126 183.332C-10.9772 183.461 -10.6418 183.603 -10.2936 183.733C-10.2033 183.772 -10.113 183.81 -10.0098 183.849C-3.16027 186.604 5.76602 190.496 15.2986 195.514C15.8403 195.799 16.3692 196.083 16.911 196.368C17.0142 196.419 17.1174 196.484 17.2206 196.536C17.6849 196.781 18.1493 197.04 18.6137 197.286C18.7943 197.389 18.9749 197.48 19.1684 197.583C19.5682 197.803 19.981 198.036 20.3809 198.256C20.626 198.398 20.8711 198.527 21.1161 198.67C21.4773 198.876 21.8385 199.07 22.1997 199.277C22.4964 199.445 22.7802 199.614 23.0768 199.782C23.3993 199.963 23.7218 200.157 24.0443 200.338C24.3797 200.532 24.7021 200.726 25.0375 200.92C25.3342 201.088 25.6309 201.269 25.9276 201.45C26.2758 201.657 26.6241 201.864 26.9724 202.084C27.2562 202.252 27.54 202.433 27.8238 202.601C27.8625 202.627 27.9012 202.653 27.9398 202.666C27.9785 202.691 28.0043 202.704 28.043 202.73C28.1075 202.769 28.1591 202.795 28.2236 202.834L31.5258 204.864L27.7722 205.821C27.7335 205.834 27.6819 205.847 27.6432 205.847C26.4306 206.157 25.2181 206.442 23.9927 206.713C23.9411 206.726 23.8895 206.739 23.8379 206.752C17.5173 208.149 11.016 209.093 4.3342 209.507C4.2955 209.507 4.25681 209.507 4.20522 209.52C2.95398 209.597 1.70275 209.662 0.451523 209.701C0.322533 209.701 0.193542 209.701 0.0645523 209.714C-0.425621 209.727 -0.915794 209.74 -1.41887 209.752C-2.15413 209.765 -2.90228 209.778 -3.63754 209.778H-3.66335C-25.992 209.778 -46.2309 204.373 -64.3931 193.574C-82.0522 183.086 -95.7512 168.434 -105.516 149.656C-105.8 149.113 -106.096 148.57 -106.367 148.027C-106.638 147.497 -106.883 146.954 -107.141 146.41C-116.222 127.659 -120.853 106.683 -121.06 83.4435C-121.06 82.9262 -121.085 82.4218 -121.085 81.9045C-121.085 81.3743 -121.072 80.857 -121.06 80.3268C-120.853 56.9841 -116.106 35.6589 -106.793 16.3511C-106.625 15.989 -106.458 15.6269 -106.277 15.2648C-106.083 14.8768 -105.89 14.5147 -105.697 14.1267C-96.1382 -4.78018 -82.7616 -19.3419 -65.5927 -29.5713C-65.1025 -29.8558 -64.6253 -30.1661 -64.1351 -30.4377C-63.5933 -30.7481 -63.0515 -31.0326 -62.4969 -31.343C-44.8636 -41.1068 -25.2438 -46.021 -3.63754 -46.1245C-3.41825 -46.1245 -3.19897 -46.1374 -2.97968 -46.1374C-2.73459 -46.1374 -2.4895 -46.1245 -2.24442 -46.1245C20.2261 -46.0081 40.5296 -40.6024 58.5885 -29.8558C76.7507 -19.0832 90.5916 -4.04302 100.176 15.2389C100.253 15.3941 100.331 15.5493 100.408 15.7045C100.511 15.9114 100.601 16.1312 100.705 16.3381C110.095 35.6847 114.791 57.4885 114.791 81.7364C114.791 101.393 111.914 119.149 106.148 134.991C105.942 135.547 105.748 136.103 105.542 136.66C105.168 137.642 104.781 138.625 104.381 139.595C104.11 140.242 103.839 140.875 103.568 141.522C103.439 141.832 103.31 142.143 103.168 142.453C102.756 143.384 102.343 144.302 101.917 145.208C101.917 145.208 101.917 145.221 101.904 145.221C97.97 153.562 93.1327 161.283 87.3797 168.408C87.3023 168.499 87.2378 168.589 87.1604 168.68C86.6315 169.339 86.0768 169.986 85.5351 170.632C85.3803 170.826 85.2126 171.008 85.0449 171.201C84.5676 171.758 84.0904 172.301 83.6002 172.844C83.3422 173.128 83.0971 173.413 82.8391 173.684C82.4263 174.137 82.0136 174.59 81.5879 175.042C81.2525 175.404 80.9171 175.754 80.5688 176.103C80.2077 176.478 79.8336 176.866 79.4595 177.241C79.3047 177.396 79.1628 177.551 79.021 177.693L77.6278 179.09C78.3889 179.62 79.1628 180.138 79.9239 180.655C80.3238 180.927 80.7237 181.198 81.1235 181.457C81.2525 181.547 81.3815 181.625 81.5105 181.715C81.8588 181.948 82.22 182.194 82.5682 182.427C82.981 182.698 83.3938 182.97 83.8066 183.241C84.258 183.539 84.7095 183.836 85.1739 184.121C85.6125 184.405 86.0381 184.677 86.4767 184.948C86.9282 185.233 87.3797 185.517 87.8311 185.802C88.2568 186.074 88.6825 186.332 89.1082 186.604C89.5596 186.888 90.0111 187.16 90.4497 187.431C90.8754 187.69 91.2881 187.936 91.7138 188.194C92.1653 188.466 92.6039 188.738 93.0553 188.996C93.4681 189.242 93.8809 189.488 94.2937 189.72C94.7322 189.979 95.1837 190.238 95.6223 190.496C96.0351 190.729 96.4478 190.962 96.8477 191.195C97.2863 191.44 97.7249 191.699 98.1635 191.945C98.5762 192.178 98.9761 192.397 99.376 192.617C99.8146 192.85 100.253 193.096 100.679 193.329C101.079 193.548 101.491 193.755 101.891 193.975C102.317 194.208 102.756 194.428 103.181 194.648C103.581 194.855 103.981 195.061 104.381 195.268C104.807 195.488 105.219 195.695 105.645 195.902C106.045 196.109 106.445 196.303 106.845 196.497C107.257 196.704 107.67 196.898 108.083 197.105C108.483 197.299 108.883 197.48 109.283 197.674C109.682 197.868 110.095 198.062 110.495 198.243C110.895 198.424 111.295 198.605 111.695 198.786C112.095 198.967 112.495 199.148 112.882 199.316C113.281 199.497 113.681 199.665 114.081 199.833C114.468 200.002 114.855 200.17 115.229 200.325C115.281 200.351 115.332 200.364 115.384 200.39C115.732 200.532 116.081 200.674 116.429 200.816C116.79 200.971 117.164 201.114 117.525 201.256C118.132 201.502 118.738 201.734 119.344 201.967C119.396 202.019 119.447 202.032 119.499 202.071C119.499 202.058 119.499 202.058 119.499 202.071Z" fill="white"/>
<path d="M75.0351 179.323L76.4669 177.94C88.6825 166.145 97.9442 152.062 104.007 136.117C110.07 120.145 113.152 101.872 113.152 81.7885C113.152 57.6311 108.367 35.6592 98.9375 16.4808C89.5339 -2.65893 75.6801 -17.7509 57.7501 -28.3941C39.8459 -39.0373 19.4006 -44.443 -2.99253 -44.443C-25.1664 -44.443 -45.4698 -39.2312 -63.3353 -28.976C-81.2008 -18.7207 -95.1578 -3.57713 -104.819 16.0281C-114.532 35.711 -119.447 57.8897 -119.447 81.9437C-119.447 106.101 -114.558 128.099 -104.91 147.329C-95.2739 166.52 -81.3684 181.625 -63.5546 192.217C-45.7149 202.821 -25.5533 208.188 -3.63749 208.188C6.798 208.188 17.2206 206.882 27.3852 204.295C7.81706 192.307 -11.9704 184.716 -19.968 181.871C-37.5239 178.677 -52.616 170.348 -64.8187 157.119C-80.9041 139.673 -89.0564 114.391 -89.0564 81.9566C-89.0564 48.5009 -80.8138 22.9469 -64.5349 6.00565C-48.256 -10.9485 -27.4753 -19.5484 -2.78615 -19.5484C13.7249 -19.5484 28.817 -15.2937 42.0904 -6.90072C55.3508 1.49229 65.58 13.4546 72.494 28.637C79.3435 43.7677 82.8263 61.6401 82.8263 81.7755C82.8263 117.274 72.9712 144.303 53.5191 162.098L52.4614 163.068L51.365 162.136C39.704 152.153 24.7409 144.471 6.8625 139.285L0.180687 159.356C2.14137 160.145 4.07626 160.934 6.03696 161.761C17.3367 165.486 28.7784 171.292 40.0265 179.026C42.3871 180.565 44.3865 182.026 45.9473 183.345L71.1395 201.528C82.22 209.184 92.849 215.417 102.691 220.034C103.452 220.357 104.2 220.681 104.961 221.004C106.316 221.586 107.709 222.194 109.076 222.737L117.409 202.976C104.987 198.101 91.314 190.523 76.7378 180.448L75.0351 179.323ZM108.135 220.629C107.27 220.267 106.393 219.892 105.542 219.517L105.452 219.478C104.729 219.167 104.007 218.857 103.285 218.547C93.5327 213.969 83.0069 207.8 72.0296 200.209L46.8889 182.065C45.2894 180.707 43.2642 179.233 40.8908 177.681C29.5394 169.87 17.9817 163.999 6.55293 160.235C5.03081 159.589 3.5345 158.968 2.15427 158.412L7.85574 141.29C24.8312 146.398 39.0978 153.821 50.2427 163.365L52.4356 165.24L54.564 163.3C74.3643 145.182 84.4 117.753 84.4 81.7626C84.4 61.3944 80.8785 43.2892 73.9258 27.9516C66.8828 12.4718 56.4473 0.276691 42.9159 -8.28444C29.3846 -16.8456 13.9958 -21.1908 -2.82484 -21.1908C-27.9784 -21.1908 -49.1461 -12.4227 -65.7474 4.8547C-82.323 22.1063 -90.7204 48.0354 -90.7204 81.9437C-90.7204 114.804 -82.4133 140.462 -66.0441 158.218C-53.6221 171.68 -38.2591 180.177 -20.4194 183.449C-13.1572 186.035 4.77283 192.889 23.0769 203.623C14.2796 205.563 5.3017 206.546 -3.6633 206.546C-25.2954 206.546 -45.1731 201.243 -62.7548 190.807C-80.2978 180.384 -93.9968 165.512 -103.491 146.592C-113.01 127.581 -117.848 105.829 -117.848 81.9307C-117.848 58.1354 -112.985 36.2024 -103.387 16.7394C-93.8678 -2.58136 -80.1301 -17.4793 -62.5484 -27.5793C-44.928 -37.7053 -24.8955 -42.8393 -3.00543 -42.8393C19.091 -42.8393 39.2526 -37.5113 56.9117 -27.0233C74.5578 -16.5482 88.2053 -1.68901 97.4669 17.1662C106.793 36.1248 111.514 57.8509 111.514 81.7497C111.514 101.627 108.47 119.719 102.485 135.496C96.5124 151.222 87.3797 165.098 75.3447 176.724L72.4682 179.504L75.7575 181.78C89.8177 191.505 103.078 198.916 115.203 203.856L108.135 220.629Z" fill="white"/>
</svg>
