<svg width="110" height="130" viewBox="0 0 110 130" fill="none" xmlns="http://www.w3.org/2000/svg">
<path d="M56.817 78.902C64.0405 71.203 69.613 62.2625 73.3968 52.2874C77.6278 41.1399 79.7776 28.4318 79.7776 14.5167C79.7776 -2.26067 76.441 -17.5552 69.8538 -30.9529C63.2064 -44.4887 53.403 -55.1621 40.7101 -62.6886C28.0946 -70.1893 13.7248 -74 -2.00368 -74C-17.5516 -74 -31.8182 -70.3359 -44.3993 -63.1111C-57.0749 -55.8346 -66.9644 -45.118 -73.7924 -31.2547C-80.5688 -17.5207 -84 -2.08824 -84 14.6202C-84 31.4148 -80.586 46.7352 -73.844 60.1675C-67.0418 73.7205 -57.2039 84.3939 -44.6057 91.8773C-32.0332 99.3435 -17.8526 103.137 -2.44227 103.137C5.74447 103.137 13.9054 101.99 21.8255 99.7315L28.7998 97.7399L22.6855 93.8344C8.52211 84.7904 -6.26904 79.1175 -11.9705 77.1087L-12.2199 77.0225L-12.4779 76.9707C-23.2617 75.0223 -32.5405 69.9098 -40.0479 61.7797C-50.0061 50.9856 -55.0541 35.1221 -55.0541 14.6288C-55.0541 -6.51105 -49.9631 -22.5298 -39.9275 -32.979C-29.9263 -43.3938 -17.1302 -48.6787 -1.89189 -48.6787C8.28133 -48.6787 17.5602 -46.0664 25.7039 -40.9194C33.8219 -35.781 40.0909 -28.4441 44.3391 -19.1156C48.6474 -9.60615 50.8403 1.70523 50.8403 14.5081C50.8403 35.6049 45.4226 51.8736 34.7334 62.8919C26.6241 56.5637 16.5368 51.684 4.72113 48.3733L1.7371 47.537L-5.3317 68.7631L-2.47665 69.9098C-0.859947 70.5564 0.730957 71.1944 2.34766 71.8841L2.46806 71.9358L2.59705 71.9789C9.75184 74.3326 17.0356 78.0398 24.2592 82.9972C25.7125 83.9455 26.9165 84.8249 27.8108 85.5836L27.914 85.6698L44.9066 97.9296C52.5172 103.189 59.8268 107.474 66.6548 110.672L66.7236 110.698C67.2138 110.905 67.6953 111.112 68.2113 111.336C69.4926 111.888 70.817 112.465 72.1757 112.957L75.0823 114L84 92.8429L80.8268 91.6445C73.5 88.8856 65.4251 84.6008 56.817 78.902ZM74.4717 112.629L72.5368 111.931C71.2125 111.457 69.8968 110.888 68.6327 110.336C68.1339 110.12 67.6351 109.905 67.1364 109.689L67.0848 109.663C60.3255 106.499 53.0848 102.249 45.5172 97.0243L28.5762 84.8077L28.5074 84.7473C27.57 83.9455 26.3403 83.0489 24.844 82.0747C17.5516 77.057 10.1818 73.3152 2.92384 70.9271L2.83784 70.9012L2.76044 70.8668C1.15233 70.177 -0.447182 69.539 -2.07249 68.8838L-3.98158 68.1251L2.43366 48.8647L4.42875 49.4251C16.4767 52.7961 26.6929 57.8138 34.8194 64.3489C46.1708 53.1151 51.9324 36.355 51.9324 14.5081C51.9324 1.55867 49.7137 -9.90792 45.3366 -19.564C41.0024 -29.0993 34.5958 -36.5914 26.2973 -41.8419C17.9816 -47.101 8.49632 -49.7737 -1.87469 -49.7737C-17.414 -49.7737 -30.4767 -44.3766 -40.6929 -33.7463C-50.9349 -23.0815 -56.1204 -6.81281 -56.1204 14.6202C-56.1204 35.398 -50.9779 51.5029 -40.8219 62.5125C-33.1511 70.8236 -23.6744 76.0483 -12.6499 78.0312L-12.4779 78.0657L-12.3145 78.126C-6.64742 80.1262 8.04914 85.7647 22.1179 94.7482L26.1941 97.3519L21.5418 98.6796C13.7162 100.913 5.64987 102.042 -2.43366 102.042C-17.6462 102.042 -31.6376 98.3089 -44.0381 90.9376C-56.4558 83.5576 -66.156 73.0394 -72.855 59.6761C-79.5197 46.399 -82.8907 31.2338 -82.8907 14.6202C-82.8907 -1.92443 -79.4939 -17.1931 -72.7948 -30.7719C-66.0614 -44.437 -56.3182 -54.9983 -43.8317 -62.1627C-31.4484 -69.2927 -17.3624 -72.9051 -2.00368 -72.9051C13.5184 -72.9051 27.7076 -69.1547 40.1511 -61.7489C52.6548 -54.3344 62.3206 -43.8076 68.8735 -30.4701C75.3833 -17.2276 78.6855 -2.09686 78.6855 14.5167C78.6855 28.3025 76.5614 40.8812 72.3821 51.8995C68.4951 62.1418 62.6904 71.2892 55.1314 79.083C64.2211 85.187 72.7346 89.7564 80.4312 92.6619L82.5467 93.4637L74.4717 112.629Z" fill="white"/>
<path d="M53.4374 79.2555C61.3403 71.3582 67.3686 62.0298 71.3674 51.5116C75.5037 40.614 77.602 28.1646 77.602 14.5168C77.602 -1.92438 74.3342 -16.8913 67.9017 -29.9873C61.4435 -43.1351 51.9239 -53.5067 39.6008 -60.8091C27.3207 -68.1115 13.3293 -71.8101 -2.00365 -71.8101C-17.1732 -71.8101 -31.07 -68.2408 -43.3157 -61.2057C-55.6044 -54.1533 -65.2014 -43.7472 -71.8403 -30.2718C-78.4619 -16.8481 -81.8157 -1.74331 -81.8157 14.6375C-81.8157 31.0873 -78.4791 46.08 -71.8919 59.2105C-65.2788 72.3842 -55.7248 82.7558 -43.4877 90.0323C-31.2592 97.3002 -17.4484 100.99 -2.43363 100.99C5.54671 100.99 13.5099 99.8695 21.2408 97.671L23.5627 97.0071L21.5246 95.7053C7.559 86.7821 -7.05157 81.1867 -12.6842 79.1952L-12.7702 79.1693L-12.8562 79.152C-24.1216 77.1174 -33.8046 71.7893 -41.6388 63.2971C-51.984 52.0892 -57.2211 35.7256 -57.2211 14.6634C-57.2211 -7.06277 -51.9238 -23.5902 -41.484 -34.4618C-31.0528 -45.3249 -17.7322 -50.8254 -1.88326 -50.8254C8.70273 -50.8254 18.3772 -48.101 26.8735 -42.7298C27.4067 -42.3936 27.9226 -42.0487 28.4386 -41.6953C34.9054 -37.2552 40.1683 -31.4098 44.1413 -24.2799C44.9153 -22.8918 45.6462 -21.4693 46.317 -19.9864C48.0111 -16.2446 49.387 -12.2443 50.4362 -7.99389C52.1475 -1.10532 53.0074 6.42986 53.0074 14.534C53.0074 35.0101 47.9939 51.0977 38.1045 62.4522C37.0811 63.6248 36.0062 64.7542 34.8796 65.8232C26.7531 59.0812 16.4165 53.9256 4.13639 50.4942L3.13885 50.2183L-2.62282 67.5217L-1.66827 67.901C-0.54174 68.3493 0.576202 68.8063 1.69414 69.2718C2.19291 69.4787 2.68307 69.677 3.18185 69.8926L3.26785 69.9271C7.32681 71.2634 11.4116 73.0135 15.4963 75.1603C15.5737 75.2034 15.6597 75.2465 15.7371 75.2896C15.7543 75.2982 15.7715 75.3069 15.7887 75.3155C19.0135 77.0312 22.2298 78.9883 25.4374 81.1867C26.9681 82.1868 28.2408 83.1179 29.2126 83.9456L29.247 83.9715L46.1364 96.1536C52.6892 100.68 59.0013 104.465 64.9349 107.439C64.9521 107.448 64.9693 107.456 64.9865 107.465C65.8379 107.887 66.6806 108.301 67.5148 108.689L67.5578 108.706C68.0652 108.922 68.5639 109.138 69.0713 109.353C70.3182 109.896 71.6167 110.457 72.9067 110.922L73.8784 111.267L81.1192 94.0931L80.0615 93.6965C71.9607 90.6272 63.0086 85.782 53.4374 79.2555ZM79.6659 94.7138L73.4226 109.534L73.2764 109.888L73.2679 109.905L72.3477 109.543C72.3305 109.534 72.3047 109.526 72.2875 109.517H72.2789C72.2789 109.517 72.2703 109.517 72.2703 109.508C72.2015 109.482 72.1413 109.457 72.0725 109.431C71.9521 109.379 71.8317 109.336 71.7113 109.284C71.4706 109.181 71.2212 109.086 70.9804 108.982C70.8944 108.948 70.8084 108.913 70.7224 108.87C70.6622 108.844 70.5934 108.819 70.5332 108.793C70.1806 108.646 69.8367 108.491 69.4927 108.344C68.9853 108.129 68.4779 107.905 67.9878 107.698L67.9706 107.689C67.5578 107.491 67.1364 107.293 66.7236 107.094C61.2715 104.456 55.5357 101.128 49.5074 97.1106C48.5959 96.5071 47.6843 95.8864 46.7642 95.2484L46.747 95.2311L29.9177 83.0834C29.8317 83.0145 29.7457 82.9369 29.6597 82.8679C29.6425 82.8506 29.6254 82.8334 29.5995 82.8248C29.5738 82.7989 29.548 82.7817 29.5135 82.7558C29.4276 82.6782 29.333 82.6093 29.2384 82.5317C29.1954 82.4972 29.161 82.4713 29.118 82.4368C29.1094 82.4282 29.1008 82.4282 29.1008 82.4196C29.0062 82.3506 28.9116 82.273 28.817 82.2041C28.7568 82.1609 28.7052 82.1178 28.645 82.0747C28.559 82.0058 28.4644 81.9454 28.3784 81.8764C28.3096 81.8247 28.2408 81.773 28.1634 81.7213C28.086 81.6609 28 81.6005 27.9226 81.5488C27.8366 81.4885 27.7506 81.4281 27.6646 81.3591C27.5959 81.3074 27.5185 81.2557 27.4497 81.2039C27.3465 81.135 27.2519 81.066 27.1487 80.9884C27.0541 80.9194 26.9509 80.8591 26.8563 80.7901C26.7789 80.7384 26.6929 80.678 26.6155 80.6263C26.4349 80.5056 26.2457 80.3849 26.0565 80.2556C26.0479 80.247 26.0393 80.247 26.0393 80.2384C25.532 79.8849 25.0246 79.5486 24.5172 79.2124C24.3108 79.0744 24.0959 78.9365 23.8895 78.7986C23.5971 78.6089 23.3133 78.4192 23.0209 78.2382C22.7715 78.0744 22.5135 77.9192 22.2642 77.7554C22.0234 77.6088 21.7912 77.4536 21.5504 77.3157C21.2752 77.1432 21 76.9794 20.7248 76.8156C20.5185 76.6949 20.3121 76.5656 20.1057 76.4449C19.8133 76.2725 19.5209 76.1 19.2199 75.9276C19.0393 75.8242 18.8674 75.7207 18.6868 75.6259C18.3772 75.4448 18.059 75.2724 17.7494 75.1C17.6032 75.0224 17.457 74.9448 17.3108 74.8586C16.9755 74.6775 16.6315 74.4878 16.2961 74.3068C16.1843 74.2464 16.0811 74.1947 15.9693 74.1343C15.5995 73.9447 15.2298 73.7464 14.86 73.5567C14.7826 73.5222 14.7052 73.4791 14.6364 73.4446C14.2408 73.2463 13.8452 73.048 13.4497 72.8584C13.3809 72.8239 13.3121 72.7894 13.2433 72.7549C12.8477 72.5652 12.4521 72.3755 12.0651 72.1945C11.9705 72.1514 11.8759 72.1083 11.7814 72.0652C11.4202 71.9014 11.0504 71.7289 10.6892 71.5737C10.5688 71.522 10.457 71.4703 10.3366 71.4186C10.242 71.3755 10.1561 71.341 10.0615 71.2979C9.82066 71.1944 9.57128 71.0824 9.3305 70.9789C9.1929 70.9185 9.05531 70.8668 8.92632 70.8065C8.74573 70.7289 8.56514 70.6599 8.38455 70.5823C8.25556 70.5305 8.11797 70.4702 7.98898 70.4185C7.84278 70.3581 7.69659 70.3064 7.5504 70.2461C7.29241 70.1426 7.03442 70.0478 6.77644 69.9443C6.74204 69.9271 6.69905 69.9184 6.66465 69.9012C6.51846 69.8409 6.36367 69.7891 6.21748 69.7374C5.9165 69.6253 5.60691 69.5132 5.30592 69.4098C5.17693 69.3667 5.03934 69.3149 4.91035 69.2718C4.54917 69.1425 4.18799 69.0218 3.82681 68.9011C3.77522 68.8839 3.72362 68.8666 3.67202 68.8494C3.64622 68.8408 3.62903 68.8321 3.60323 68.8235C2.80347 68.4873 2.01231 68.151 1.21255 67.832C1.16956 67.8148 1.12657 67.7975 1.08357 67.7803C0.369812 67.4872 -0.352547 67.2027 -1.08351 66.9095C-1.14371 66.8837 -1.2125 66.8578 -1.2727 66.8319L3.83541 51.4857L4.84155 51.7788C5.04794 51.8392 5.24574 51.8995 5.44352 51.9599C5.65851 52.0202 5.8821 52.0892 6.09708 52.1496C6.28627 52.2099 6.47546 52.2703 6.67325 52.3306C6.99143 52.4341 7.30962 52.5289 7.6278 52.6324C7.81699 52.6927 8.00617 52.7531 8.18676 52.8134C8.22116 52.822 8.25556 52.8307 8.28996 52.8479C8.52214 52.9255 8.74574 53.0031 8.97792 53.0807C9.2187 53.1583 9.45949 53.2445 9.69167 53.3221C10.2162 53.5031 10.7322 53.6842 11.2482 53.8738C11.3944 53.9256 11.532 53.9773 11.6782 54.0291C12.2801 54.2532 12.8735 54.4774 13.4583 54.7015C13.5013 54.7188 13.5443 54.736 13.5958 54.7533C18.7298 56.7707 23.4165 59.133 27.6475 61.8573C27.7077 61.8918 27.7678 61.935 27.8194 61.9694C28.2838 62.2712 28.7482 62.5729 29.1954 62.8833C29.3244 62.9695 29.4534 63.0644 29.5909 63.1506C29.9779 63.4178 30.3563 63.6851 30.7261 63.961C30.9239 64.0989 31.1131 64.2455 31.3108 64.3834C31.4828 64.5128 31.6548 64.6335 31.8268 64.7628C31.887 64.8059 31.9386 64.849 31.9988 64.8921C32.0848 64.9525 32.1622 65.0214 32.2396 65.0818C32.4804 65.2715 32.7298 65.4611 32.9706 65.6508C33.1081 65.7543 33.2457 65.8577 33.3747 65.9698C33.5123 66.0732 33.6327 66.1853 33.7703 66.2974C33.8993 66.4009 34.0369 66.5043 34.1659 66.6164L34.8968 67.2285C35.215 66.944 35.516 66.6509 35.8256 66.3491C36.0234 66.1595 36.2126 65.9698 36.4104 65.7801C36.5995 65.5991 36.7801 65.4094 36.9607 65.2283C37.1499 65.0301 37.3391 64.8318 37.5283 64.6335C37.7089 64.4438 37.8809 64.2541 38.0615 64.0645C38.2507 63.8661 38.4312 63.6592 38.6118 63.4523C38.7838 63.2626 38.9558 63.0644 39.1192 62.8661C39.2998 62.6592 39.4804 62.4436 39.661 62.2281C39.8244 62.0298 39.9878 61.8315 40.1425 61.6332C40.3231 61.4176 40.4951 61.1935 40.6671 60.9693C40.8219 60.771 40.9767 60.5728 41.1315 60.3745C41.3035 60.1503 41.4755 59.9175 41.6475 59.6847C41.7936 59.4865 41.9398 59.2795 42.086 59.0812C42.258 58.8484 42.4214 58.6071 42.5848 58.3657C42.7224 58.1587 42.86 57.9604 42.9976 57.7535C43.161 57.5035 43.3244 57.2621 43.4878 57.0121C43.6167 56.8052 43.7457 56.5983 43.8833 56.3913C44.0467 56.1327 44.2015 55.8827 44.3563 55.6154C44.4767 55.4085 44.6057 55.2016 44.7261 54.9947C44.8809 54.7274 45.0357 54.4601 45.1819 54.1929C45.3022 53.9859 45.414 53.7704 45.5258 53.5635C45.672 53.2876 45.8268 53.0117 45.9644 52.7358C46.0762 52.5203 46.188 52.3134 46.2912 52.0978C46.4374 51.8133 46.575 51.5288 46.7126 51.2443C46.8158 51.0288 46.919 50.8132 47.0222 50.5977C47.1597 50.3046 47.2973 50.0201 47.4263 49.7183C47.5209 49.5028 47.6241 49.2786 47.7187 49.0631C47.8477 48.7613 47.9767 48.4682 48.1057 48.1664C48.2003 47.9423 48.2863 47.7181 48.3809 47.494C48.5013 47.1922 48.6302 46.8818 48.7506 46.5714C48.8366 46.3473 48.9226 46.1145 49.0086 45.8904C49.129 45.58 49.2408 45.261 49.3526 44.9506C49.4386 44.7179 49.516 44.4851 49.5934 44.2523C49.7052 43.9333 49.817 43.6143 49.9202 43.2953C49.9976 43.0625 50.075 42.8211 50.1438 42.5797C50.247 42.2521 50.3502 41.9331 50.4534 41.6055C50.5222 41.3641 50.5995 41.1141 50.6684 40.8727C50.7629 40.5451 50.8575 40.2174 50.9521 39.8812C51.0209 39.6312 51.0897 39.3725 51.1499 39.1225C51.2359 38.7949 51.3219 38.4586 51.4079 38.1224C51.4767 37.8638 51.5369 37.5965 51.5971 37.3379C51.6745 37.0016 51.7605 36.674 51.8293 36.3378C51.8895 36.0705 51.9497 35.7946 52.0013 35.5187C52.0701 35.1825 52.1475 34.8549 52.2077 34.5186C52.2679 34.2341 52.3194 33.9496 52.371 33.6651C52.4312 33.3375 52.5 33.0013 52.5602 32.665C52.6118 32.3633 52.6634 32.0615 52.715 31.7598C52.7666 31.4321 52.8268 31.1045 52.8784 30.7769C52.93 30.4579 52.973 30.1389 53.016 29.8199C53.059 29.5009 53.1106 29.1819 53.1536 28.8543C53.1966 28.5181 53.2396 28.1732 53.2826 27.837C53.317 27.5266 53.36 27.2162 53.3944 26.9059C53.4374 26.5438 53.4718 26.173 53.5062 25.8023C53.532 25.5092 53.5664 25.2161 53.5922 24.9229C53.6266 24.5177 53.661 24.1125 53.6954 23.7073C53.7212 23.44 53.7384 23.1728 53.7642 22.9055C53.7986 22.4486 53.8244 21.983 53.8502 21.5261C53.8674 21.3019 53.876 21.0777 53.8932 20.8536C53.919 20.3191 53.9447 19.7759 53.9619 19.2241C53.9706 19.0689 53.9792 18.9224 53.9792 18.7672C54.0307 17.3619 54.0565 15.9307 54.0565 14.4737C54.0565 4.52451 52.7752 -4.57978 50.2298 -12.7098C49.3784 -15.417 48.3981 -18.0207 47.2715 -20.5037C46.6352 -21.909 45.9472 -23.2625 45.2249 -24.573C40.8649 -32.4961 34.9656 -38.876 27.6388 -43.5748C27.5615 -43.6265 27.4927 -43.6696 27.4153 -43.7213C27.3637 -43.7558 27.3121 -43.7817 27.2605 -43.8162C18.6868 -49.2046 8.94352 -51.9462 -1.70267 -51.9893C-1.77147 -51.9893 -1.84887 -51.9893 -1.91766 -51.9893C-2.02946 -51.9893 -2.14124 -51.9893 -2.26163 -51.9893C-18.1363 -51.9117 -31.5258 -46.3767 -42.0516 -35.5482C-42.1376 -35.4619 -42.215 -35.3843 -42.3009 -35.2981C-42.3697 -35.2205 -42.4385 -35.1516 -42.5073 -35.074C-53.0073 -23.9954 -58.339 -7.28693 -58.339 14.5771C-58.339 35.9153 -52.9987 52.5289 -42.4643 63.9438C-41.9656 64.4869 -41.4582 65.0128 -40.9422 65.5301C-40.667 65.806 -40.3833 66.0732 -40.0995 66.3491C-39.8587 66.5819 -39.6265 66.8147 -39.3771 67.0389C-39.0589 67.332 -38.7408 67.6079 -38.4226 67.8924C-38.2076 68.0821 -37.9926 68.2804 -37.769 68.47C-37.4164 68.7718 -37.0553 69.0563 -36.7027 69.3494C-36.5049 69.5046 -36.3157 69.6684 -36.1179 69.8236C-35.7481 70.1167 -35.3783 70.3926 -35 70.6685C-34.8108 70.8151 -34.6216 70.9616 -34.4238 71.0996C-34.0454 71.3755 -33.6584 71.6341 -33.2801 71.8928C-33.0823 72.0307 -32.8931 72.1686 -32.6867 72.3066C-32.2997 72.5652 -31.9041 72.8066 -31.5086 73.0566C-31.3108 73.186 -31.113 73.3153 -30.9066 73.436C-30.511 73.6774 -30.1068 73.9016 -29.7113 74.1257C-29.5049 74.2464 -29.2985 74.3671 -29.0921 74.4878C-28.6965 74.712 -28.2837 74.9103 -27.8796 75.1258C-27.6646 75.2379 -27.4496 75.3586 -27.2346 75.4621C-26.8304 75.6603 -26.4177 75.85 -26.0135 76.0397C-25.7899 76.1432 -25.5663 76.2552 -25.3341 76.3587C-24.9385 76.5397 -24.5344 76.7035 -24.1302 76.8674C-23.8894 76.9708 -23.64 77.0742 -23.3992 77.1777C-23.0037 77.3329 -22.6081 77.4795 -22.2039 77.6261C-21.9373 77.7209 -21.6793 77.8243 -21.4127 77.9192C-21.0258 78.0571 -20.6302 78.1778 -20.2432 78.3071C-19.9594 78.402 -19.6842 78.4968 -19.4005 78.583C-19.0221 78.6951 -18.6437 78.7986 -18.2653 78.9106C-17.9557 78.9969 -17.6462 79.0917 -17.3366 79.1779C-16.9754 79.2727 -16.6142 79.3503 -16.253 79.4452C-15.9177 79.5228 -15.5823 79.6176 -15.2383 79.6866C-14.8943 79.7642 -14.5503 79.8245 -14.1978 79.8935C-13.8194 79.9711 -13.441 80.0487 -13.0626 80.1176C-13.054 80.1176 -13.0454 80.1263 -13.0368 80.1263L-12.9766 80.1521C-12.8304 80.2039 -12.6756 80.2556 -12.5209 80.3159C-12.5123 80.3159 -12.5123 80.3159 -12.5037 80.3246C-12.4349 80.3504 -12.3661 80.3763 -12.2973 80.4022C-12.2371 80.428 -12.1683 80.4453 -12.1081 80.4711C-12.0565 80.4884 -12.0135 80.5056 -11.9705 80.5229C-11.8501 80.566 -11.7297 80.6091 -11.6007 80.6608C-11.4889 80.7039 -11.3771 80.7384 -11.2739 80.7815C-11.1793 80.816 -11.0847 80.8505 -10.9901 80.885C-10.6634 81.0057 -10.328 81.135 -9.984 81.2643C-9.9152 81.2902 -9.84641 81.316 -9.77761 81.3419C-9.58842 81.4109 -9.39923 81.4885 -9.20144 81.5661C-9.10684 81.6006 -9.01225 81.635 -8.91766 81.6781C-8.73707 81.7471 -8.56508 81.8161 -8.38449 81.8851C-8.24689 81.9368 -8.1093 81.9885 -7.97171 82.0489C-7.82552 82.1006 -7.68793 82.1609 -7.54173 82.2213C-7.31815 82.3075 -7.09457 82.4023 -6.86238 82.4886C-6.80219 82.5144 -6.74198 82.5403 -6.67319 82.5661C-2.10685 84.4025 3.84401 86.9976 10.1991 90.3427C10.5602 90.5324 10.9128 90.7221 11.274 90.9118C11.3428 90.9462 11.4116 90.9893 11.4804 91.0238C11.79 91.1876 12.0995 91.3601 12.4091 91.5239C12.5295 91.5928 12.6499 91.6532 12.7789 91.7222C13.0455 91.8687 13.3207 92.0239 13.5873 92.1705C13.7506 92.2653 13.914 92.3515 14.0774 92.4464C14.3182 92.5843 14.559 92.7136 14.7998 92.8516C14.9976 92.9637 15.1868 93.0757 15.3846 93.1878C15.5995 93.3085 15.8145 93.4378 16.0295 93.5585C16.2531 93.6879 16.4681 93.8172 16.6917 93.9465C16.8895 94.0586 17.0872 94.1793 17.285 94.3C17.5172 94.4379 17.7494 94.5759 17.9816 94.7224C18.1708 94.8345 18.36 94.9552 18.5492 95.0673C18.575 95.0845 18.6008 95.1018 18.6266 95.1104C18.6524 95.1277 18.6696 95.1363 18.6954 95.1535C18.7384 95.1794 18.7728 95.1966 18.8158 95.2225L21.0172 96.576L18.5148 97.2141C18.489 97.2227 18.4546 97.2313 18.4288 97.2313C17.6204 97.4382 16.8121 97.6279 15.9951 97.8089C15.9607 97.8176 15.9263 97.8262 15.8919 97.8348C11.6782 98.7659 7.34401 99.3953 2.88947 99.6712C2.86367 99.6712 2.83787 99.6712 2.80347 99.6798C1.96932 99.7315 1.13516 99.7746 0.30101 99.8005C0.215019 99.8005 0.129028 99.8005 0.0430298 99.8091C-0.283752 99.8177 -0.610535 99.8263 -0.945915 99.835C-1.43609 99.8436 -1.93486 99.8522 -2.42503 99.8522H-2.44223C-17.328 99.8522 -30.8206 96.2484 -42.9287 89.0495C-54.7014 82.0575 -63.8341 72.2894 -70.3439 59.771C-70.5331 59.4089 -70.7309 59.0468 -70.9115 58.6846C-71.0921 58.3312 -71.2555 57.9691 -71.4275 57.607C-77.4815 45.1058 -80.5688 31.1218 -80.7064 15.629C-80.7064 15.2841 -80.7236 14.9479 -80.7236 14.603C-80.7236 14.2495 -80.715 13.9047 -80.7064 13.5512C-80.5688 -2.01058 -77.4041 -16.2274 -71.1953 -29.0993C-71.0835 -29.3407 -70.9717 -29.5821 -70.8513 -29.8235C-70.7223 -30.0821 -70.5933 -30.3235 -70.4643 -30.5822C-64.0921 -43.1868 -55.1744 -52.8946 -43.7285 -59.7142C-43.4017 -59.9038 -43.0835 -60.1107 -42.7567 -60.2918C-42.3955 -60.4987 -42.0344 -60.6884 -41.6646 -60.8953C-29.9091 -67.4045 -16.8292 -70.6807 -2.42503 -70.7497C-2.27884 -70.7497 -2.13264 -70.7583 -1.98645 -70.7583C-1.82306 -70.7583 -1.65968 -70.7497 -1.49628 -70.7497C13.4841 -70.6721 27.0197 -67.0683 39.059 -59.9038C51.1671 -52.7222 60.3944 -42.6953 66.7838 -29.8407C66.8354 -29.7373 66.887 -29.6338 66.9386 -29.5304C67.0074 -29.3924 67.0676 -29.2459 67.1364 -29.1079C73.3968 -16.2102 76.5271 -1.67435 76.5271 14.4909C76.5271 27.5956 74.6094 39.4329 70.7654 49.9942C70.6278 50.3649 70.4988 50.7356 70.3612 51.1064C70.1118 51.7616 69.8539 52.4168 69.5873 53.0634C69.4067 53.4945 69.2261 53.917 69.0455 54.3481C68.9595 54.555 68.8735 54.7619 68.7789 54.9688C68.5037 55.5895 68.2285 56.2017 67.9447 56.8052C67.9447 56.8052 67.9447 56.8138 67.9361 56.8138C65.3133 62.3746 62.0885 67.5217 58.2531 72.2721C58.2015 72.3325 58.1585 72.3928 58.1069 72.4532C57.7543 72.8929 57.3846 73.3239 57.0234 73.755C56.9202 73.8843 56.8084 74.005 56.6966 74.1343C56.3784 74.5051 56.0602 74.8672 55.7335 75.2293C55.5615 75.4189 55.3981 75.6086 55.2261 75.7897C54.9509 76.0914 54.6757 76.3932 54.3919 76.6949C54.1683 76.9363 53.9447 77.1691 53.7126 77.4019C53.4718 77.6519 53.2224 77.9106 52.973 78.1606C52.8698 78.264 52.7752 78.3675 52.6806 78.4623L51.7519 79.3934C52.2592 79.7469 52.7752 80.0918 53.2826 80.4366C53.5492 80.6177 53.8158 80.7988 54.0824 80.9712C54.1684 81.0315 54.2543 81.0833 54.3403 81.1436C54.5725 81.2988 54.8133 81.4626 55.0455 81.6178C55.3207 81.7988 55.5959 81.9799 55.871 82.1609C56.172 82.3592 56.473 82.5575 56.7826 82.7472C57.075 82.9369 57.3588 83.1179 57.6511 83.299C57.9521 83.4886 58.2531 83.6783 58.5541 83.868C58.8379 84.049 59.1217 84.2215 59.4054 84.4025C59.7064 84.5922 60.0074 84.7733 60.2998 84.9543C60.5836 85.1267 60.8588 85.2905 61.1425 85.463C61.4435 85.644 61.7359 85.8251 62.0369 85.9975C62.3121 86.1613 62.5873 86.3251 62.8624 86.4803C63.1548 86.6527 63.4558 86.8252 63.7482 86.9976C64.0234 87.1528 64.2986 87.308 64.5651 87.4632C64.8575 87.627 65.1499 87.7994 65.4423 87.9632C65.7175 88.1184 65.9841 88.2649 66.2507 88.4115C66.543 88.5667 66.8354 88.7305 67.1192 88.8857C67.3858 89.0323 67.661 89.1702 67.9276 89.3168C68.2113 89.472 68.5037 89.6185 68.7875 89.7651C69.0541 89.903 69.3207 90.041 69.5873 90.1789C69.871 90.3255 70.1462 90.4634 70.43 90.6014C70.6966 90.7393 70.9632 90.8686 71.2298 90.9979C71.5049 91.1359 71.7801 91.2652 72.0553 91.4032C72.3219 91.5325 72.5885 91.6532 72.8551 91.7825C73.1217 91.9118 73.3968 92.0412 73.6634 92.1618C73.93 92.2825 74.1966 92.4033 74.4632 92.524C74.7298 92.6447 74.9964 92.7654 75.2543 92.8775C75.5209 92.9982 75.7875 93.1102 76.0541 93.2223C76.3121 93.3344 76.5701 93.4465 76.8194 93.5499C76.8538 93.5672 76.8882 93.5758 76.9226 93.593C77.1548 93.6879 77.387 93.7827 77.6192 93.8775C77.86 93.981 78.1094 94.0758 78.3502 94.1707C78.7543 94.3345 79.1585 94.4897 79.5627 94.6448C79.5971 94.6793 79.6315 94.688 79.6659 94.7138C79.6659 94.7052 79.6659 94.7052 79.6659 94.7138Z" fill="white"/>
<path d="M50.0234 79.5489L50.978 78.6264C59.1217 70.7636 65.2961 61.3748 69.3379 50.7445C73.3797 40.097 75.435 27.9148 75.435 14.5257C75.435 -1.57927 72.2445 -16.2272 65.9583 -29.0128C59.6893 -41.7726 50.4534 -51.8339 38.5001 -58.9294C26.5639 -66.0249 12.9337 -69.6286 -1.99502 -69.6286C-16.7776 -69.6286 -30.3132 -66.1542 -42.2235 -59.3173C-54.1338 -52.4805 -63.4385 -42.3847 -69.8795 -29.3146C-76.355 -16.1927 -79.6314 -1.40685 -79.6314 14.6291C-79.6314 30.734 -76.3722 45.3992 -69.9397 58.2193C-63.5159 71.0136 -54.2456 81.0835 -42.3697 88.1445C-30.4766 95.2141 -17.0356 98.792 -2.425 98.792C4.53201 98.792 11.4804 97.9213 18.2568 96.197C5.21137 88.2048 -7.98029 83.144 -13.312 81.2473C-25.0159 79.1178 -35.0773 73.5656 -43.2125 64.7458C-53.9361 53.1154 -59.3709 36.2604 -59.3709 14.6377C-59.3709 -7.66603 -53.8759 -24.7021 -43.0233 -35.9962C-32.1707 -47.299 -18.3169 -53.0323 -1.85743 -53.0323C9.14994 -53.0323 19.2114 -50.1958 28.0603 -44.6005C36.9006 -39.0051 43.72 -31.0303 48.3293 -20.9086C52.8956 -10.8215 55.2175 1.09338 55.2175 14.517C55.2175 38.183 48.6475 56.2019 35.6794 68.0651L34.9743 68.7117L34.2433 68.0909C26.4694 61.4352 16.4939 56.314 4.575 52.8568L0.120453 66.2373C1.42758 66.7632 2.71751 67.2891 4.02464 67.8409C11.5578 70.3239 19.1856 74.1949 26.6843 79.3506C28.2581 80.3765 29.591 81.3508 30.6315 82.2301L47.4264 94.352C54.8133 99.4559 61.8993 103.611 68.4607 106.689C68.9681 106.905 69.4669 107.12 69.9743 107.336C70.8772 107.724 71.806 108.129 72.7175 108.491L78.2728 95.3176C69.9915 92.0673 60.876 87.0151 51.1585 80.299L50.0234 79.5489ZM72.0897 107.086C71.5136 106.844 70.9288 106.594 70.3612 106.344L70.301 106.319C69.8195 106.112 69.3379 105.905 68.8563 105.698C62.3551 102.646 55.3379 98.5334 48.0197 93.4726L31.2593 81.3766C30.1929 80.4714 28.8428 79.4885 27.2605 78.4539C19.6929 73.2466 11.9878 69.3324 4.36861 66.8236C3.35387 66.3925 2.35633 65.9787 1.43618 65.6079L5.23716 54.1931C16.5541 57.5986 26.0652 62.5473 33.4952 68.91L34.9571 70.1601L36.376 68.8669C49.5762 56.7882 56.2666 38.502 56.2666 14.5084C56.2666 0.929588 53.919 -11.1405 49.2838 -21.3656C44.5885 -31.6855 37.6315 -39.8155 28.6106 -45.523C19.5897 -51.2304 9.33053 -54.1272 -1.88323 -54.1272C-18.6523 -54.1272 -32.7641 -48.2818 -43.8316 -36.7635C-54.882 -25.2625 -60.4803 -7.97642 -60.4803 14.6291C-60.4803 36.5363 -54.9422 53.6413 -44.0294 65.4786C-35.7481 74.4536 -25.5061 80.1179 -13.613 82.2991C-8.77144 84.0234 3.18188 88.5928 15.3846 95.7486C9.51972 97.0419 3.53446 97.6971 -2.4422 97.6971C-16.8636 97.6971 -30.1154 94.1623 -41.8365 87.2047C-53.5319 80.2558 -62.6646 70.3411 -68.9938 57.7279C-75.3402 45.0543 -78.565 30.553 -78.565 14.6205C-78.565 -1.24304 -75.323 -15.8651 -68.925 -28.8404C-62.5786 -41.7209 -53.4201 -51.6528 -41.699 -58.3862C-29.952 -65.1368 -16.597 -68.5596 -2.00362 -68.5596C12.7273 -68.5596 26.1684 -65.0075 37.9411 -58.0155C49.7052 -51.0321 58.8035 -41.126 64.978 -28.5559C71.1954 -15.9168 74.3428 -1.4327 74.3428 14.4998C74.3428 27.751 72.3133 39.8125 68.3232 50.3307C64.3416 60.8144 58.2531 70.0652 50.2298 77.816L48.3121 79.6696L50.505 81.187C59.8784 87.6703 68.7187 92.6104 76.8023 95.9038L72.0897 107.086Z" fill="white"/>
</svg>
