<svg width="473" height="370" viewBox="0 0 473 370" fill="none" xmlns="http://www.w3.org/2000/svg">
<g opacity="0.6" filter="url(#filter0_f)">
<path d="M392.502 180.33C401.557 156.462 406.085 129.621 406.085 99.7238C406.085 63.7152 399.087 31.423 385.01 2.76481C370.933 -25.8934 350.517 -48.1923 323.68 -64.1319C296.925 -80.0715 266.795 -88 233.372 -88C200.278 -88 170.395 -80.3193 143.64 -64.9578C116.885 -49.5963 96.3043 -27.2148 81.8155 2.10412C67.2444 31.5056 60 64.1281 60 99.9715C60 135.98 67.1621 168.355 81.5686 197.013C95.975 225.671 116.473 248.053 143.146 263.91C169.819 279.767 199.537 287.695 232.302 287.695C250.33 287.695 267.453 285.135 283.753 280.51C257.492 263.745 228.185 251.191 208.922 244.419C183.649 239.877 161.998 228.066 144.216 208.741C121.001 183.469 109.394 147.212 109.394 99.9715C109.394 51.2443 121.166 14.6576 144.71 -9.87123C168.254 -34.4 197.891 -46.6231 233.619 -46.6231C257.492 -46.6231 278.979 -40.5942 298.16 -28.4537C317.341 -16.3131 331.912 0.782715 341.873 22.6687C351.834 44.6372 356.774 70.3223 356.774 99.7238C356.774 151.424 342.696 190.076 314.542 215.843C296.596 200.482 273.792 188.919 246.132 181.156L234.854 214.935C238.393 216.339 241.933 217.743 245.556 219.312C258.233 223.441 275.192 230.792 294.949 244.419C298.324 246.566 301.206 248.714 303.511 250.696L340.556 277.454C357.103 288.852 372.662 298.019 387.233 304.874C391.102 306.526 394.971 308.342 398.923 309.746L413 276.298C394.23 269.196 373.732 257.963 351.505 242.602C369.781 225.011 383.446 204.198 392.502 180.33Z" fill="url(#paint0_linear)"/>
</g>
<defs>
<filter id="filter0_f" x="0" y="-148" width="473" height="517.746" filterUnits="userSpaceOnUse" color-interpolation-filters="sRGB">
<feFlood flood-opacity="0" result="BackgroundImageFix"/>
<feBlend mode="normal" in="SourceGraphic" in2="BackgroundImageFix" result="shape"/>
<feGaussianBlur stdDeviation="30" result="effect1_foregroundBlur"/>
</filter>
<linearGradient id="paint0_linear" x1="413" y1="108.78" x2="60" y2="108.79" gradientUnits="userSpaceOnUse">
<stop stop-color="#7C4394"/>
<stop offset="1" stop-color="#DB2431"/>
</linearGradient>
</defs>
</svg>
