<svg width="110" height="155" viewBox="0 0 110 155" fill="none" xmlns="http://www.w3.org/2000/svg">
<path d="M39.1371 102.37C34.1419 100.132 25.9902 97.5963 14.9159 94.8381L14.2742 94.6844C13.8146 94.5734 13.3463 94.4624 12.8606 94.3343C8.88883 93.3609 5.37663 92.5411 1.80373 91.747C-4.9258 90.2526 -10.8315 88.7156 -15.7659 87.1871C-22.877 85.1206 -28.2364 83.1822 -31.7052 81.4402C-39.6488 77.4866 -45.6152 72.5766 -49.4396 66.8298C-51.5643 63.6447 -53.1166 60.0241 -54.0618 56.079L-56.6548 45.2258L-60.3664 55.7631C-62.0488 60.5364 -62.8987 65.4037 -62.8987 70.2369C-62.8987 78.3235 -60.7654 85.7439 -56.5681 92.2935C-52.3968 98.8003 -46.0228 104.299 -37.6282 108.629C-31.2889 111.942 -20.2581 115.469 -4.83908 119.115C10.1376 122.659 19.937 125.297 24.2818 126.954C30.6124 129.328 35.1566 132.222 37.7929 135.553C40.3338 138.763 41.6173 142.606 41.6173 146.987C41.6173 151.316 40.2471 155.381 37.5414 159.069C34.801 162.801 30.4824 165.815 24.7067 168.027C18.7143 170.324 11.6466 171.485 3.72028 171.485C-5.20329 171.485 -13.3204 169.948 -20.4141 166.908C-27.3431 163.937 -32.477 160.06 -35.6857 155.372C-38.6515 151.034 -40.6808 145.321 -41.7041 138.396L-42.1117 135.621H-69.3334L-69.2466 138.943C-68.9345 150.411 -65.6911 160.854 -59.6033 169.974C-53.5155 179.119 -44.9908 186.062 -34.2895 190.604C-23.7876 195.07 -10.658 197.333 4.74358 197.333C16.9972 197.333 28.2102 195.079 38.0704 190.639C48.052 186.13 55.8482 179.7 61.2336 171.52C66.6102 163.339 69.3333 154.484 69.3333 145.202C69.3419 135.835 66.8357 127.406 61.884 120.165C56.9495 112.975 49.3007 106.989 39.1371 102.37ZM60.3056 170.93C55.033 178.932 47.4015 185.233 37.6108 189.657C27.898 194.037 16.8411 196.257 4.74358 196.257C-10.5106 196.257 -23.4927 194.029 -33.8559 189.622C-44.3664 185.165 -52.7176 178.351 -58.6927 169.385C-64.6678 160.436 -67.8504 150.18 -68.154 138.917L-68.2147 136.697H-43.0656L-42.7968 138.541C-41.7475 145.62 -39.6662 151.487 -36.6049 155.961C-33.2748 160.82 -27.9762 164.833 -20.8651 167.882C-13.6326 170.982 -5.36808 172.553 3.70293 172.553C11.768 172.553 18.9571 171.366 25.0796 169.026C31.0634 166.738 35.5468 163.595 38.4086 159.693C41.2531 155.816 42.6926 151.538 42.6926 146.978C42.6926 142.35 41.3311 138.285 38.6341 134.878C35.8677 131.386 31.1674 128.38 24.646 125.938C20.258 124.264 10.4151 121.617 -4.6136 118.056C-19.9372 114.435 -30.8814 110.943 -37.1426 107.672C-45.3637 103.437 -51.599 98.0659 -55.6748 91.7214C-59.7594 85.3512 -61.832 78.1185 -61.832 70.2369C-61.832 65.5233 -60.9995 60.7755 -59.3605 56.1132L-56.8802 49.094L-55.1545 56.3352C-54.1832 60.3998 -52.5789 64.1314 -50.3849 67.4275C-46.4564 73.3281 -40.3426 78.3747 -32.2255 82.4137C-28.696 84.1898 -23.2759 86.1453 -16.1041 88.2374C-11.161 89.7744 -5.22932 91.3115 1.5349 92.8229C5.09046 93.6171 8.60264 94.4368 12.5744 95.4017C13.1121 95.5383 13.6238 95.6579 14.1355 95.786L14.6297 95.9055C25.6346 98.6466 33.7257 101.157 38.6601 103.369C48.633 107.894 56.1344 113.752 60.9474 120.78C65.7777 127.842 68.2146 136.057 68.2059 145.21C68.2319 154.262 65.5609 162.921 60.3056 170.93Z" fill="white"/>
<path d="M46.6821 108.877C46.6734 108.869 46.6561 108.86 46.6474 108.852C44.0805 107.229 41.2794 105.718 38.2355 104.334C33.3531 102.148 25.3314 99.6634 14.3959 96.9394L13.7889 96.7943C13.3119 96.6832 12.8349 96.5637 12.3406 96.4356C8.37749 95.4707 4.87395 94.6509 1.32707 93.8568C-3.77211 92.7211 -8.39434 91.5683 -12.4789 90.4155C-13.8404 90.0313 -15.1412 89.647 -16.3813 89.2627C-23.6225 87.1536 -29.1033 85.1725 -32.6848 83.3707C-33.2052 83.1146 -33.7168 82.8498 -34.2111 82.5851C-34.8442 82.2521 -35.4599 81.9105 -36.067 81.5604C-42.6924 77.7691 -47.8003 73.2262 -51.2605 68.0174C-53.5239 64.6188 -55.1802 60.7677 -56.1862 56.5749L-57.0534 52.9544L-58.2935 56.4639C-59.8978 61.0067 -60.7043 65.6435 -60.7043 70.229C-60.7043 74.9341 -59.9412 79.4086 -58.4409 83.5842C-58.4149 83.6611 -58.3889 83.7379 -58.3629 83.8148C-58.3369 83.8745 -58.3109 83.9429 -58.2935 84.0026C-57.3656 86.479 -56.1775 88.8614 -54.7206 91.1243C-53.2464 93.4213 -51.4773 95.5902 -49.422 97.6226C-45.9531 101.055 -41.6604 104.095 -36.6046 106.7C-34.48 107.81 -31.8003 108.945 -28.5829 110.107C-22.4431 112.327 -14.3261 114.624 -4.32714 116.989C-2.65343 117.382 -1.04907 117.766 0.49456 118.142C8.08263 119.978 14.1271 121.541 18.5672 122.822C21.3683 123.633 23.5363 124.324 25.0626 124.905C27.3693 125.768 29.4593 126.715 31.3238 127.723C33.8647 129.089 35.9894 130.584 37.6891 132.197C38.01 132.496 38.3048 132.812 38.591 133.12C38.9205 133.47 39.2327 133.828 39.5189 134.196C42.3634 137.791 43.8116 142.086 43.8116 146.953C43.8116 151.744 42.3027 156.235 39.3195 160.3C36.3276 164.373 31.6794 167.635 25.4962 170C19.2436 172.391 11.9157 173.604 3.72058 173.604C-5.49785 173.604 -13.9185 171.998 -21.2897 168.847C-28.1494 165.91 -33.3699 162.084 -36.8388 157.473C-37.0729 157.166 -37.2897 156.859 -37.5065 156.543C-39.8046 153.187 -41.5564 149.079 -42.7618 144.306C-43.2128 142.521 -43.5856 140.643 -43.8718 138.679L-44.0106 137.756H-67.087L-67.061 138.867C-66.7575 149.933 -63.6355 159.992 -57.7819 168.771C-51.9282 177.557 -43.7331 184.235 -33.4307 188.607C-23.2063 192.953 -10.3716 195.157 4.7352 195.157C16.6767 195.157 27.5775 192.97 37.1515 188.658C37.7498 188.385 38.3395 188.112 38.9292 187.821C44.0284 185.328 48.4859 182.288 52.2756 178.736C52.3883 178.633 52.5097 178.522 52.6225 178.42L52.6311 178.411C55.2067 175.952 57.4615 173.254 59.3954 170.325C64.5379 162.494 67.1482 154.041 67.1482 145.177C67.1569 136.245 64.7807 128.227 60.0804 121.353C56.8284 116.656 52.3536 112.472 46.6821 108.877ZM66.0382 145.194C66.0382 145.476 66.0295 145.758 66.0208 146.039C65.8647 154.408 63.3498 162.315 58.4675 169.753C53.6458 177.071 46.8208 182.852 38.01 187.07C37.5764 187.275 37.1428 187.488 36.7005 187.685C36.3102 187.864 35.9113 188.026 35.5124 188.197C26.346 192.117 16.0956 194.081 4.74387 194.081C-9.63444 194.081 -21.7754 192.099 -31.6789 188.146C-32.1125 187.975 -32.5548 187.796 -32.9797 187.616C-33.3266 187.471 -33.6648 187.309 -34.003 187.164C-43.655 182.86 -51.2778 176.541 -56.8453 168.181C-57.1922 167.652 -57.539 167.123 -57.8686 166.593C-58.1287 166.166 -58.3889 165.731 -58.6404 165.304C-58.7011 165.201 -58.7618 165.107 -58.8225 165.005C-61.9011 159.634 -63.9824 153.853 -65.0751 147.662C-65.0838 147.628 -65.0837 147.594 -65.0924 147.568C-65.1878 147.021 -65.2746 146.475 -65.3526 145.928C-65.3699 145.809 -65.3873 145.689 -65.4046 145.57C-65.474 145.1 -65.526 144.622 -65.5867 144.152C-65.6128 143.947 -65.6301 143.734 -65.6561 143.529C-65.6995 143.128 -65.7342 142.726 -65.7688 142.316C-65.7949 142.035 -65.8122 141.753 -65.8296 141.462C-65.8556 141.112 -65.8729 140.762 -65.8903 140.412C-65.8989 140.267 -65.9076 140.122 -65.9163 139.977L-65.9683 138.849H-44.9558C-44.9472 138.935 -44.9298 139.02 -44.9125 139.106C-44.8691 139.405 -44.8171 139.703 -44.7737 140.002C-44.739 140.207 -44.7044 140.412 -44.6697 140.617C-44.6263 140.856 -44.583 141.087 -44.5396 141.326C-44.4962 141.531 -44.4615 141.736 -44.4182 141.941C-44.3748 142.163 -44.3314 142.385 -44.2794 142.607C-44.2361 142.812 -44.1927 143.025 -44.1407 143.23C-44.0886 143.444 -44.0453 143.657 -43.9932 143.87C-43.9412 144.075 -43.8892 144.289 -43.8458 144.494C-43.7938 144.699 -43.7418 144.895 -43.6897 145.1C-43.6377 145.305 -43.577 145.519 -43.525 145.723C-43.4729 145.92 -43.4209 146.108 -43.3602 146.304C-43.2995 146.509 -43.2388 146.714 -43.1781 146.919C-43.1174 147.107 -43.0653 147.295 -43.0046 147.474C-42.9439 147.679 -42.8746 147.884 -42.8052 148.08C-42.7445 148.26 -42.6838 148.439 -42.623 148.618C-42.5537 148.815 -42.4843 149.02 -42.4149 149.216C-42.3542 149.395 -42.2848 149.566 -42.2155 149.737C-42.1461 149.933 -42.068 150.121 -41.9987 150.318C-41.9293 150.488 -41.8599 150.659 -41.7905 150.83C-41.7125 151.018 -41.6344 151.206 -41.5564 151.385C-41.4783 151.556 -41.409 151.726 -41.3309 151.897C-41.2529 152.077 -41.1748 152.256 -41.0968 152.427C-41.0187 152.597 -40.932 152.768 -40.854 152.939C-40.7759 153.101 -40.6979 153.272 -40.6111 153.434C-40.5244 153.614 -40.429 153.784 -40.3423 153.955C-40.2643 154.109 -40.1862 154.263 -40.0995 154.408C-39.9954 154.596 -39.8914 154.775 -39.796 154.954C-39.7179 155.091 -39.6485 155.228 -39.5705 155.356C-39.4491 155.561 -39.3277 155.757 -39.2062 155.953C-39.1455 156.056 -39.0762 156.167 -39.0155 156.269C-38.8247 156.568 -38.6339 156.867 -38.4344 157.157C-38.313 157.328 -38.1916 157.499 -38.0702 157.67C-37.732 158.139 -37.3765 158.609 -37.0036 159.07C-33.6561 163.16 -28.9212 166.602 -22.9114 169.343C-22.5298 169.513 -22.1396 169.693 -21.7494 169.864C-21.3331 170.043 -20.9081 170.214 -20.4832 170.384C-19.3212 170.846 -18.1244 171.273 -16.919 171.665C-10.8832 173.612 -4.26642 174.628 2.81867 174.705C3.11353 174.705 3.39969 174.714 3.69453 174.714C3.92001 174.714 4.13683 174.705 4.3623 174.705C12.4273 174.637 19.6599 173.407 25.8691 171.033C30.6561 169.206 34.5585 166.841 37.5243 163.98C38.513 163.024 39.3975 162.016 40.178 160.957C40.3688 160.693 40.5596 160.428 40.7417 160.155C43.4127 156.227 44.8003 151.923 44.8696 147.354C44.8696 147.226 44.8783 147.107 44.8783 146.979C44.8783 146.876 44.8696 146.774 44.8696 146.671C44.8696 146.458 44.8696 146.244 44.8609 146.031C44.6875 141.42 43.2393 137.33 40.5596 133.828C40.4902 133.735 40.4208 133.649 40.3515 133.555C40.3168 133.504 40.2734 133.461 40.23 133.41C39.5016 132.513 38.6691 131.642 37.7152 130.806C35.2089 128.611 31.9308 126.639 27.9157 124.922C27.1092 124.581 26.2766 124.248 25.4181 123.923C24.3774 123.53 23.0333 123.078 21.403 122.574C17.7954 121.464 12.7655 120.106 6.33954 118.492C4.74387 118.091 3.0528 117.681 1.2837 117.245C-0.433372 116.827 -2.2285 116.4 -4.11034 115.956C-19.3385 112.361 -30.0225 108.954 -36.1277 105.76C-43.7244 101.841 -49.4567 97.0248 -53.3418 91.2951C-53.5065 91.056 -53.6713 90.8083 -53.8361 90.5607C-53.9662 90.3557 -54.0962 90.1423 -54.2176 89.9373C-57.8426 84.0453 -59.655 77.4702 -59.655 70.229C-59.655 70.2205 -59.655 70.2205 -59.655 70.2119C-59.655 69.7167 -59.6377 69.2214 -59.6203 68.7261C-59.6203 68.6578 -59.6204 68.598 -59.6117 68.5297C-59.603 68.4102 -59.5943 68.2906 -59.5856 68.1796C-59.5683 67.8551 -59.5423 67.5221 -59.5163 67.1976C-59.4989 66.9927 -59.4903 66.7963 -59.4642 66.5913C-59.4209 66.1559 -59.3775 65.7203 -59.3168 65.2763C-59.2821 65.0116 -59.2388 64.7554 -59.2041 64.4907C-59.1694 64.2687 -59.1347 64.0467 -59.1 63.8161C-59.0566 63.5514 -59.0046 63.2782 -58.9613 63.0135C-58.9179 62.7744 -58.8659 62.5438 -58.8225 62.3047C-58.7531 61.9802 -58.6837 61.6557 -58.6144 61.3312C-58.545 61.0153 -58.467 60.6993 -58.3889 60.3834L-58.3195 60.1101C-58.3109 60.0845 -58.3109 60.0589 -58.3022 60.0418L-57.4783 56.8226L-57.3916 57.0702C-57.3569 56.9763 -57.3309 56.8909 -57.3049 56.797C-57.1748 57.3349 -57.0361 57.8643 -56.8886 58.3938C-56.88 58.4194 -56.8713 58.4365 -56.8713 58.4621C-56.5765 59.4868 -56.2469 60.4859 -55.8827 61.4593C-55.8567 61.5191 -55.8307 61.5789 -55.8133 61.6472C-55.6659 62.0314 -55.5098 62.4157 -55.345 62.8C-55.2843 62.9366 -55.2323 63.0732 -55.1716 63.2098C-55.0241 63.5514 -54.868 63.8844 -54.7119 64.226C-54.6599 64.3285 -54.6166 64.4309 -54.5645 64.5334C-54.3651 64.9518 -54.1483 65.3617 -53.9315 65.7716C-53.8707 65.8826 -53.8101 65.9936 -53.7493 66.1046C-53.5759 66.4206 -53.3938 66.7365 -53.2117 67.0439C-53.1423 67.1549 -53.0729 67.2745 -53.0122 67.3855C-52.8648 67.6246 -52.7174 67.8551 -52.5613 68.0942C-52.4572 68.2565 -52.3531 68.4273 -52.2491 68.5895C-48.6241 74.0375 -43.2735 78.7681 -36.3271 82.6876C-35.3385 83.2512 -34.3065 83.7891 -33.2485 84.3186C-30.0745 85.9154 -25.461 87.6403 -19.5119 89.4591C-19.4773 89.4677 -19.4426 89.4762 -19.4079 89.4933C-19.0523 89.6043 -18.6881 89.7068 -18.3239 89.8178C-18.2458 89.8434 -18.1764 89.8605 -18.0984 89.8861C-17.6648 90.0142 -17.2225 90.1423 -16.7716 90.2789H-16.7542C-16.4941 90.3643 -16.2252 90.4411 -15.9564 90.5265C-13.5542 91.2524 -10.9353 91.9867 -8.11684 92.7125C-5.40248 93.4128 -2.49733 94.1044 0.581261 94.7961C0.728683 94.8303 0.876122 94.8644 1.02354 94.8986C1.04089 94.8986 1.04955 94.9071 1.06689 94.9071C1.52651 95.0096 1.97748 95.112 2.4371 95.2145C2.57585 95.2487 2.71461 95.2743 2.85337 95.3084C3.17423 95.3853 3.4951 95.4536 3.82464 95.5304C4.01543 95.5732 4.20621 95.6158 4.397 95.6585C4.54443 95.6927 4.69183 95.7269 4.83926 95.761C4.96066 95.7866 5.08208 95.8122 5.19482 95.8464C5.40295 95.8976 5.61108 95.9403 5.82789 95.9916C6.07071 96.0513 6.31352 96.1026 6.55634 96.1624C6.79049 96.2136 7.0246 96.2734 7.25875 96.3246C7.47556 96.3758 7.69235 96.4271 7.90916 96.4783C8.18666 96.5466 8.46419 96.6064 8.7417 96.6747C8.90646 96.7174 9.07125 96.7516 9.24469 96.7943C9.65228 96.8882 10.0598 96.9906 10.4587 97.0846C10.5021 97.0931 10.5368 97.1017 10.5802 97.1102C11.0658 97.2297 11.5514 97.3493 12.0284 97.4603C12.1151 97.4859 12.2019 97.503 12.2886 97.5201C12.7049 97.6226 13.1211 97.725 13.5287 97.8275L13.8496 97.9043L14.0837 97.9641C14.1791 97.9897 14.2658 98.0068 14.3526 98.0324C24.4035 100.543 31.9222 102.84 36.7959 104.889C37.1255 105.026 37.4376 105.163 37.7411 105.299C37.7411 105.299 37.7412 105.299 37.7498 105.299C47.3065 109.637 54.3829 115.136 58.9878 121.754C59.0311 121.822 59.0832 121.882 59.1265 121.951C59.1352 121.959 59.1352 121.968 59.1438 121.976C63.5926 128.492 65.8734 135.955 66.0035 144.349C66.0295 144.648 66.0382 144.921 66.0382 145.194Z" fill="white"/>
<path d="M37.3161 106.298C32.5551 104.171 24.6635 101.721 13.8581 99.0309L13.2597 98.8857C12.7828 98.7662 12.2971 98.6466 11.8028 98.5271C7.85703 97.5622 4.37084 96.751 0.841309 95.9654C-6.01831 94.4369 -12.0281 92.8827 -17.0232 91.3286C-24.3685 89.1938 -29.988 87.1615 -33.6823 85.2914C-42.311 80.9963 -48.8498 75.5824 -53.0991 69.1952C-54.8422 66.5822 -56.2384 63.7216 -57.2877 60.6646C-58.1029 63.8497 -58.5191 67.0519 -58.5191 70.2369C-58.5191 77.4952 -56.6199 84.1387 -52.8649 89.988C-49.1099 95.8458 -43.2909 100.833 -35.5815 104.812C-29.563 107.963 -18.879 111.353 -3.8156 114.914C11.3519 118.509 21.3334 121.198 25.8516 122.915C32.9367 125.571 38.1139 128.926 41.2532 132.889C44.4098 136.876 46.0055 141.616 46.0055 146.978C46.0055 152.23 44.3578 157.148 41.0971 161.589C37.8538 166.003 32.876 169.521 26.2939 172.04C19.7898 174.525 12.1931 175.789 3.72044 175.789C-5.8015 175.789 -14.517 174.124 -22.1657 170.854C-29.8665 167.549 -35.6422 163.151 -39.3278 157.772C-42.5278 153.092 -44.7392 147.089 -45.9012 139.933H-64.8237C-64.3641 150.155 -61.3722 159.454 -55.9435 167.609C-50.3327 176.037 -42.4584 182.441 -32.5549 186.651C-22.608 190.878 -10.0595 193.021 4.74374 193.021C16.3643 193.021 26.9616 190.903 36.2408 186.719C45.4592 182.561 52.6223 176.66 57.5481 169.18C62.4565 161.708 64.9453 153.639 64.9453 145.202C64.954 136.706 62.6993 129.097 58.2505 122.582C53.7757 116.049 46.734 110.576 37.3161 106.298ZM56.6288 168.582C51.8245 175.892 44.8088 181.656 35.7811 185.729C26.6494 189.845 16.1996 191.937 4.73506 191.937C-9.91209 191.937 -22.3132 189.819 -32.13 185.652C-41.834 181.527 -49.5435 175.26 -55.0329 167.011C-60.1581 159.334 -63.0633 150.59 -63.679 141.009H-46.8378C-45.6151 147.926 -43.395 153.758 -40.247 158.369C-36.4487 163.92 -30.517 168.454 -22.6167 171.836C-14.8292 175.174 -5.96629 176.865 3.70309 176.865C12.3145 176.865 20.0413 175.576 26.6667 173.04C33.4483 170.444 38.5995 166.806 41.9643 162.212C45.3551 157.584 47.0809 152.46 47.0809 146.97C47.0809 141.359 45.4072 136.398 42.0944 132.214C38.8337 128.09 33.4917 124.614 26.2245 121.89C21.663 120.157 11.638 117.441 -3.58146 113.838C-18.5495 110.303 -29.1468 106.938 -35.0871 103.83C-42.6232 99.9446 -48.3034 95.0858 -51.9543 89.3902C-55.588 83.7202 -57.4351 77.2647 -57.4351 70.2113C-57.4351 68.2986 -57.279 66.3687 -56.9755 64.4474C-56.1343 66.3089 -55.1457 68.0936 -54.0356 69.7673C-49.6823 76.3083 -43.0048 81.8502 -34.2026 86.2308C-30.4476 88.1264 -24.776 90.1758 -17.3788 92.3362C-12.3576 93.8989 -6.31316 95.4701 0.572472 96.9986C4.08467 97.7756 7.56216 98.5954 11.508 99.5603C12.0023 99.6799 12.4966 99.7994 12.9735 99.919L13.5632 100.064C24.308 102.737 32.1389 105.162 36.8391 107.263C46.0662 111.455 52.9605 116.801 57.3139 123.162C61.6413 129.499 63.8353 136.902 63.8267 145.176C63.844 153.417 61.4158 161.29 56.6288 168.582Z" fill="white"/>
<path d="M-34.0468 61.1092L-30.8988 57.4288C-29.8582 56.2078 -28.6441 55.055 -27.2999 53.9961C-21.8625 49.7009 -12.7915 47.5149 -0.347046 47.5149C11.5511 47.5149 20.57 49.9315 26.467 54.6878C31.6009 58.8378 34.905 65.1141 36.2752 73.3458L36.7261 76.0612H64.4507L64.2426 72.6285C63.6443 62.911 60.7651 54.1242 55.6833 46.5244C50.2892 38.4464 42.5104 32.247 32.5462 28.1055C22.7727 24.0579 11.4036 22 -1.24895 22C-8.73296 22 -15.9742 22.871 -22.7817 24.5874C-27.3519 25.7401 -31.4018 28.4214 -34.1942 32.1189C-37.3422 36.3116 -38.9465 41.0337 -38.9552 46.1572C-38.9639 49.9571 -38.0793 53.5521 -36.3189 56.8396L-34.0468 61.1092ZM-33.3183 32.7678C-30.682 29.2668 -26.8489 26.7307 -22.5129 25.6377C-15.8007 23.9469 -8.64624 23.0845 -1.24895 23.0845C11.2562 23.0845 22.4779 25.1082 32.1212 29.1045C41.8773 33.1606 49.4914 39.2149 54.764 47.1136C59.7418 54.5512 62.5602 63.1586 63.1499 72.6883L63.2887 74.9768H37.6627L37.3592 73.1665C35.9456 64.6786 32.5115 58.1803 27.1695 53.851C21.073 48.9324 11.8112 46.439 -0.338387 46.439C-13.043 46.439 -22.3395 48.7018 -27.9763 53.1507C-29.3812 54.2523 -30.6386 55.4563 -31.7313 56.7286L-33.83 59.1794L-35.3476 56.3444C-37.0213 53.2105 -37.8625 49.7863 -37.8538 46.1657C-37.8538 41.2813 -36.3189 36.7727 -33.3183 32.7678Z" fill="white"/>
<path d="M-34.3848 55.8485L-33.6304 57.266L-32.581 56.0364C-31.445 54.7128 -30.1355 53.4576 -28.6786 52.3133C-22.8423 47.7022 -13.3117 45.3625 -0.355576 45.3625C3.52084 45.3625 7.11974 45.6101 10.4151 46.1139C17.6737 47.2154 23.5187 49.5296 27.8461 53.0221C33.4049 57.5136 36.9604 64.2339 38.426 72.9951L38.5734 73.9002H62.1008L62.0314 72.756C61.6325 66.3346 60.2102 60.3486 57.7734 54.8665C56.6634 52.3731 55.3539 49.9907 53.8276 47.7107C51.781 44.6452 49.3701 41.87 46.6124 39.3765C42.4238 35.6022 37.4374 32.494 31.6791 30.0945C22.1745 26.1579 11.0916 24.1598 -1.26614 24.1598C-8.56803 24.1598 -15.6271 25.0052 -22.2526 26.6788C-26.3371 27.7121 -29.9621 30.103 -32.4423 33.4077C-32.98 34.125 -33.4656 34.8508 -33.9079 35.6022C-35.8071 38.8386 -36.7697 42.3908 -36.7783 46.1737C-36.7783 46.2505 -36.7697 46.3188 -36.7697 46.3872C-36.7523 49.3161 -36.1453 52.1169 -34.9572 54.7128C-34.7664 55.0971 -34.5843 55.4728 -34.3848 55.8485ZM-35.3041 50.059C-35.3474 49.854 -35.3821 49.6491 -35.4082 49.4356C-35.4342 49.2734 -35.4602 49.1111 -35.4775 48.9489C-35.4949 48.8294 -35.5122 48.7098 -35.5296 48.5902C-35.5296 48.5561 -35.5382 48.5219 -35.5382 48.4963C-35.5382 48.4622 -35.5469 48.428 -35.5469 48.3939C-35.5729 48.1804 -35.5903 47.9754 -35.5989 47.7619C-35.6076 47.6424 -35.625 47.5229 -35.625 47.4033C-35.625 47.3692 -35.625 47.3265 -35.625 47.2923C-35.6423 46.9251 -35.651 46.5579 -35.651 46.1822C-35.651 46.1822 -35.651 46.1822 -35.651 46.1737C-35.651 46.1054 -35.651 46.0456 -35.651 45.9773C-35.6076 41.7931 -34.3415 37.9932 -31.9046 34.5605C-31.7832 34.3897 -31.6618 34.2189 -31.5317 34.0481C-29.3377 31.1363 -26.2071 28.9759 -22.6515 27.917C-22.4174 27.8487 -22.1832 27.7804 -21.9404 27.7206C-16.2775 26.2946 -10.2764 25.4577 -3.92847 25.2784C-3.03525 25.2528 -2.13335 25.2357 -1.22279 25.2357C-0.581055 25.2357 0.0606766 25.2443 0.693741 25.2528C11.5425 25.4321 21.2466 27.1826 29.7799 30.4788C30.2916 30.6752 30.7945 30.8715 31.2975 31.085C31.7311 31.2643 32.1561 31.4522 32.581 31.6401C41.3398 35.5254 48.1387 41.0673 52.9604 48.2914C52.9777 48.317 52.9951 48.3426 53.0124 48.3682C53.2812 48.7781 53.5501 49.188 53.8103 49.6064C53.9837 49.8797 54.1485 50.1615 54.3132 50.4432C54.4086 50.6055 54.504 50.7592 54.5994 50.9214C54.8162 51.3057 55.033 51.69 55.2411 52.0742C55.2758 52.134 55.3018 52.1852 55.3365 52.245C57.5132 56.3182 59.0569 60.656 59.9935 65.2501C60.0022 65.2757 60.0021 65.3013 60.0108 65.3184C60.1062 65.7881 60.1929 66.2577 60.2796 66.7359C60.297 66.8213 60.3056 66.9152 60.323 67.0006C60.3923 67.419 60.4618 67.8289 60.5225 68.2473C60.5485 68.4096 60.5658 68.5633 60.5918 68.7255C60.6438 69.0842 60.6872 69.4343 60.7306 69.7929C60.7566 70.0149 60.7826 70.2455 60.8 70.4675C60.8347 70.7749 60.8607 71.0823 60.8867 71.3897C60.8954 71.4666 60.9041 71.5434 60.9127 71.6288L61.0081 72.7987H39.562C39.5533 72.7475 39.5447 72.6962 39.536 72.645C39.4753 72.2607 39.3973 71.885 39.3279 71.5178C39.2759 71.2531 39.2238 70.9969 39.1718 70.7408C39.1111 70.4675 39.0504 70.1943 38.9897 69.921C38.929 69.6648 38.8682 69.4087 38.8075 69.1525C38.7382 68.8878 38.6775 68.6316 38.6081 68.3754C38.5387 68.1193 38.4693 67.8631 38.3913 67.6154C38.3219 67.3678 38.2439 67.1202 38.1658 66.8811C38.0878 66.6249 38.0097 66.3773 37.923 66.1296C37.845 65.8905 37.7582 65.66 37.6802 65.4294C37.5935 65.1818 37.5067 64.9341 37.4113 64.6865C37.3246 64.4645 37.2379 64.2425 37.1512 64.0205C37.0558 63.7814 36.9518 63.5337 36.8477 63.2946C36.7523 63.0812 36.6569 62.8762 36.5615 62.6627C36.4574 62.4236 36.3447 62.1845 36.2319 61.954C36.1366 61.749 36.0325 61.5526 35.9285 61.3477C35.8157 61.1172 35.6943 60.8866 35.5729 60.6646C35.4688 60.4682 35.3561 60.2803 35.252 60.0839C35.1306 59.8619 35.0005 59.6399 34.8704 59.4264C34.7577 59.2385 34.6363 59.0507 34.5235 58.8714C34.3934 58.6579 34.2547 58.4444 34.116 58.2395C33.9946 58.0602 33.8645 57.8808 33.7344 57.7015C33.5956 57.5051 33.4569 57.3002 33.3095 57.1038C33.1794 56.9244 33.0406 56.7537 32.9018 56.5743C32.7544 56.3865 32.6157 56.1986 32.4596 56.0193C32.3122 55.84 32.1561 55.6692 32.0087 55.4899C31.8612 55.3191 31.7138 55.1483 31.5664 54.9775C31.4016 54.7982 31.2281 54.6274 31.0634 54.4481C30.9159 54.2944 30.7772 54.1407 30.6211 53.987C30.4303 53.7991 30.2309 53.6198 30.0401 53.4319C29.9013 53.3039 29.7713 53.1758 29.6325 53.0477C29.3203 52.7744 29.0081 52.5012 28.6872 52.2365C28.6525 52.2109 28.6265 52.1852 28.5918 52.1596C26.9702 50.8446 25.1404 49.7003 23.1111 48.7098C18.0466 46.242 11.7593 44.7903 4.30133 44.3805C3.00052 44.3121 1.65636 44.2694 0.277496 44.2609C0.0780334 44.2609 -0.11277 44.2524 -0.312225 44.2524C-0.537704 44.2524 -0.754494 44.2609 -0.979965 44.2609C-13.8493 44.3463 -23.3886 46.7543 -29.3203 51.4423C-29.5892 51.6558 -29.8493 51.8693 -30.1008 52.0913C-30.1702 52.1511 -30.2396 52.2023 -30.3003 52.2621C-30.387 52.3389 -30.4824 52.4158 -30.5691 52.4926C-30.8293 52.7147 -31.0808 52.9452 -31.3236 53.1758C-31.3843 53.2355 -31.4537 53.2953 -31.5144 53.3551C-32.1735 53.987 -32.7979 54.6359 -33.3702 55.3105C-33.3789 55.2935 -33.3876 55.2764 -33.3962 55.2679L-33.4483 55.3191L-34.0987 53.7991C-34.142 53.7052 -34.1767 53.6027 -34.2201 53.5002C-34.2894 53.338 -34.3501 53.1758 -34.4108 53.0135C-34.4715 52.8598 -34.5236 52.7061 -34.5756 52.5524C-34.645 52.356 -34.7144 52.1682 -34.7751 51.9718C-34.7924 51.9205 -34.8011 51.8778 -34.8184 51.8266C-34.9659 51.3484 -35.0873 50.8531 -35.2 50.3493C-35.252 50.281 -35.2781 50.17 -35.3041 50.059Z" fill="white"/>
<path d="M-30.0402 50.6313C-23.805 45.7043 -13.8147 43.2023 -0.346947 43.2023C12.5831 43.2023 22.5474 45.9434 29.2509 51.3486C35.0352 56.0281 38.7988 62.885 40.4465 71.7401H59.7853C59.0828 63.2351 56.4726 55.5584 52.0151 48.8894C47.1067 41.5372 39.9869 35.8843 30.8465 32.0843C21.6107 28.2588 10.814 26.3204 -1.24885 26.3204C-8.36863 26.3204 -15.2456 27.1402 -21.689 28.7712C-25.2879 29.6848 -28.4792 31.7855 -30.6646 34.6888C-33.2402 38.1215 -34.5583 41.9897 -34.567 46.1739C-34.5757 48.7186 -34.09 51.1437 -33.1274 53.4066C-32.1822 52.4331 -31.1502 51.5023 -30.0402 50.6313ZM-29.7887 35.3378C-27.7507 32.6308 -24.7762 30.6669 -21.4201 29.8215C-15.0635 28.2161 -8.27324 27.4049 -1.24885 27.4049C10.6666 27.4049 21.3246 29.3177 30.4216 33.0834C39.3625 36.7979 46.3176 42.3142 51.1045 49.4871C55.2498 55.6865 57.7647 62.8081 58.5885 70.6641H41.3571C39.5793 61.9798 35.7463 55.2083 29.9533 50.5203C23.0503 44.9528 12.852 42.1263 -0.338287 42.1263C-14.0662 42.1263 -24.2819 44.7052 -30.7166 49.786C-31.4017 50.3239 -32.0521 50.879 -32.6852 51.4596C-33.2142 49.7774 -33.483 48.0098 -33.4743 46.1824C-33.4656 42.2288 -32.2255 38.5826 -29.7887 35.3378Z" fill="white"/>
</svg>
