<svg width="165" height="255" viewBox="0 0 165 255" fill="none" xmlns="http://www.w3.org/2000/svg">
<path d="M58.7057 153.554C51.213 150.199 38.9853 146.394 22.374 142.257L21.4114 142.027C20.7219 141.86 20.0195 141.694 19.291 141.501C13.3333 140.041 8.06503 138.812 2.70567 137.62C-7.38863 135.379 -16.2471 133.073 -23.6488 130.781C-34.3154 127.681 -42.3545 124.773 -47.5577 122.16C-59.4732 116.23 -68.4228 108.865 -74.1593 100.245C-77.3463 95.467 -79.6748 90.0362 -81.0927 84.1185L-84.9821 67.8387L-90.5496 83.6446C-93.0732 90.8046 -94.348 98.1056 -94.348 105.355C-94.348 117.485 -91.148 128.616 -84.852 138.44C-78.5951 148.2 -69.0342 156.449 -56.4423 162.943C-46.9333 167.913 -30.387 173.203 -7.25855 178.672C15.2065 183.988 29.9057 187.946 36.4227 190.431C45.9187 193.992 52.7349 198.334 56.6894 203.329C60.5008 208.145 62.426 213.909 62.426 220.48C62.426 226.974 60.3707 233.071 56.3122 238.604C52.2016 244.202 45.7236 248.723 37.0602 252.041C28.0716 255.486 17.4699 257.228 5.5805 257.228C-7.80486 257.228 -19.9805 254.923 -30.6211 250.363C-41.0146 245.905 -48.7154 240.09 -53.5284 233.058C-57.9772 226.551 -61.0211 217.982 -62.5561 207.594L-63.1675 203.432H-104L-103.87 208.414C-103.402 225.616 -98.5366 241.281 -89.4049 254.961C-80.2732 268.679 -67.4862 279.093 -51.4341 285.907C-35.6813 292.606 -15.987 296 7.11545 296C25.4959 296 42.3154 292.619 57.1057 285.958C72.078 279.195 83.7724 269.55 91.8504 257.279C99.9155 245.009 104 231.726 104 217.803C104.013 203.752 100.254 191.11 92.826 180.248C85.4244 169.463 73.9512 160.484 58.7057 153.554ZM90.4585 256.396C82.5496 268.397 71.1024 277.85 56.4162 284.485C41.8471 291.056 25.2618 294.386 7.11545 294.386C-15.7658 294.386 -35.239 291.043 -50.7837 284.434C-66.5496 277.748 -79.0764 267.526 -88.039 254.077C-97.0016 240.654 -101.776 225.27 -102.231 208.376L-102.322 205.045H-64.5984L-64.1951 207.812C-62.6211 218.431 -59.4992 227.23 -54.9073 233.942C-49.9122 241.23 -41.9642 247.25 -31.2976 251.823C-20.4488 256.472 -8.05204 258.829 5.55446 258.829C17.652 258.829 28.4358 257.049 37.6195 253.539C46.5951 250.106 53.3203 245.393 57.613 239.539C61.8797 233.724 64.039 227.307 64.039 220.467C64.039 213.525 61.9968 207.428 57.9512 202.317C53.8017 197.078 46.7512 192.57 36.9691 188.906C30.387 186.396 15.6228 182.425 -6.92033 177.084C-29.9057 171.653 -46.322 166.414 -55.7138 161.509C-68.0455 155.156 -77.3984 147.099 -83.5122 137.582C-89.639 128.027 -92.748 117.178 -92.748 105.355C-92.748 98.2849 -91.4992 91.1633 -89.0407 84.1698L-85.3203 73.641L-82.7317 84.5028C-81.2748 90.5997 -78.8683 96.1971 -75.5772 101.141C-69.6845 109.992 -60.5138 117.562 -48.3382 123.621C-43.0439 126.285 -34.9138 129.218 -24.1561 132.356C-16.7415 134.662 -7.84391 136.967 2.30243 139.234C7.63576 140.426 12.904 141.655 18.8617 143.103C19.6683 143.308 20.4358 143.487 21.2033 143.679L21.9447 143.858C38.452 147.97 50.5886 151.736 57.9902 155.053C72.9496 161.842 84.2016 170.628 91.4211 181.17C98.6667 191.763 102.322 204.085 102.309 217.816C102.348 231.393 98.3415 244.381 90.4585 256.396Z" fill="white"/>
<path d="M70.0232 163.316C70.0102 163.303 69.9842 163.29 69.9712 163.277C66.1208 160.844 61.9191 158.576 57.3533 156.501C50.0297 153.222 37.9972 149.495 21.5939 145.409L20.6834 145.191C19.9679 145.025 19.2525 144.846 18.511 144.653C12.5663 143.206 7.311 141.976 1.99068 140.785C-5.6581 139.082 -12.5914 137.352 -18.7183 135.623C-20.7606 135.047 -22.7118 134.47 -24.5719 133.894C-35.4337 130.73 -43.6548 127.759 -49.0272 125.056C-49.8077 124.672 -50.5752 124.275 -51.3166 123.878C-52.2662 123.378 -53.1898 122.866 -54.1004 122.341C-64.0386 116.654 -71.7004 109.839 -76.8906 102.026C-80.2857 96.9282 -82.7703 91.1515 -84.2792 84.8624L-85.58 79.4315L-87.4402 84.6959C-89.8467 91.5101 -91.0565 98.4652 -91.0565 105.344C-91.0565 112.401 -89.9118 119.113 -87.6614 125.376C-87.6223 125.492 -87.5833 125.607 -87.5443 125.722C-87.5053 125.812 -87.4662 125.914 -87.4402 126.004C-86.0483 129.718 -84.2662 133.292 -82.0809 136.686C-79.8695 140.132 -77.2158 143.385 -74.1329 146.434C-68.9297 151.583 -62.4906 156.143 -54.9069 160.049C-51.7199 161.715 -47.7004 163.418 -42.8743 165.16C-33.6646 168.49 -21.489 171.936 -6.49065 175.484C-3.98007 176.073 -1.57353 176.65 0.741913 177.213C12.124 179.967 21.1907 182.311 27.8508 184.232C32.0525 185.449 35.3045 186.487 37.5939 187.358C41.0541 188.651 44.189 190.073 46.9857 191.584C50.7971 193.634 53.9842 195.875 56.5338 198.296C57.0151 198.745 57.4573 199.218 57.8866 199.68C58.3809 200.205 58.8492 200.743 59.2785 201.293C63.5451 206.686 65.7175 213.129 65.7175 220.43C65.7175 227.615 63.4541 234.353 58.9793 240.45C54.4915 246.559 47.5191 251.452 38.2443 255C28.8655 258.587 17.8736 260.406 5.58094 260.406C-8.2467 260.406 -20.8776 257.998 -31.9345 253.271C-42.224 248.865 -50.0549 243.127 -55.2581 236.21C-55.6093 235.749 -55.9345 235.288 -56.2597 234.814C-59.7069 229.78 -62.3345 223.619 -64.1426 216.459C-64.8191 213.782 -65.3784 210.964 -65.8077 208.018L-66.0158 206.635H-100.63L-100.591 208.3C-100.136 224.9 -95.4532 239.989 -86.6727 253.156C-77.8922 266.336 -65.5996 276.352 -50.1459 282.91C-34.8093 289.43 -15.5573 292.735 7.10287 292.735C25.0151 292.735 41.3663 289.456 55.7272 282.987C56.6248 282.577 57.5094 282.168 58.3939 281.732C66.0427 277.992 72.7289 273.432 78.4134 268.104C78.5825 267.95 78.7647 267.783 78.9338 267.63L78.9467 267.617C82.8102 263.928 86.1923 259.88 89.0931 255.487C96.807 243.741 100.722 231.061 100.722 217.765C100.735 204.368 97.1712 192.34 90.1208 182.029C85.2427 174.984 78.5305 168.708 70.0232 163.316ZM99.0573 217.791C99.0573 218.214 99.0443 218.636 99.0313 219.059C98.7971 231.612 95.0248 243.473 87.7013 254.629C80.4687 265.606 70.2313 274.277 57.015 280.605C56.3646 280.912 55.7142 281.233 55.0508 281.527C54.4654 281.796 53.8671 282.04 53.2687 282.296C39.5191 288.175 24.1435 291.121 7.11589 291.121C-14.4516 291.121 -32.663 288.149 -47.5183 282.219C-48.1687 281.963 -48.8321 281.694 -49.4695 281.425C-49.9898 281.207 -50.4971 280.964 -51.0044 280.746C-65.4825 274.29 -76.9166 264.812 -85.2679 252.272C-85.7882 251.478 -86.3085 250.684 -86.8028 249.89C-87.1931 249.249 -87.5833 248.596 -87.9605 247.956C-88.0516 247.802 -88.1427 247.661 -88.2337 247.507C-92.8516 239.451 -95.9735 230.779 -97.6126 221.493C-97.6256 221.442 -97.6256 221.39 -97.6386 221.352C-97.7817 220.532 -97.9118 219.712 -98.0288 218.893C-98.0549 218.713 -98.0809 218.534 -98.1069 218.355C-98.2109 217.65 -98.289 216.933 -98.38 216.228C-98.4191 215.921 -98.4451 215.601 -98.4841 215.293C-98.5491 214.691 -98.6012 214.089 -98.6532 213.475C-98.6922 213.052 -98.7183 212.629 -98.7443 212.194C-98.7833 211.669 -98.8093 211.143 -98.8353 210.618C-98.8483 210.4 -98.8613 210.183 -98.8744 209.965L-98.9524 208.274H-67.4337C-67.4207 208.402 -67.3947 208.53 -67.3687 208.658C-67.3036 209.107 -67.2256 209.555 -67.1605 210.003C-67.1085 210.311 -67.0565 210.618 -67.0044 210.926C-66.9394 211.284 -66.8744 211.63 -66.8093 211.989C-66.7443 212.296 -66.6922 212.604 -66.6272 212.911C-66.5622 213.244 -66.4971 213.577 -66.4191 213.91C-66.354 214.217 -66.289 214.538 -66.2109 214.845C-66.1329 215.165 -66.0679 215.486 -65.9898 215.806C-65.9118 216.113 -65.8337 216.433 -65.7687 216.741C-65.6906 217.048 -65.6126 217.343 -65.5345 217.65C-65.4565 217.958 -65.3654 218.278 -65.2874 218.585C-65.2093 218.88 -65.1313 219.162 -65.0402 219.456C-64.9491 219.764 -64.8581 220.071 -64.767 220.378C-64.676 220.66 -64.5979 220.942 -64.5069 221.211C-64.4158 221.518 -64.3118 221.826 -64.2077 222.12C-64.1166 222.389 -64.0256 222.658 -63.9345 222.927C-63.8304 223.222 -63.7264 223.529 -63.6223 223.824C-63.5313 224.093 -63.4272 224.349 -63.3231 224.605C-63.2191 224.9 -63.102 225.182 -62.9979 225.476C-62.8939 225.732 -62.7898 225.989 -62.6857 226.245C-62.5687 226.527 -62.4516 226.808 -62.3345 227.077C-62.2175 227.334 -62.1134 227.59 -61.9963 227.846C-61.8792 228.115 -61.7622 228.384 -61.6451 228.64C-61.528 228.896 -61.3979 229.152 -61.2809 229.409C-61.1638 229.652 -61.0467 229.908 -60.9166 230.151C-60.7866 230.42 -60.6435 230.677 -60.5134 230.933C-60.3963 231.163 -60.2793 231.394 -60.1492 231.612C-59.9931 231.893 -59.837 232.162 -59.6939 232.431C-59.5768 232.636 -59.4727 232.841 -59.3557 233.033C-59.1735 233.341 -58.9914 233.635 -58.8093 233.93C-58.7182 234.084 -58.6142 234.25 -58.5232 234.404C-58.237 234.852 -57.9508 235.301 -57.6516 235.736C-57.4695 235.992 -57.2873 236.248 -57.1052 236.505C-56.5979 237.209 -56.0646 237.914 -55.5053 238.605C-50.4841 244.741 -43.3817 249.902 -34.3671 254.014C-33.7947 254.27 -33.2093 254.539 -32.624 254.795C-31.9996 255.064 -31.3622 255.321 -30.7248 255.577C-28.9817 256.268 -27.1866 256.909 -25.3784 257.498C-16.3248 260.418 -6.39956 261.943 4.22808 262.058C4.67036 262.058 5.0996 262.071 5.54188 262.071C5.88009 262.071 6.20531 262.058 6.54353 262.058C18.6411 261.955 29.4899 260.111 38.8037 256.55C45.9842 253.809 51.8378 250.261 56.2866 245.97C57.7695 244.536 59.0963 243.024 60.2671 241.436C60.5533 241.039 60.8395 240.642 61.1126 240.232C65.1191 234.34 67.2005 227.884 67.3045 221.032C67.3045 220.84 67.3175 220.66 67.3175 220.468C67.3175 220.314 67.3045 220.161 67.3045 220.007C67.3045 219.687 67.3045 219.367 67.2915 219.046C67.0313 212.13 64.8589 205.994 60.8394 200.743C60.7354 200.602 60.6313 200.474 60.5273 200.333C60.4752 200.256 60.4102 200.192 60.3451 200.115C59.2524 198.77 58.0037 197.464 56.5728 196.208C52.8135 192.917 47.8963 189.958 41.8736 187.383C40.6638 186.871 39.415 186.371 38.1272 185.885C36.5662 185.295 34.5501 184.617 32.1045 183.861C26.6931 182.196 19.1484 180.159 9.50938 177.738C7.11588 177.136 4.57928 176.521 1.92561 175.868C-0.649994 175.241 -3.34267 174.6 -6.16544 173.934C-29.0077 168.542 -45.0337 163.431 -54.1914 158.641C-65.5865 152.761 -74.1849 145.537 -80.0126 136.943C-80.2597 136.584 -80.5069 136.212 -80.754 135.841C-80.9492 135.534 -81.1443 135.213 -81.3264 134.906C-86.7638 126.068 -89.4825 116.205 -89.4825 105.344C-89.4825 105.331 -89.4825 105.331 -89.4825 105.318C-89.4825 104.575 -89.4565 103.832 -89.4304 103.089C-89.4304 102.987 -89.4305 102.897 -89.4175 102.795C-89.4045 102.615 -89.3914 102.436 -89.3784 102.269C-89.3524 101.783 -89.3134 101.283 -89.2744 100.796C-89.2483 100.489 -89.2353 100.194 -89.1963 99.887C-89.1313 99.2338 -89.0662 98.5805 -88.9752 97.9145C-88.9231 97.5174 -88.8581 97.1331 -88.8061 96.7361C-88.754 96.403 -88.702 96.07 -88.6499 95.7242C-88.5849 95.3271 -88.5069 94.9172 -88.4419 94.5202C-88.3768 94.1615 -88.2988 93.8157 -88.2337 93.457C-88.1297 92.9703 -88.0256 92.4836 -87.9215 91.9969C-87.8174 91.5229 -87.7004 91.049 -87.5833 90.5751L-87.4792 90.1652C-87.4662 90.1268 -87.4662 90.0884 -87.4532 90.0627L-86.2174 85.2339L-86.0873 85.6053C-86.0353 85.4644 -85.9963 85.3363 -85.9573 85.1954C-85.7622 86.0024 -85.554 86.7965 -85.3329 87.5907C-85.3199 87.6291 -85.3069 87.6547 -85.3069 87.6931C-84.8646 89.2302 -84.3703 90.7288 -83.8239 92.189C-83.7849 92.2786 -83.7459 92.3683 -83.7199 92.4708C-83.4988 93.0472 -83.2646 93.6236 -83.0174 94.2C-82.9264 94.4049 -82.8483 94.6098 -82.7573 94.8148C-82.5361 95.3271 -82.302 95.8266 -82.0678 96.339C-81.9898 96.4927 -81.9248 96.6464 -81.8467 96.8001C-81.5475 97.4277 -81.2223 98.0425 -80.8971 98.6574C-80.8061 98.8239 -80.715 98.9904 -80.624 99.1569C-80.3638 99.6308 -80.0906 100.105 -79.8175 100.566C-79.7134 100.732 -79.6093 100.912 -79.5183 101.078C-79.2971 101.437 -79.076 101.783 -78.8418 102.141C-78.6858 102.385 -78.5296 102.641 -78.3735 102.884C-72.9361 111.056 -64.9101 118.152 -54.4906 124.031C-53.0077 124.877 -51.4597 125.684 -49.8727 126.478C-45.1117 128.873 -38.1914 131.46 -29.2679 134.189C-29.2158 134.202 -29.1638 134.214 -29.1118 134.24C-28.5784 134.406 -28.0321 134.56 -27.4857 134.727C-27.3687 134.765 -27.2646 134.791 -27.1475 134.829C-26.4971 135.021 -25.8337 135.213 -25.1573 135.418H-25.1313C-24.741 135.546 -24.3378 135.662 -23.9345 135.79C-20.3313 136.879 -16.4028 137.98 -12.1752 139.069C-8.10365 140.119 -3.74593 141.157 0.871964 142.194C1.0931 142.245 1.31425 142.297 1.53539 142.348C1.5614 142.348 1.57439 142.361 1.60041 142.361C2.28984 142.514 2.96629 142.668 3.65572 142.822C3.86385 142.873 4.07199 142.911 4.28012 142.963C4.76143 143.078 5.24272 143.18 5.73703 143.296C6.02321 143.36 6.30939 143.424 6.59557 143.488C6.81671 143.539 7.03782 143.59 7.25896 143.642C7.44107 143.68 7.62319 143.718 7.7923 143.77C8.10449 143.846 8.4167 143.911 8.74191 143.987C9.10613 144.077 9.47035 144.154 9.83458 144.244C10.1858 144.32 10.537 144.41 10.8882 144.487C11.2134 144.564 11.5386 144.641 11.8638 144.717C12.2801 144.82 12.6964 144.91 13.1126 145.012C13.3598 145.076 13.6069 145.127 13.8671 145.191C14.4785 145.332 15.0898 145.486 15.6882 145.627C15.7532 145.64 15.8053 145.652 15.8703 145.665C16.5988 145.845 17.3272 146.024 18.0427 146.19C18.1727 146.229 18.3029 146.255 18.433 146.28C19.0574 146.434 19.6817 146.588 20.2931 146.741L20.7744 146.856L21.1257 146.946C21.2688 146.985 21.3988 147.01 21.5289 147.049C36.6053 150.814 47.8834 154.26 55.194 157.334C55.6883 157.539 56.1565 157.744 56.6118 157.949C56.6118 157.949 56.6118 157.949 56.6248 157.949C70.9598 164.456 81.5744 172.704 88.4817 182.631C88.5468 182.734 88.6248 182.823 88.6899 182.926C88.7029 182.939 88.7029 182.951 88.7159 182.964C95.389 192.737 98.8102 203.932 99.0053 216.523C99.0443 216.971 99.0573 217.381 99.0573 217.791Z" fill="white"/>
<path d="M55.9742 159.447C48.8327 156.257 36.9954 152.581 20.7872 148.546L19.8897 148.329C19.1742 148.149 18.4458 147.97 17.7043 147.791C11.7856 146.343 6.55634 145.126 1.26203 143.948C-9.0274 141.655 -18.042 139.324 -25.5347 136.993C-36.5526 133.791 -44.9819 130.742 -50.5233 127.937C-63.4664 121.494 -73.2746 113.374 -79.6485 103.793C-82.2632 99.8733 -84.3575 95.5824 -85.9315 90.9969C-87.1542 95.7745 -87.7786 100.578 -87.7786 105.355C-87.7786 116.243 -84.9298 126.208 -79.2973 134.982C-73.6648 143.769 -64.9363 151.249 -53.3721 157.218C-44.3445 161.944 -28.3185 167.029 -5.72333 172.371C17.0279 177.763 32.0002 181.798 38.7774 184.372C49.4051 188.356 57.1709 193.39 61.8799 199.333C66.6148 205.314 69.0084 212.423 69.0084 220.467C69.0084 228.345 66.5368 235.722 61.6457 242.383C56.7807 249.005 49.314 254.282 39.4409 258.061C29.6848 261.788 18.2897 263.684 5.58074 263.684C-8.70219 263.684 -21.7754 261.186 -33.2485 256.28C-44.7998 251.323 -53.4632 244.727 -58.9916 236.657C-63.7916 229.638 -67.1087 220.634 -68.8518 209.9H-97.2355C-96.5461 225.232 -92.0583 239.181 -83.9152 251.413C-75.4989 264.055 -63.6876 273.662 -48.8323 279.976C-33.912 286.317 -15.0892 289.532 7.11569 289.532C24.5466 289.532 40.4425 286.355 54.3612 280.079C68.1889 273.841 78.9336 264.99 86.3222 253.77C93.6848 242.562 97.4181 230.458 97.4181 217.803C97.4311 205.058 94.049 193.646 87.3759 183.873C80.6637 174.074 70.101 165.864 55.9742 159.447ZM84.9433 252.873C77.7368 263.837 67.2132 272.483 53.6718 278.593C39.9742 284.767 24.2994 287.905 7.10267 287.905C-14.8681 287.905 -33.4697 284.728 -48.1949 278.478C-62.751 272.291 -74.3152 262.89 -82.5493 250.516C-90.2371 239.001 -94.5949 225.885 -95.5184 211.514H-70.2567C-68.4225 221.889 -65.0924 230.637 -60.3705 237.554C-54.6729 245.88 -45.7754 252.681 -33.925 257.753C-22.2437 262.762 -8.94936 265.298 5.5547 265.298C18.4718 265.298 30.062 263.364 40.0002 259.559C50.1725 255.666 57.8994 250.209 62.9465 243.318C68.0327 236.376 70.6214 228.69 70.6214 220.454C70.6214 212.039 68.1108 204.597 63.1417 198.321C58.2507 192.134 50.2377 186.921 39.3369 182.835C32.4946 180.235 17.4571 176.162 -5.37212 170.757C-27.8242 165.454 -43.7201 160.407 -52.6306 155.745C-63.9347 149.917 -72.455 142.629 -77.9315 134.085C-83.3819 125.58 -86.1526 115.897 -86.1526 105.317C-86.1526 102.448 -85.9185 99.5531 -85.4632 96.6711C-84.2014 99.4634 -82.7184 102.14 -81.0534 104.651C-74.5233 114.462 -64.5071 122.775 -51.3038 129.346C-45.6713 132.19 -37.164 135.264 -26.0681 138.504C-18.5364 140.848 -9.46967 143.205 0.85878 145.498C6.12708 146.663 11.3433 147.893 17.262 149.34C18.0035 149.52 18.7449 149.699 19.4604 149.878L20.3449 150.096C36.462 154.105 48.2084 157.743 55.2588 160.894C69.0994 167.183 79.4409 175.201 85.971 184.744C92.462 194.248 95.7531 205.353 95.7401 217.765C95.7661 230.125 92.1238 241.935 84.9433 252.873Z" fill="white"/>
<path d="M-51.0701 91.6638L-46.3481 86.1433C-44.7872 84.3116 -42.966 82.5825 -40.9498 80.9942C-32.7937 74.5514 -19.1872 71.2724 -0.520493 71.2724C17.3267 71.2724 30.8551 74.8973 39.7006 82.0317C47.4014 88.2567 52.3575 97.6711 54.4128 110.019L55.0892 114.092H96.6762L96.364 108.943C95.4665 94.3664 91.1478 81.1863 83.525 69.7866C75.4339 57.6696 63.7657 48.3704 48.8193 42.1582C34.1592 36.0869 17.1055 33 -1.87335 33C-13.0994 33 -23.9612 34.3065 -34.1726 36.881C-41.0278 38.6102 -47.1026 42.6321 -51.2912 48.1783C-56.0132 54.4674 -58.4197 61.5506 -58.4327 69.2358C-58.4457 74.9356 -57.1189 80.3281 -54.4782 85.2595L-51.0701 91.6638ZM-49.9774 49.1518C-46.023 43.9002 -40.2733 40.096 -33.7693 38.4565C-23.701 35.9204 -12.9693 34.6267 -1.87335 34.6267C16.8844 34.6267 33.7169 37.6623 48.1819 43.6568C62.8161 49.7409 74.2372 58.8223 82.1461 70.6704C89.6128 81.8268 93.8404 94.7379 94.725 109.032L94.9332 112.465H56.4942L56.0388 109.75C53.9185 97.0179 48.7673 87.2704 40.7543 80.7764C31.6096 73.3986 17.7169 69.6585 -0.507515 69.6585C-19.5644 69.6585 -33.5091 73.0528 -41.9644 79.7261C-44.0717 81.3784 -45.9579 83.1845 -47.5969 85.093L-50.7449 88.769L-53.0213 84.5166C-55.5319 79.8158 -56.7937 74.6795 -56.7807 69.2486C-56.7807 61.922 -54.4782 55.159 -49.9774 49.1518Z" fill="white"/>
<path d="M-51.5772 83.7728L-50.4455 85.899L-48.8715 84.0546C-47.1674 82.0692 -45.2032 80.1863 -43.0178 78.47C-34.2634 71.5533 -19.9674 68.0437 -0.533295 68.0437C5.28133 68.0437 10.6797 68.4151 15.6228 69.1709C26.5106 70.8232 35.2781 74.2943 41.7692 79.5331C50.1074 86.2705 55.4406 96.3509 57.639 109.493L57.8602 110.85H93.1513L93.0472 109.134C92.4488 99.5019 90.3154 90.523 86.6601 82.2998C84.9951 78.5596 83.0309 74.986 80.7415 71.5661C77.6715 66.9678 74.0553 62.805 69.9187 59.0648C63.6358 53.4034 56.1561 48.741 47.5187 45.1417C33.2618 39.2369 16.6375 36.2397 -1.89913 36.2397C-12.852 36.2397 -23.4406 37.5077 -33.3788 40.0182C-39.5056 41.5681 -44.943 45.1545 -48.6634 50.1115C-49.4699 51.1874 -50.1983 52.2762 -50.8617 53.4033C-53.7105 58.2578 -55.1544 63.5863 -55.1674 69.2605C-55.1674 69.3758 -55.1544 69.4783 -55.1544 69.5807C-55.1284 73.9741 -54.2178 78.1754 -52.4357 82.0692C-52.1495 82.6456 -51.8764 83.2092 -51.5772 83.7728ZM-52.956 75.0885C-53.0211 74.7811 -53.0731 74.4737 -53.1122 74.1535C-53.1512 73.9101 -53.1902 73.6667 -53.2162 73.4234C-53.2422 73.244 -53.2682 73.0647 -53.2943 72.8854C-53.2943 72.8341 -53.3073 72.7829 -53.3073 72.7445C-53.3073 72.6933 -53.3203 72.642 -53.3203 72.5908C-53.3593 72.2706 -53.3853 71.9631 -53.3983 71.6429C-53.4114 71.4636 -53.4374 71.2843 -53.4374 71.105C-53.4374 71.0537 -53.4374 70.9897 -53.4374 70.9385C-53.4634 70.3877 -53.4764 69.8369 -53.4764 69.2733C-53.4764 69.2733 -53.4764 69.2733 -53.4764 69.2605C-53.4764 69.1581 -53.4764 69.0684 -53.4764 68.9659C-53.4114 62.6896 -51.5122 56.9898 -47.8569 51.8407C-47.6748 51.5845 -47.4927 51.3283 -47.2975 51.0722C-44.0065 46.7044 -39.3105 43.4638 -33.9772 41.8755C-33.626 41.7731 -33.2748 41.6706 -32.9105 41.5809C-24.4162 39.4419 -15.4146 38.1866 -5.89264 37.9176C-4.5528 37.8792 -3.19996 37.8536 -1.83411 37.8536C-0.871506 37.8536 0.0910797 37.8664 1.04068 37.8792C17.3138 38.1482 31.8699 40.774 44.67 45.7181C45.4374 46.0127 46.1919 46.3073 46.9464 46.6275C47.5968 46.8965 48.2341 47.1783 48.8716 47.4601C62.0098 53.2881 72.2081 61.6009 79.4407 72.4371C79.4667 72.4755 79.4927 72.5139 79.5187 72.5524C79.922 73.1672 80.3253 73.782 80.7155 74.4096C80.9757 74.8195 81.2228 75.2422 81.4699 75.6649C81.613 75.9082 81.7561 76.1388 81.8992 76.3822C82.2244 76.9585 82.5496 77.5349 82.8618 78.1113C82.9138 78.201 82.9528 78.2778 83.0049 78.3675C86.2699 84.4772 88.5854 90.9841 89.9903 97.8752C90.0033 97.9136 90.0033 97.952 90.0163 97.9776C90.1594 98.6821 90.2894 99.3866 90.4195 100.104C90.4455 100.232 90.4585 100.373 90.4845 100.501C90.5886 101.129 90.6927 101.743 90.7838 102.371C90.8228 102.614 90.8488 102.845 90.8878 103.088C90.9658 103.626 91.0309 104.151 91.096 104.689C91.135 105.022 91.174 105.368 91.2001 105.701C91.2521 106.162 91.2911 106.623 91.3301 107.085C91.3431 107.2 91.3562 107.315 91.3692 107.443L91.5122 109.198H59.3431C59.3301 109.121 59.3171 109.044 59.3041 108.967C59.213 108.391 59.096 107.828 58.9919 107.277C58.9139 106.88 58.8358 106.495 58.7578 106.111C58.6667 105.701 58.5756 105.291 58.4846 104.882C58.3935 104.497 58.3024 104.113 58.2114 103.729C58.1073 103.332 58.0163 102.947 57.9122 102.563C57.8082 102.179 57.7041 101.795 57.587 101.423C57.4829 101.052 57.3659 100.68 57.2488 100.322C57.1317 99.9374 57.0147 99.5659 56.8846 99.1944C56.7675 98.8358 56.6374 98.49 56.5203 98.1441C56.3903 97.7727 56.2602 97.4012 56.1171 97.0298C55.987 96.6967 55.8569 96.3637 55.7269 96.0307C55.5838 95.6721 55.4277 95.3006 55.2716 94.9419C55.1285 94.6217 54.9854 94.3143 54.8423 93.9941C54.6862 93.6355 54.5171 93.2768 54.348 92.931C54.2049 92.6236 54.0488 92.329 53.8927 92.0216C53.7236 91.6757 53.5415 91.3299 53.3594 90.9969C53.2033 90.7023 53.0342 90.4205 52.8781 90.1259C52.696 89.7929 52.5008 89.4598 52.3057 89.1396C52.1366 88.8578 51.9545 88.576 51.7854 88.3071C51.5902 87.9868 51.3821 87.6666 51.174 87.3592C50.9919 87.0902 50.7968 86.8212 50.6017 86.5523C50.3935 86.2577 50.1854 85.9502 49.9643 85.6556C49.7691 85.3867 49.561 85.1305 49.3528 84.8615C49.1317 84.5797 48.9236 84.2979 48.6895 84.0289C48.4684 83.76 48.2342 83.5038 48.013 83.2348C47.7919 82.9786 47.5708 82.7225 47.3496 82.4663C47.1025 82.1973 46.8423 81.9411 46.5951 81.6722C46.374 81.4416 46.1658 81.211 45.9317 80.9805C45.6455 80.6987 45.3464 80.4297 45.0602 80.1479C44.8521 79.9558 44.657 79.7636 44.4488 79.5715C43.9805 79.1616 43.5122 78.7518 43.0309 78.3547C42.9789 78.3163 42.9399 78.2778 42.8878 78.2394C40.4553 76.2669 37.7106 74.5505 34.6667 73.0647C27.0699 69.363 17.6391 67.1855 6.45206 66.5707C4.50085 66.4682 2.4846 66.4042 0.416313 66.3913C0.117126 66.3913 -0.169083 66.3786 -0.468269 66.3786C-0.80648 66.3786 -1.13167 66.3913 -1.46988 66.3913C-20.7739 66.5194 -35.0829 70.1315 -43.9804 77.1635C-44.3837 77.4837 -44.7739 77.8039 -45.1512 78.1369C-45.2552 78.2266 -45.3593 78.3035 -45.4504 78.3931C-45.5804 78.5084 -45.7235 78.6237 -45.8536 78.739C-46.2439 79.072 -46.6211 79.4178 -46.9853 79.7636C-47.0764 79.8533 -47.1804 79.943 -47.2715 80.0326C-48.2601 80.9805 -49.1967 81.9539 -50.0553 82.9658C-50.0683 82.9402 -50.0813 82.9146 -50.0943 82.9018L-50.1723 82.9786L-51.1479 80.6987C-51.213 80.5578 -51.265 80.4041 -51.33 80.2504C-51.4341 80.007 -51.5251 79.7636 -51.6162 79.5203C-51.7073 79.2897 -51.7853 79.0592 -51.8634 78.8286C-51.9674 78.534 -52.0715 78.2522 -52.1626 77.9576C-52.1886 77.8808 -52.2016 77.8167 -52.2276 77.7399C-52.4487 77.0226 -52.6308 76.2797 -52.7999 75.524C-52.878 75.4215 -52.917 75.255 -52.956 75.0885Z" fill="white"/>
<path d="M-45.0602 75.947C-35.7074 68.5564 -20.722 64.8034 -0.520348 64.8034C18.8748 64.8034 33.8211 68.915 43.8764 77.0229C52.5528 84.0421 58.1983 94.3275 60.6699 107.61H89.678C88.6243 94.8527 84.7089 83.3376 78.0227 73.334C70.6601 62.3057 59.9804 53.8264 46.2699 48.1265C32.4162 42.3882 16.2211 39.4807 -1.8732 39.4807C-12.5529 39.4807 -22.8683 40.7103 -32.5334 43.1567C-37.9317 44.5273 -42.7187 47.6782 -45.9968 52.0332C-49.8602 57.1823 -51.8374 62.9846 -51.8504 69.2609C-51.8635 73.0779 -51.135 76.7155 -49.6911 80.1098C-48.2732 78.6497 -46.7252 77.2535 -45.0602 75.947ZM-44.683 53.0066C-41.626 48.9463 -37.1643 46.0003 -32.1301 44.7322C-22.5952 42.3242 -12.4098 41.1073 -1.8732 41.1073C16 41.1073 31.9869 43.9765 45.6325 49.6251C59.0439 55.1969 69.4764 63.4713 76.6569 74.2307C82.8748 83.5298 86.6471 94.2122 87.8828 105.996H62.0357C59.369 92.9698 53.6195 82.8125 44.9301 75.7805C34.5756 67.4292 19.278 63.1895 -0.507362 63.1895C-21.0992 63.1895 -36.4228 67.0578 -46.0748 74.6789C-47.1025 75.4859 -48.0781 76.3185 -49.0277 77.1895C-49.8212 74.6661 -50.2244 72.0147 -50.2114 69.2737C-50.1984 63.3432 -48.3382 57.8739 -44.683 53.0066Z" fill="white"/>
</svg>
