<svg width="206" height="498" viewBox="0 0 206 498" fill="none" xmlns="http://www.w3.org/2000/svg">
<g opacity="0.4" filter="url(#filter0_f)">
<path d="M83.4107 239.15C72.6454 234.245 55.1204 228.758 31.0861 222.773C29.5839 222.44 28.0818 222.025 26.4962 221.609C18.902 219.78 10.974 217.868 2.21155 215.873C-13.2272 212.381 -26.2458 208.973 -37.0946 205.564C-52.7002 200.992 -65.218 196.503 -73.5633 192.18C-92.3401 182.703 -106.36 170.981 -115.623 157.015C-121.048 148.785 -124.636 139.973 -126.806 130.662C-130.144 140.306 -131.98 150.282 -131.98 160.673C-131.98 177.466 -127.724 192.596 -119.128 206.146C-110.533 219.697 -97.5142 231.003 -79.9892 240.147C-66.4699 247.297 -42.8528 254.945 -9.138 262.926C24.5768 270.989 46.3578 276.975 56.2052 280.716C71.5605 286.535 82.5762 293.684 89.2524 302.247C95.9286 310.81 99.2667 320.786 99.2667 332.258C99.2667 343.564 95.7617 353.955 88.8351 363.515C81.9086 373.076 71.3936 380.558 57.2067 386.044C43.0197 391.531 26.6631 394.274 8.13666 394.274C-12.7265 394.274 -31.5033 390.617 -48.1937 383.384C-64.8842 376.152 -77.1518 366.674 -85.0798 354.953C-92.4236 344.146 -97.1803 330.346 -99.517 313.969H-146C-145.332 338.41 -138.656 360.273 -125.888 379.643C-113.12 399.013 -95.5113 413.478 -73.0626 423.121C-50.6139 432.765 -22.8242 437.586 10.3898 437.586C36.5939 437.586 60.1275 432.848 81.0741 423.287C102.021 413.727 118.044 400.343 129.226 383.135C140.409 365.926 146 347.637 146 328.184C146 308.565 140.91 291.274 130.812 276.227C120.547 261.429 104.775 248.959 83.4107 239.15Z" fill="url(#paint0_linear)"/>
<path d="M-65.1385 118.691C-51.7026 107.967 -30.3388 102.564 -0.963577 102.564C27.2433 102.564 48.5237 108.466 62.961 120.271C75.9796 130.912 83.9075 146.457 87.2457 166.409H134.647C133.395 146.125 127.637 127.753 116.871 111.542C105.689 94.583 89.7493 81.7806 68.9696 73.0518C48.19 64.3229 24.2391 60 -2.96642 60C-19.2396 60 -34.5114 61.912 -48.7818 65.5699C-57.2105 67.7313 -64.8047 72.8023 -69.9787 79.7023C-75.9873 87.7661 -79.0751 96.8275 -79.0751 106.803C-79.0751 114.452 -77.3225 121.185 -74.0679 127.337C-71.5643 124.261 -68.56 121.352 -65.1385 118.691Z" fill="url(#paint1_linear)"/>
</g>
<defs>
<filter id="filter0_f" x="-206" y="0" width="412" height="497.586" filterUnits="userSpaceOnUse" color-interpolation-filters="sRGB">
<feFlood flood-opacity="0" result="BackgroundImageFix"/>
<feBlend mode="normal" in="SourceGraphic" in2="BackgroundImageFix" result="shape"/>
<feGaussianBlur stdDeviation="30" result="effect1_foregroundBlur"/>
</filter>
<linearGradient id="paint0_linear" x1="146" y1="246.806" x2="-146" y2="246.813" gradientUnits="userSpaceOnUse">
<stop stop-color="#1D577C"/>
<stop offset="1" stop-color="#FCD499"/>
</linearGradient>
<linearGradient id="paint1_linear" x1="146" y1="246.806" x2="-146" y2="246.813" gradientUnits="userSpaceOnUse">
<stop stop-color="#1D577C"/>
<stop offset="1" stop-color="#FCD499"/>
</linearGradient>
</defs>
</svg>
