<svg width="110" height="155" viewBox="0 0 110 155" fill="none" xmlns="http://www.w3.org/2000/svg">
<path d="M142.261 106.16C142.278 106.151 142.295 106.134 142.312 106.125C142.054 106.315 141.796 106.497 141.537 106.687C141.554 106.67 141.58 106.653 141.598 106.644C141.821 106.48 142.045 106.324 142.261 106.16Z" fill="white"/>
<path d="M140.977 107.086C140.891 107.146 140.814 107.207 140.728 107.267C140.736 107.258 140.745 107.258 140.753 107.25C140.822 107.198 140.9 107.146 140.977 107.086Z" fill="white"/>
<path d="M141.606 106.635C141.589 106.653 141.563 106.67 141.546 106.679C141.52 106.696 141.486 106.722 141.46 106.739C141.503 106.713 141.555 106.679 141.606 106.635Z" fill="white"/>
<path d="M140.745 107.249C140.736 107.258 140.727 107.258 140.719 107.267C140.667 107.301 140.624 107.336 140.572 107.37C140.633 107.327 140.693 107.293 140.745 107.249Z" fill="white"/>
<path d="M142.416 106.047C142.382 106.073 142.347 106.099 142.312 106.125C142.295 106.134 142.278 106.151 142.261 106.16C142.312 106.125 142.364 106.091 142.416 106.047Z" fill="white"/>
<path d="M141.537 106.687C141.494 106.722 141.443 106.757 141.4 106.791C141.417 106.783 141.434 106.766 141.451 106.757C141.477 106.731 141.511 106.705 141.537 106.687Z" fill="white"/>
<path d="M140.728 107.267C140.667 107.31 140.615 107.354 140.555 107.388C140.564 107.38 140.581 107.371 140.59 107.362C140.624 107.336 140.676 107.302 140.728 107.267Z" fill="white"/>
<path d="M140.84 105.84C141.391 105.442 141.951 105.035 142.536 104.612C141.976 105.027 141.408 105.433 140.84 105.84Z" fill="white"/>
<path d="M141.606 106.635C141.839 106.471 142.054 106.315 142.261 106.16C142.045 106.324 141.822 106.48 141.606 106.635Z" fill="white"/>
<path d="M141.382 106.8C141.245 106.895 141.107 106.99 140.978 107.094C140.9 107.146 140.823 107.207 140.754 107.258C140.969 107.094 141.176 106.947 141.382 106.8Z" fill="white"/>
<path d="M141.399 106.782C141.262 106.886 141.115 106.982 140.977 107.086C141.115 106.99 141.253 106.895 141.382 106.791C141.391 106.791 141.391 106.791 141.399 106.782Z" fill="white"/>
<path d="M140.581 107.371C140.573 107.38 140.555 107.388 140.547 107.397C140.538 107.397 140.538 107.406 140.529 107.406C140.547 107.397 140.564 107.38 140.581 107.371Z" fill="white"/>
<path d="M141.451 106.748C141.434 106.756 141.417 106.774 141.399 106.782C141.391 106.782 141.391 106.791 141.382 106.791C141.408 106.782 141.425 106.765 141.451 106.748Z" fill="white"/>
<path d="M62.3946 46.7321H28L85.0487 132.418L101.596 107.224L62.3946 46.7321ZM85.0401 130.438L30.0328 47.8219H61.8003L100.286 107.215L85.0401 130.438Z" fill="white"/>
<path d="M61.2145 48.9197H32.0743L85.0401 128.465L98.9943 107.214L61.2145 48.9197ZM85.0229 126.484L34.1072 50.0095H60.6202L97.6851 107.206L85.0229 126.484Z" fill="white"/>
<path d="M60.0344 51.0997H36.1486L85.0229 124.504L96.393 107.198L60.0344 51.0997ZM85.0142 122.532L38.1814 52.1895H59.4401L95.0837 107.198L85.0142 122.532Z" fill="white"/>
<path d="M91.5175 52.6133C97.1853 48.2628 104.877 44.1286 114.352 40.3403L131.089 34.0524C140.65 31.3366 149.54 26.1299 157.507 18.5533L160.083 16.1056L143.674 1.33301L141.537 2.88983C140.331 3.77203 139.238 4.56774 138.075 5.3721L137.937 5.46726L137.816 5.57104C133.217 9.48907 127.376 12.8881 120.425 15.6991C119.073 16.2872 117.893 16.7197 116.902 17.0051L116.773 17.0397L99.7178 23.4487C92.2583 26.4412 85.7721 29.6673 80.423 33.0578L80.3455 33.1096C80.0096 33.3432 79.6736 33.5767 79.3377 33.8016L79.2343 33.8708C78.2696 34.5281 77.2704 35.2114 76.3229 35.9639L73.4803 38.2299L89.2349 54.3604L91.5175 52.6133ZM76.9861 36.8374C77.9078 36.1022 78.8898 35.4362 79.8459 34.7789L79.8889 34.753C80.2421 34.5108 80.6039 34.2686 80.957 34.0178L81.0173 33.9746C86.2976 30.6274 92.7148 27.4359 100.114 24.4692L117.109 18.0776L117.195 18.0516C118.229 17.7576 119.46 17.3078 120.856 16.7024C127.902 13.8568 133.837 10.3972 138.523 6.40134L138.609 6.33216L138.704 6.27161C139.875 5.4586 140.978 4.6629 142.192 3.77205L143.613 2.73415L158.489 16.1315L156.775 17.7662C148.919 25.2217 140.168 30.3506 130.762 33.0145L113.982 39.311C104.395 43.1512 96.6168 47.3374 90.8714 51.7397L89.3469 52.916L75.117 38.3423L76.9861 36.8374Z" fill="white"/>
<path d="M90.191 50.8833C96.0139 46.4117 103.895 42.1737 113.586 38.2989L130.408 31.9851C139.66 29.3731 148.273 24.3307 156.008 16.979L156.87 16.166L143.527 4.1524L143.01 4.53296L142.821 4.67135C142.812 4.68 142.795 4.68864 142.786 4.69729C142.201 5.1211 141.641 5.52762 141.089 5.92547L141.081 5.93413C140.495 6.35793 139.918 6.76442 139.315 7.17957L139.229 7.24878C134.457 11.3138 128.427 14.834 121.287 17.7141C119.848 18.3369 118.573 18.8039 117.497 19.1153L117.453 19.1239L100.527 25.4896C99.9762 25.7145 99.4249 25.9394 98.8822 26.1643C92.241 28.9147 86.444 31.8467 81.6289 34.8912L81.5859 34.9171C81.3447 35.0901 81.0949 35.2544 80.8537 35.4274C80.7245 35.5139 80.5953 35.6004 80.4661 35.6955C79.5272 36.3356 78.5624 36.9929 77.6752 37.7021L76.7277 38.4546L89.4416 51.4714L90.191 50.8833ZM78.3212 38.5324L79.2688 37.8492C79.2688 37.8492 79.2774 37.8491 79.2774 37.8405L79.3549 37.7886C79.441 37.7281 79.5358 37.6589 79.6219 37.5983C79.6564 37.5724 79.6908 37.5464 79.7339 37.5205C79.8976 37.4081 80.0526 37.2956 80.2163 37.1832C80.2593 37.1572 80.3024 37.1226 80.3455 37.0967C80.4058 37.0534 80.4575 37.0188 80.5178 36.9843C80.6728 36.8718 80.8279 36.768 80.9829 36.6642C81.0174 36.6383 81.0518 36.621 81.0863 36.595L81.1121 36.5777C81.405 36.3788 81.6893 36.1799 81.9735 35.981C82.008 35.9637 82.0338 35.9377 82.0682 35.9204C82.1113 35.8945 82.1543 35.8599 82.1974 35.8339L82.2147 35.8166C82.5592 35.6004 82.9038 35.3842 83.2569 35.1679C87.3312 32.677 92.0343 30.2812 97.3748 27.9892C98.529 27.4962 99.7005 27.0032 100.906 26.5189L100.924 26.5102L117.789 20.1705H117.798C118.048 20.1013 118.306 20.0234 118.565 19.9369C118.608 19.9196 118.642 19.911 118.685 19.9024C118.797 19.8678 118.926 19.8159 119.038 19.7813C119.236 19.7121 119.435 19.6515 119.633 19.5737C119.779 19.5218 119.926 19.4612 120.072 19.4007C120.262 19.3315 120.442 19.2623 120.64 19.1845C120.976 19.0461 121.33 18.899 121.683 18.752C121.691 18.752 121.691 18.7434 121.7 18.7434H121.709C122.208 18.5445 122.691 18.3369 123.164 18.1379C123.362 18.0515 123.552 17.9736 123.741 17.8871C124.017 17.766 124.293 17.645 124.568 17.5239C124.801 17.4201 125.034 17.3163 125.257 17.2125C125.481 17.1087 125.697 17.0136 125.912 16.9098C126.162 16.7887 126.412 16.6763 126.653 16.5552C126.834 16.4687 127.023 16.3735 127.204 16.2871C127.463 16.1573 127.73 16.0276 127.988 15.8978C128.143 15.82 128.29 15.7422 128.436 15.6643C128.712 15.5259 128.987 15.3789 129.263 15.2319C129.375 15.1713 129.487 15.1108 129.599 15.0502C129.9 14.8859 130.193 14.7302 130.486 14.5659C130.555 14.5226 130.624 14.488 130.701 14.4448C131.029 14.2632 131.347 14.0815 131.666 13.8912C131.701 13.874 131.735 13.848 131.769 13.8307C132.114 13.6231 132.459 13.4242 132.803 13.2166C132.829 13.1993 132.846 13.1907 132.872 13.1734C133.217 12.9658 133.561 12.7496 133.897 12.5333C133.931 12.5074 133.975 12.4815 134.009 12.4642C134.328 12.2652 134.638 12.0577 134.948 11.8501C135.008 11.8068 135.077 11.7636 135.137 11.7203C135.413 11.53 135.689 11.3484 135.956 11.1581C136.042 11.0976 136.128 11.0371 136.206 10.9765C136.447 10.8035 136.688 10.6306 136.929 10.4576C137.024 10.3884 137.119 10.3192 137.213 10.25C137.239 10.2327 137.265 10.2154 137.282 10.1981C137.48 10.0511 137.678 9.90403 137.868 9.757C137.963 9.68781 138.049 9.61861 138.144 9.54077C138.247 9.46293 138.342 9.3851 138.445 9.30726C138.566 9.21212 138.686 9.11696 138.807 9.02182C138.884 8.96128 138.962 8.90074 139.039 8.8402C139.212 8.70182 139.384 8.55478 139.556 8.40775C139.668 8.31261 139.789 8.21748 139.901 8.12234L139.918 8.11368L139.935 8.09639C140.039 8.0272 140.133 7.95799 140.237 7.8888C140.418 7.75906 140.599 7.63797 140.779 7.50824C140.84 7.46499 140.9 7.42176 140.952 7.38717C141.038 7.32662 141.115 7.26609 141.201 7.20554C141.339 7.10175 141.486 7.00661 141.624 6.90282C141.667 6.86822 141.718 6.83363 141.761 6.79904C142.02 6.61741 142.278 6.4271 142.537 6.23683C142.829 6.0206 143.131 5.80439 143.432 5.57951L155.242 16.2178L154.355 17.0309C154.26 17.1174 154.174 17.1952 154.079 17.2817C153.838 17.5066 153.588 17.7228 153.347 17.939C153.132 18.1293 152.916 18.3196 152.692 18.5098C152.408 18.7607 152.124 19.0028 151.831 19.2364C151.659 19.3747 151.486 19.5218 151.314 19.6602C150.978 19.937 150.634 20.2137 150.289 20.4818C150.177 20.577 150.056 20.6635 149.944 20.7499C149.548 21.0613 149.143 21.364 148.747 21.6581C148.687 21.7014 148.635 21.7446 148.575 21.7878C148.118 22.1252 147.662 22.4538 147.205 22.7738C147.205 22.7738 147.205 22.7738 147.197 22.7738C142.786 25.8443 138.152 28.2314 133.303 29.9266C133.173 29.9699 133.053 30.0131 132.924 30.0563C132.51 30.1947 132.097 30.3418 131.683 30.4715C131.296 30.5926 130.899 30.705 130.503 30.8261C130.357 30.8694 130.219 30.9126 130.073 30.9559L130.029 30.9645L113.147 37.3043C112.552 37.5464 111.958 37.7886 111.372 38.0308C111.122 38.1346 110.881 38.2384 110.64 38.3422C110.571 38.3768 110.494 38.4027 110.425 38.4373C110.166 38.5497 109.908 38.6535 109.649 38.766C109.348 38.8957 109.064 39.0254 108.762 39.1551C108.495 39.2762 108.228 39.3887 107.961 39.5098C107.66 39.6481 107.358 39.7779 107.057 39.9163C106.807 40.0287 106.566 40.1412 106.316 40.2536C106.006 40.392 105.713 40.539 105.411 40.6774C105.179 40.7898 104.946 40.8936 104.714 41.0061C104.412 41.1531 104.111 41.2915 103.818 41.4385C103.594 41.5423 103.37 41.6547 103.155 41.7585C102.853 41.9056 102.56 42.0526 102.267 42.1996C102.052 42.3034 101.845 42.4159 101.639 42.5196C101.346 42.6667 101.061 42.8223 100.777 42.9694C100.571 43.0818 100.364 43.1856 100.157 43.2981C99.8814 43.4451 99.6058 43.6008 99.3301 43.7478C99.1234 43.8603 98.9253 43.9727 98.7186 44.0851C98.4516 44.2322 98.1845 44.3792 97.9261 44.5349C97.728 44.6473 97.5212 44.7684 97.3231 44.8808C97.0733 45.0279 96.815 45.1749 96.5652 45.3219C96.367 45.443 96.1603 45.5641 95.9622 45.6765C95.721 45.8236 95.4798 45.9706 95.2472 46.109C95.0491 46.2301 94.851 46.3598 94.6529 46.4809C94.4289 46.6279 94.1964 46.7663 93.9724 46.9134C93.7743 47.0431 93.5762 47.1728 93.3781 47.3026C93.1627 47.441 92.956 47.5793 92.7407 47.7264C92.5425 47.8561 92.3444 47.9945 92.1549 48.1242C91.9568 48.2626 91.7501 48.401 91.552 48.5394C91.3625 48.6778 91.1729 48.8075 90.9834 48.9459C90.7939 49.0843 90.5958 49.2227 90.4063 49.3611C90.2685 49.4648 90.1393 49.56 90.0014 49.6638C89.8206 49.7935 89.6397 49.9319 89.4674 50.0616L78.4505 38.6622L78.3212 38.5324Z" fill="white"/>
<path d="M112.802 36.2493L129.728 29.8922L129.771 29.8835C138.35 27.4704 146.378 22.8692 153.648 16.1921L143.381 6.9549C142.459 7.62952 141.537 8.28685 140.581 8.95283C135.637 13.1563 129.418 16.7889 122.113 19.7382C120.632 20.3782 119.28 20.8799 118.117 21.2085L101.294 27.531C94.1102 30.4112 87.8825 33.5075 82.7918 36.7249C82.4214 36.9844 82.051 37.2353 81.672 37.4947C81.1035 37.8839 80.5264 38.2731 79.9751 38.6796L89.6311 48.5655C95.5401 44.1891 103.327 40.0462 112.802 36.2493ZM82.3008 38.3942C82.6712 38.1434 83.0416 37.8926 83.412 37.6331C88.4424 34.4503 94.5926 31.3971 101.69 28.5516L118.47 22.2464C119.667 21.9005 121.037 21.3988 122.527 20.7501C129.926 17.7662 136.223 14.0904 141.253 9.81773C141.985 9.30744 142.692 8.80579 143.32 8.35604L152.029 16.1921C145.129 22.3156 137.558 26.5623 129.495 28.8284L129.409 28.8543L112.414 35.2373C103.258 38.9045 95.6435 42.9004 89.7775 47.1211L81.6806 38.8267C81.8787 38.6797 82.094 38.5326 82.3008 38.3942Z" fill="white"/>
<path d="M158.997 46.7317L155.337 52.146L107.065 124.184L94.3169 144.38V218.666H122.647V146.352L191.333 46.7144H158.997V46.7317ZM121.562 146.023V217.585H95.4109V144.708L107.987 124.781L156.241 52.7601L157.111 51.48L159.575 47.8301H189.266L121.562 146.023Z" fill="white"/>
<path d="M160.152 48.9197L158.016 52.0939L157.99 52.1285L156.741 53.9708L156.724 53.9967L108.909 125.36L96.4964 145.019V216.487H120.477V145.685L187.19 48.9197H160.152ZM119.383 145.339V215.397H97.5817V145.339L109.805 125.974L109.822 125.948L157.602 54.6281L157.619 54.6108L157.645 54.5676L158.033 53.9881L158.86 52.7686L160.72 50.0095H185.106L119.383 145.339Z" fill="white"/>
<path d="M158.515 55.2424L110.735 126.563L98.6755 145.66V214.307H118.298V145.002L183.03 51.1082H161.306L158.515 55.2424ZM180.954 52.198L117.212 144.656V213.218H99.7694V145.98L111.639 127.168L159.42 55.8565L161.892 52.198H180.954Z" fill="white"/>
</svg>
