<svg width="165" height="255" viewBox="0 0 165 255" fill="none" xmlns="http://www.w3.org/2000/svg">
<g clip-path="url(#clip0)">
<path d="M213.391 159.24C213.417 159.227 213.443 159.201 213.469 159.188C213.081 159.474 212.693 159.746 212.306 160.031C212.332 160.006 212.37 159.98 212.396 159.967C212.732 159.72 213.068 159.487 213.391 159.24Z" fill="white"/>
<path d="M211.466 160.629C211.337 160.72 211.221 160.81 211.091 160.901C211.104 160.888 211.117 160.888 211.13 160.875C211.234 160.797 211.35 160.72 211.466 160.629Z" fill="white"/>
<path d="M212.409 159.953C212.384 159.979 212.345 160.005 212.319 160.018C212.28 160.044 212.228 160.083 212.19 160.109C212.254 160.07 212.332 160.018 212.409 159.953Z" fill="white"/>
<path d="M211.117 160.875C211.104 160.888 211.091 160.887 211.078 160.9C211.001 160.952 210.936 161.004 210.859 161.056C210.949 160.991 211.039 160.939 211.117 160.875Z" fill="white"/>
<path d="M213.624 159.072C213.572 159.111 213.52 159.149 213.469 159.188C213.443 159.201 213.417 159.227 213.391 159.24C213.469 159.188 213.547 159.137 213.624 159.072Z" fill="white"/>
<path d="M212.306 160.031C212.241 160.083 212.164 160.136 212.1 160.188C212.125 160.175 212.151 160.149 212.177 160.136C212.216 160.097 212.267 160.057 212.306 160.031Z" fill="white"/>
<path d="M211.091 160.901C211.001 160.966 210.923 161.031 210.833 161.083C210.846 161.07 210.872 161.057 210.884 161.044C210.936 161.005 211.014 160.953 211.091 160.901Z" fill="white"/>
<path d="M211.259 158.76C212.086 158.163 212.926 157.554 213.805 156.918C212.965 157.541 212.112 158.15 211.259 158.76Z" fill="white"/>
<path d="M212.409 159.953C212.758 159.707 213.081 159.474 213.391 159.24C213.068 159.487 212.732 159.72 212.409 159.953Z" fill="white"/>
<path d="M212.074 160.201C211.867 160.343 211.66 160.486 211.466 160.642C211.35 160.719 211.234 160.81 211.13 160.888C211.453 160.642 211.764 160.421 212.074 160.201Z" fill="white"/>
<path d="M212.099 160.174C211.892 160.33 211.673 160.473 211.466 160.629C211.673 160.486 211.88 160.343 212.073 160.187C212.086 160.187 212.086 160.187 212.099 160.174Z" fill="white"/>
<path d="M210.872 161.057C210.859 161.07 210.833 161.083 210.82 161.096C210.807 161.096 210.807 161.109 210.794 161.109C210.82 161.096 210.846 161.07 210.872 161.057Z" fill="white"/>
<path d="M212.176 160.122C212.151 160.135 212.125 160.161 212.099 160.174C212.086 160.174 212.086 160.187 212.073 160.187C212.112 160.174 212.138 160.148 212.176 160.122Z" fill="white"/>
<path d="M93.5919 70.0987H42L127.573 198.628L152.394 160.836L93.5919 70.0987ZM127.56 195.657L45.0492 71.7334H92.7004L150.43 160.823L127.56 195.657Z" fill="white"/>
<path d="M91.8218 73.3801H48.1114L127.56 192.698L148.492 160.822L91.8218 73.3801ZM127.534 189.727L51.1607 75.0148H90.9303L146.528 160.809L127.534 189.727Z" fill="white"/>
<path d="M90.0516 76.6501H54.2228L127.534 186.757L144.589 160.797L90.0516 76.6501ZM127.521 183.799L57.2721 78.2847H89.1601L142.626 160.797L127.521 183.799Z" fill="white"/>
<path d="M137.276 78.9204C145.778 72.3947 157.316 66.1933 171.529 60.5109L196.633 51.0791C210.975 47.0054 224.309 39.1953 236.261 27.8304L240.124 24.1589L215.51 2L212.306 4.33523C210.497 5.65854 208.856 6.8521 207.112 8.05864L206.905 8.20137L206.724 8.35705C199.825 14.2341 191.065 19.3327 180.638 23.5491C178.609 24.4313 176.839 25.08 175.353 25.5081L175.159 25.56L149.577 35.1735C138.387 39.6623 128.658 44.5015 120.634 49.5871L120.518 49.665C120.014 50.0152 119.51 50.3656 119.007 50.7029L118.851 50.8066C117.404 51.7926 115.906 52.8176 114.484 53.9463L110.22 57.3453L133.852 81.5411L137.276 78.9204ZM115.479 55.2566C116.862 54.1538 118.335 53.1548 119.769 52.1688L119.833 52.1299C120.363 51.7667 120.906 51.4034 121.436 51.0272L121.526 50.9623C129.446 45.9415 139.072 41.1543 150.171 36.7044L175.663 27.1169L175.793 27.0779C177.343 26.6368 179.191 25.9622 181.284 25.0541C191.853 20.7857 200.755 15.5963 207.784 9.6025L207.913 9.49873L208.055 9.40791C209.812 8.18839 211.466 6.99484 213.288 5.65856L215.42 4.10172L237.734 24.1978L235.163 26.6498C223.379 37.8331 210.252 45.5264 196.142 49.5223L170.973 58.967C156.593 64.7273 144.925 71.0065 136.307 77.6101L134.02 79.3745L112.675 57.514L115.479 55.2566Z" fill="white"/>
<path d="M135.286 76.3254C144.021 69.6181 155.843 63.261 170.379 57.4488L195.613 47.9781C209.489 44.0601 222.41 36.4965 234.013 25.4689L235.305 24.2494L215.291 6.22909L214.516 6.79993L214.231 7.00751C214.218 7.02048 214.193 7.03346 214.18 7.04643C213.301 7.68213 212.461 8.29191 211.634 8.8887L211.621 8.90168C210.743 9.53739 209.877 10.1471 208.973 10.7698L208.843 10.8737C201.685 16.9712 192.641 22.2515 181.93 26.5717C179.772 27.5058 177.86 28.2064 176.245 28.6734L176.18 28.6864L150.791 38.235C149.964 38.5723 149.137 38.9096 148.323 39.2469C138.362 43.3725 129.666 47.7705 122.443 52.3372L122.379 52.3762C122.017 52.6356 121.642 52.8821 121.281 53.1416C121.087 53.2713 120.893 53.4011 120.699 53.5438C119.291 54.5038 117.844 55.4898 116.513 56.5537L115.092 57.6824L134.162 77.2076L135.286 76.3254ZM117.482 57.7991L118.903 56.7742C118.903 56.7742 118.916 56.7742 118.916 56.7612L119.032 56.6834C119.162 56.5926 119.304 56.4888 119.433 56.398C119.485 56.3591 119.536 56.3201 119.601 56.2812C119.846 56.1126 120.079 55.9439 120.324 55.7752C120.389 55.7363 120.454 55.6844 120.518 55.6455C120.609 55.5807 120.686 55.5288 120.777 55.4769C121.009 55.3082 121.242 55.1525 121.474 54.9968C121.526 54.9579 121.578 54.932 121.629 54.893L121.668 54.8671C122.107 54.5687 122.534 54.2703 122.96 53.9719C123.012 53.946 123.051 53.907 123.102 53.8811C123.167 53.8422 123.232 53.7903 123.296 53.7514L123.322 53.7254C123.839 53.4011 124.356 53.0767 124.885 52.7524C130.997 49.016 138.051 45.4223 146.062 41.9843C147.794 41.2448 149.551 40.5053 151.36 39.7788L151.386 39.7658L176.684 30.2562H176.697C177.072 30.1524 177.459 30.0356 177.847 29.9059C177.912 29.8799 177.963 29.867 178.028 29.854C178.196 29.8021 178.39 29.7243 178.558 29.6724C178.855 29.5686 179.152 29.4778 179.449 29.361C179.669 29.2832 179.888 29.1923 180.108 29.1015C180.392 28.9977 180.664 28.894 180.961 28.7772C181.465 28.5696 181.994 28.3491 182.524 28.1285C182.537 28.1285 182.537 28.1156 182.55 28.1156H182.563C183.312 27.8172 184.036 27.5058 184.746 27.2074C185.044 27.0777 185.328 26.9609 185.612 26.8312C186.026 26.6495 186.439 26.4679 186.853 26.2863C187.201 26.1306 187.55 25.9749 187.886 25.8192C188.222 25.6635 188.545 25.5208 188.868 25.3651C189.243 25.1835 189.618 25.0149 189.979 24.8332C190.251 24.7035 190.535 24.5608 190.806 24.4311C191.194 24.2365 191.594 24.0418 191.982 23.8472C192.215 23.7305 192.434 23.6137 192.654 23.497C193.067 23.2894 193.481 23.0688 193.894 22.8483C194.062 22.7575 194.23 22.6666 194.398 22.5758C194.85 22.3293 195.29 22.0958 195.729 21.8493C195.832 21.7844 195.936 21.7326 196.052 21.6677C196.543 21.3952 197.021 21.1228 197.499 20.8374C197.551 20.8114 197.603 20.7725 197.654 20.7465C198.171 20.4352 198.688 20.1368 199.205 19.8254C199.243 19.7995 199.269 19.7865 199.308 19.7606C199.825 19.4492 200.342 19.1248 200.846 18.8005C200.897 18.7616 200.962 18.7227 201.014 18.6967C201.492 18.3983 201.957 18.087 202.422 17.7756C202.512 17.7107 202.616 17.6458 202.706 17.581C203.12 17.2956 203.533 17.0231 203.934 16.7377C204.063 16.6469 204.192 16.5561 204.308 16.4653C204.67 16.2058 205.032 15.9463 205.394 15.6868C205.536 15.5831 205.678 15.4793 205.82 15.3755C205.859 15.3495 205.898 15.3236 205.923 15.2977C206.221 15.0771 206.518 14.8565 206.802 14.636C206.944 14.5322 207.073 14.4284 207.215 14.3116C207.37 14.1949 207.513 14.0781 207.668 13.9614C207.849 13.8187 208.029 13.6759 208.21 13.5332C208.327 13.4424 208.443 13.3516 208.559 13.2608C208.818 13.0532 209.076 12.8327 209.334 12.6121C209.502 12.4694 209.683 12.3267 209.851 12.184L209.877 12.171L209.903 12.1451C210.058 12.0413 210.2 11.9375 210.355 11.8337C210.626 11.6391 210.898 11.4574 211.169 11.2628C211.26 11.198 211.35 11.1331 211.428 11.0812C211.557 10.9904 211.673 10.8996 211.802 10.8088C212.009 10.6531 212.229 10.5104 212.435 10.3547C212.5 10.3028 212.577 10.2509 212.642 10.199C213.03 9.9266 213.417 9.64115 213.805 9.35573C214.244 9.03139 214.696 8.70707 215.149 8.36976L232.863 24.3273L231.532 25.5468C231.39 25.6765 231.261 25.7933 231.119 25.923C230.757 26.2603 230.382 26.5847 230.02 26.909C229.697 27.1944 229.374 27.4798 229.038 27.7653C228.612 28.1415 228.186 28.5047 227.746 28.855C227.488 29.0626 227.229 29.2832 226.971 29.4908C226.467 29.9059 225.95 30.321 225.434 30.7232C225.266 30.8659 225.085 30.9957 224.917 31.1254C224.322 31.5925 223.715 32.0466 223.121 32.4877C223.03 32.5525 222.953 32.6174 222.862 32.6823C222.177 33.1882 221.493 33.6812 220.808 34.1613C220.808 34.1613 220.808 34.1613 220.795 34.1613C214.18 38.7669 207.228 42.3476 199.954 44.8904C199.76 44.9553 199.579 45.0201 199.386 45.085C198.765 45.2926 198.145 45.5131 197.525 45.7078C196.944 45.8894 196.349 46.058 195.755 46.2397C195.535 46.3045 195.328 46.3694 195.109 46.4343L195.044 46.4472L169.72 55.9569C168.828 56.3201 167.937 56.6834 167.058 57.0467C166.683 57.2023 166.322 57.358 165.96 57.5137C165.857 57.5656 165.74 57.6045 165.637 57.6564C165.249 57.8251 164.862 57.9808 164.474 58.1494C164.022 58.344 163.595 58.5386 163.143 58.7332C162.743 58.9148 162.342 59.0835 161.942 59.2651C161.489 59.4727 161.037 59.6673 160.585 59.8749C160.21 60.0435 159.848 60.2122 159.474 60.3809C159.009 60.5885 158.569 60.809 158.117 61.0166C157.768 61.1852 157.419 61.3409 157.071 61.5096C156.618 61.7301 156.166 61.9377 155.727 62.1583C155.391 62.3139 155.055 62.4826 154.732 62.6383C154.28 62.8588 153.84 63.0794 153.401 63.2999C153.078 63.4556 152.768 63.6243 152.458 63.78C152.019 64.0005 151.592 64.234 151.166 64.4546C150.856 64.6232 150.546 64.7789 150.236 64.9476C149.822 65.1681 149.409 65.4017 148.995 65.6222C148.685 65.7909 148.388 65.9595 148.078 66.1282C147.677 66.3487 147.277 66.5693 146.889 66.8028C146.592 66.9714 146.282 67.1531 145.985 67.3218C145.61 67.5423 145.222 67.7628 144.848 67.9834C144.551 68.165 144.24 68.3466 143.943 68.5153C143.582 68.7359 143.22 68.9564 142.871 69.164C142.574 69.3456 142.277 69.5402 141.979 69.7218C141.643 69.9424 141.295 70.15 140.959 70.3705C140.661 70.5651 140.364 70.7597 140.067 70.9543C139.744 71.1619 139.434 71.3695 139.111 71.59C138.814 71.7846 138.517 71.9922 138.232 72.1869C137.935 72.3944 137.625 72.602 137.328 72.8096C137.044 73.0171 136.759 73.2117 136.475 73.4193C136.191 73.6269 135.894 73.8345 135.609 74.0421C135.403 74.1977 135.209 74.3405 135.002 74.4961C134.731 74.6908 134.46 74.8983 134.201 75.0929L117.676 57.9937L117.482 57.7991Z" fill="white"/>
<path d="M169.203 54.3744L194.592 44.8388L194.657 44.8258C207.526 41.2062 219.568 34.3042 230.472 24.2886L215.071 10.4328C213.689 11.4448 212.306 12.4308 210.872 13.4297C203.456 19.7349 194.127 25.1838 183.17 29.6078C180.948 30.5678 178.919 31.3203 177.175 31.8133L151.941 41.297C141.165 45.6172 131.824 50.2617 124.188 55.0879C123.632 55.4771 123.076 55.8534 122.508 56.2426C121.655 56.8264 120.79 57.4102 119.963 58.02L134.447 72.8488C143.31 66.2841 154.99 60.0698 169.203 54.3744ZM123.451 57.5918C124.007 57.2156 124.562 56.8394 125.118 56.4502C132.664 51.6759 141.889 47.0962 152.535 42.8279L177.705 33.3701C179.501 32.8512 181.555 32.0987 183.79 31.1257C194.889 26.6498 204.334 21.136 211.88 14.7271C212.978 13.9616 214.037 13.2092 214.981 12.5345L228.043 24.2886C217.694 33.4739 206.337 39.844 194.243 43.2431L194.114 43.282L168.622 52.8564C154.887 58.3573 143.465 64.3511 134.666 70.6822L122.521 58.2405C122.818 58.02 123.141 57.7994 123.451 57.5918Z" fill="white"/>
<path d="M238.496 70.098L233.005 78.2195L160.598 186.277L141.475 216.57V328H183.971V219.528L287 70.0721H238.496V70.098ZM182.343 219.035V326.378H143.116V217.063L161.98 187.172L234.362 79.1406L235.667 77.2205L239.362 71.7456H283.899L182.343 219.035Z" fill="white"/>
<path d="M240.228 73.3801L237.023 78.1414L236.985 78.1933L235.111 80.9567L235.085 80.9956L163.363 188.041L144.745 217.53V324.73H180.715V218.529L280.786 73.3801H240.228ZM179.075 218.01V323.096H146.373V218.01L164.707 188.962L164.733 188.923L236.403 81.9427L236.429 81.9167L236.468 81.8518L237.049 80.9826L238.29 79.1533L241.081 75.0148H277.659L179.075 218.01Z" fill="white"/>
<path d="M237.773 82.8641L166.102 189.844L148.013 218.49V321.461H177.446V217.504L274.545 76.6628H241.959L237.773 82.8641ZM271.431 78.2974L175.818 216.985V319.827H149.654V218.97L167.459 190.753L239.129 83.7853L242.838 78.2974H271.431Z" fill="white"/>
</g>
<defs>
<clipPath id="clip0">
<rect width="165" height="255" fill="white"/>
</clipPath>
</defs>
</svg>
