<svg width="472" height="575" viewBox="0 0 472 575" fill="none" xmlns="http://www.w3.org/2000/svg">
<g opacity="0.4" filter="url(#filter0_f)">
<path d="M122.279 156.418H60L179.712 322.169L209.486 280.405L122.279 156.418Z" fill="url(#paint0_linear)"/>
<path d="M357.655 156.418L353.426 162.21L350.343 166.37L238.03 321.027L209.226 363.117V515H260.493V363.117L415 156.418H357.655Z" fill="url(#paint1_linear)"/>
<path d="M245.953 128.764L285.593 115.06C307.086 109.513 326.818 98.8273 344.788 83.0843L317.04 60C314.309 61.7945 311.579 63.6707 308.76 65.4652C299.951 72.3986 286.385 80.8819 265.949 88.5495C262.602 89.8546 259.43 90.9966 256.7 91.6492L217.06 105.434C199.883 111.797 185.172 118.486 173.016 125.582C169.933 127.54 166.761 129.416 163.943 131.537L190.281 156.416C204.287 146.546 222.786 137.328 245.953 128.764Z" fill="url(#paint2_linear)"/>
<path d="M351.396 164.983L350.343 166.37L353.426 162.21L351.396 164.983Z" fill="url(#paint3_linear)"/>
</g>
<defs>
<filter id="filter0_f" x="0" y="0" width="475" height="575" filterUnits="userSpaceOnUse" color-interpolation-filters="sRGB">
<feFlood flood-opacity="0" result="BackgroundImageFix"/>
<feBlend mode="normal" in="SourceGraphic" in2="BackgroundImageFix" result="shape"/>
<feGaussianBlur stdDeviation="30" result="effect1_foregroundBlur"/>
</filter>
<linearGradient id="paint0_linear" x1="415" y1="285.105" x2="60" y2="285.115" gradientUnits="userSpaceOnUse">
<stop stop-color="#7F54A0"/>
<stop offset="1" stop-color="#176AB2"/>
</linearGradient>
<linearGradient id="paint1_linear" x1="415" y1="285.105" x2="60" y2="285.115" gradientUnits="userSpaceOnUse">
<stop stop-color="#7F54A0"/>
<stop offset="1" stop-color="#176AB2"/>
</linearGradient>
<linearGradient id="paint2_linear" x1="415" y1="285.105" x2="60" y2="285.115" gradientUnits="userSpaceOnUse">
<stop stop-color="#7F54A0"/>
<stop offset="1" stop-color="#176AB2"/>
</linearGradient>
<linearGradient id="paint3_linear" x1="415" y1="285.105" x2="60" y2="285.115" gradientUnits="userSpaceOnUse">
<stop stop-color="#7F54A0"/>
<stop offset="1" stop-color="#176AB2"/>
</linearGradient>
</defs>
</svg>
